<svg width="341" height="56" viewBox="0 0 341 56" fill="none" xmlns="http://www.w3.org/2000/svg">
<path d="M52.2456 47.5982V8.44122H60.4702V47.5982H52.2456Z" fill="#EEEEEE"/>
<path d="M92.0763 47.5982V37.5159C92.0763 35.6401 91.6455 34.2724 90.7838 33.4908C89.9222 32.6701 88.3165 32.2793 85.9274 32.2793H77.1937V47.6373H69.2041V8.44122H89.1389C90.9405 8.44122 92.5854 8.71477 94.0737 9.30096C95.5619 9.88714 96.8152 10.6687 97.8726 11.6457C98.9301 12.6227 99.7526 13.8341 100.34 15.2409C100.927 16.6478 101.202 18.1328 101.202 19.735C101.202 21.8453 100.693 23.7211 99.7134 25.3624C98.6951 27.0037 97.246 28.137 95.3661 28.8013C97.0893 29.3484 98.3426 30.2081 99.0476 31.3414C99.7917 32.4747 100.144 34.1942 100.144 36.4608V47.5592H92.0763V47.5982ZM77.1937 15.2019V25.6359H87.494C89.6872 25.6359 91.2538 25.1279 92.1546 24.1509C93.0554 23.174 93.5254 21.9234 93.5254 20.4384C93.5254 18.9144 93.0945 17.6638 92.1938 16.6478C91.293 15.6708 89.8439 15.1628 87.8073 15.1628H77.1937V15.2019Z" fill="#EEEEEE"/>
<path d="M143.852 34.1552C143.421 36.3827 142.716 38.4148 141.776 40.2124C140.836 42.01 139.622 43.5732 138.212 44.8628C136.763 46.1524 135.118 47.1685 133.199 47.8719C131.28 48.5753 129.204 48.927 126.932 48.927C124.387 48.927 121.959 48.4971 119.765 47.6374C117.533 46.7777 115.614 45.4881 114.008 43.7295C112.402 42.01 111.11 39.8607 110.209 37.3206C109.269 34.7805 108.838 31.8105 108.838 28.4497C108.838 25.128 109.269 22.158 110.092 19.5006C110.953 16.8433 112.167 14.6158 113.734 12.7791C115.301 10.9424 117.22 9.53552 119.491 8.55854C121.763 7.58157 124.308 7.07355 127.089 7.07355C129.517 7.07355 131.75 7.42526 133.747 8.16776C135.745 8.91025 137.468 9.88722 138.878 11.1768C140.327 12.4664 141.463 13.9514 142.324 15.6709C143.186 17.3904 143.695 19.2661 143.891 21.2201H135.666C135.118 18.9926 134.06 17.234 132.455 15.9835C130.888 14.733 129.087 14.1077 127.128 14.1077C123.682 14.1077 121.175 15.3192 119.569 17.7812C117.964 20.2431 117.141 23.6039 117.141 27.9026C117.141 32.2794 117.925 35.6793 119.53 38.0631C121.136 40.4469 123.525 41.6974 126.697 41.6974C129.126 41.6974 131.084 41.0331 132.572 39.7044C134.06 38.3757 135.079 36.4999 135.627 33.9989H143.852V34.1552Z" fill="#EEEEEE"/>
<path d="M151.45 47.5982V8.44122H159.674V40.4859H179.139V47.6373H151.45V47.5982Z" fill="#EEEEEE"/>
<path d="M186.972 47.5982V8.44122H215.837V15.28H194.962V23.6429H214.192V30.5599H194.962V40.6422H216.777V47.5982H186.972Z" fill="#EEEEEE"/>
<path d="M251.594 47.5982L249.126 39.5089H234.635L231.855 47.5982H223.16L237.181 8.44122H246.698L260.523 47.5982H251.594ZM241.842 17.234H241.763L236.75 32.8264H246.737L241.842 17.234Z" fill="#EEEEEE"/>
<path d="M291.15 47.5982V37.5159C291.15 35.6401 290.719 34.2724 289.858 33.4908C288.996 32.6701 287.39 32.2793 285.001 32.2793H276.267V47.6373H268.278V8.44122H288.213C290.014 8.44122 291.659 8.71477 293.147 9.30096C294.636 9.88714 295.889 10.6687 296.946 11.6457C298.004 12.6617 298.826 13.8341 299.414 15.2409C300.001 16.6478 300.275 18.1328 300.275 19.735C300.275 21.8453 299.766 23.7211 298.787 25.3624C297.769 27.0037 296.32 28.137 294.44 28.8013C296.163 29.3484 297.416 30.2081 298.121 31.3414C298.865 32.4747 299.218 34.1942 299.218 36.4608V47.5592H291.15V47.5982ZM276.267 15.2019V25.6359H286.568C288.761 25.6359 290.328 25.1279 291.228 24.1509C292.129 23.174 292.599 21.9234 292.599 20.4384C292.599 18.9144 292.168 17.6638 291.268 16.6478C290.367 15.6708 288.918 15.1628 286.881 15.1628H276.267V15.2019Z" fill="#EEEEEE"/>
<path d="M332.782 47.5982L315.981 21.2982V47.5982H308.344V8.44122H317.038L332.665 33.608V8.44122H340.341V47.5982H332.782Z" fill="#EEEEEE"/>
<path d="M47.1933 47.09C47.5849 47.4807 47.5458 48.106 47.1541 48.4577C42.141 53.1081 35.4047 55.9999 28.0418 55.9999C25.731 55.9999 23.4595 55.7264 21.3054 55.1793C20.0913 54.8666 18.8772 54.4759 17.7023 54.046C16.2924 53.4989 14.9216 52.7955 13.6292 52.0139C13.355 51.8576 13.1592 51.5449 13.1592 51.1932V27.3161C13.3158 23.4082 15.0391 19.8911 17.7023 17.3119C18.5639 16.4912 19.543 15.7487 20.6005 15.1235C21.2271 14.7717 22.0104 15.2016 22.0104 15.9441V45.4486C22.0104 45.8785 22.2845 46.2302 22.7154 46.3475C24.3994 46.8555 26.201 47.09 28.0418 47.09C33.0157 47.09 37.5196 45.2142 40.9269 42.0879C41.3186 41.7362 41.8669 41.7362 42.2585 42.1269L47.1933 47.09Z" fill="#EEEEEE"/>
<path d="M47.1934 8.8709L42.2587 13.7948C41.9062 14.1465 41.3187 14.1465 40.9271 13.8339C37.5197 10.7467 32.9766 8.83182 28.0419 8.83182C25.927 8.83182 23.9296 9.18353 22.0105 9.80879C20.4831 10.3168 19.034 11.0202 17.7024 11.88C15.9792 12.9742 14.4518 14.3419 13.1593 15.9051C13.1593 15.9051 13.1593 15.9051 13.1593 15.9442C10.457 19.2268 8.85121 23.4473 8.85121 28.0195V46.074C8.85121 46.9337 7.79377 47.3636 7.2063 46.6992C2.74153 41.7362 0 35.171 0 27.9805C0 19.9693 3.40733 12.7006 8.85121 7.5813C10.1828 6.33077 11.6319 5.23657 13.1593 4.2596C14.5693 3.36078 16.0967 2.5792 17.7024 1.95394C19.0732 1.40684 20.5223 0.976971 22.0105 0.625262C23.9688 0.234473 25.9662 0 28.0419 0C35.4049 0 42.1412 2.85276 47.1543 7.54222C47.5459 7.89393 47.5459 8.51919 47.1934 8.8709Z" fill="#2F2E41"/>
</svg>
