<svg xmlns="http://www.w3.org/2000/svg" width="757" height="622" fill="none" viewBox="0 0 757 622"><g clip-path="url(#clip0)"><path fill="#E6E6E6" d="M554.081 512.063C560.091 514.177 566.544 514.707 572.818 513.601C579.092 512.495 584.976 509.79 589.903 505.747C602.449 495.207 606.383 477.843 609.584 461.764L619.051 414.207L599.23 427.867C584.977 437.69 570.402 447.828 560.533 462.056C550.663 476.284 546.355 495.707 554.285 511.103"/><path fill="#F2F2F2" d="M555.776 569.641C553.769 555.016 551.707 540.202 553.114 525.42C554.364 512.292 558.365 499.47 566.512 488.956C570.836 483.386 576.098 478.614 582.061 474.854C583.616 473.872 585.047 476.338 583.499 477.316C573.182 483.842 565.201 493.48 560.709 504.838C555.747 517.469 554.95 531.238 555.806 544.656C556.323 552.771 557.418 560.832 558.523 568.883C558.61 569.247 558.555 569.631 558.371 569.956C558.186 570.282 557.885 570.525 557.528 570.637C557.164 570.735 556.775 570.685 556.447 570.499C556.119 570.313 555.878 570.004 555.776 569.641Z"/><path fill="#E6E6E6" d="M575.098 543.761C577.676 547.682 581.219 550.873 585.386 553.026C589.553 555.178 594.204 556.221 598.891 556.052C610.935 555.48 620.976 547.066 630.015 539.078L656.751 515.452L639.056 514.605C626.331 513.995 613.278 513.427 601.159 517.354C589.039 521.282 577.861 530.734 575.645 543.29"/><path fill="#F2F2F2" d="M550.106 578.048C559.762 560.948 570.961 541.944 590.973 535.869C596.538 534.186 602.372 533.583 608.163 534.093C609.988 534.251 609.532 537.066 607.711 536.909C598.004 536.102 588.317 538.668 580.279 544.173C572.544 549.442 566.522 556.768 561.425 564.537C558.302 569.295 555.506 574.256 552.709 579.21C551.815 580.793 549.202 579.65 550.106 578.048V578.048Z"/><path fill="#E6E6E6" d="M312.125 457.917C300.28 462.084 287.562 463.128 275.197 460.948C262.832 458.768 251.236 453.437 241.526 445.469C216.799 424.697 209.046 390.474 202.738 358.785C196.518 327.542 190.299 296.3 184.079 265.057L223.143 291.978C251.235 311.338 279.96 331.318 299.41 359.36C318.861 387.402 327.352 425.682 311.723 456.025"/><path fill="#F2F2F2" d="M308.786 571.395C312.74 542.57 316.805 513.376 314.032 484.242C311.569 458.369 303.682 433.098 287.626 412.377C279.103 401.399 268.733 391.994 256.981 384.583C253.916 382.647 251.095 387.508 254.147 389.435C274.481 402.298 290.209 421.292 299.063 443.678C308.842 468.572 310.412 495.709 308.727 522.154C307.708 538.146 305.548 554.034 303.372 569.901C303.2 570.618 303.307 571.374 303.671 572.016C304.035 572.658 304.629 573.137 305.333 573.357C306.05 573.551 306.815 573.453 307.462 573.086C308.108 572.719 308.584 572.111 308.786 571.395Z"/><path fill="#E6E6E6" d="M270.704 520.389C265.624 528.117 258.641 534.406 250.428 538.648C242.215 542.891 233.049 544.945 223.812 544.613C200.074 543.485 180.285 526.903 162.47 511.16L109.779 464.597L144.652 462.927C169.73 461.725 195.456 460.605 219.343 468.346C243.229 476.086 265.259 494.715 269.626 519.461"/><path fill="#F2F2F2" d="M319.959 587.965C300.93 554.263 278.857 516.807 239.416 504.836C228.449 501.518 216.95 500.33 205.538 501.335C201.941 501.645 202.839 507.194 206.43 506.885C225.559 505.295 244.652 510.351 260.493 521.2C275.737 531.586 287.606 546.024 297.652 561.335C303.806 570.714 309.318 580.49 314.83 590.253C316.592 593.373 321.742 591.121 319.959 587.965Z"/><path fill="#CCC" d="M173.081 131.696L9.23374 97.3385L7.10446 96.8931C6.02008 96.6641 4.89311 96.746 3.8532 97.1296C2.8133 97.5131 1.90266 98.1826 1.22601 99.0611C0.549364 99.9396 0.134205 100.991 0.0282522 102.095C-0.0777009 103.2 0.129875 104.311 0.627095 105.303L66.3816 236.973C66.8071 237.819 67.4295 238.55 68.1963 239.105C68.9631 239.66 69.8519 240.023 70.7878 240.162C71.7267 240.303 72.6857 240.212 73.5819 239.899C74.478 239.585 75.2844 239.058 75.9314 238.363L120.776 190.47C121.095 190.12 121.483 189.841 121.915 189.649C122.347 189.457 122.814 189.357 123.287 189.354C123.929 189.342 124.563 189.504 125.121 189.824C125.678 190.144 126.138 190.609 126.452 191.171L135.797 208.228C136.393 209.366 137.353 210.271 138.523 210.799C139.694 211.327 141.007 211.448 142.254 211.143L142.3 211.133C143.562 210.858 144.695 210.165 145.517 209.167C146.338 208.17 146.801 206.924 146.83 205.631L148.448 166.12C148.467 165.627 148.587 165.143 148.801 164.698C149.03 164.258 149.343 163.867 149.722 163.546L175.629 142.002C176.481 141.293 177.116 140.36 177.461 139.307C177.807 138.254 177.849 137.125 177.583 136.05C177.317 134.974 176.754 133.995 175.958 133.225C175.162 132.455 174.165 131.925 173.081 131.696V131.696ZM174.131 140.192L148.224 161.737C147.886 162.012 147.581 162.325 147.313 162.669L8.95882 100.856C8.83677 100.8 8.70953 100.756 8.57894 100.725C8.04591 100.591 7.48282 100.648 6.98704 100.885C6.49126 101.123 6.09398 101.526 5.86388 102.026C5.63378 102.525 5.58533 103.089 5.72692 103.621C5.86852 104.153 6.19125 104.618 6.6393 104.936L120.587 187.674C120.013 187.977 119.495 188.377 119.057 188.856L74.213 236.748C73.8239 237.163 73.3405 237.478 72.8039 237.665C72.2673 237.853 71.6933 237.908 71.1308 237.827C70.5682 237.745 70.0338 237.528 69.5728 237.195C69.1117 236.863 68.7378 236.423 68.4827 235.915L2.72829 104.244C2.4343 103.649 2.31318 102.984 2.37873 102.323C2.44427 101.663 2.69387 101.034 3.09905 100.509C3.50422 99.9832 4.04868 99.5822 4.67044 99.3514C5.29219 99.1206 5.96623 99.0692 6.61574 99.2031L8.79556 99.661L172.592 134.006C173.243 134.143 173.841 134.461 174.32 134.922C174.798 135.384 175.137 135.971 175.298 136.617C175.458 137.262 175.434 137.94 175.228 138.572C175.022 139.204 174.642 139.766 174.131 140.192L174.131 140.192Z"/><path fill="#3F3D56" d="M173.081 131.696L9.23374 97.3385L7.10446 96.8931C6.02008 96.6641 4.89311 96.746 3.8532 97.1296C2.8133 97.5131 1.90266 98.1826 1.22601 99.0611C0.549364 99.9396 0.134205 100.991 0.0282522 102.095C-0.0777009 103.2 0.129875 104.311 0.627095 105.303L66.3816 236.973C66.8071 237.819 67.4295 238.55 68.1963 239.105C68.9631 239.66 69.8519 240.023 70.7878 240.162C71.7267 240.303 72.6857 240.212 73.5819 239.899C74.478 239.585 75.2844 239.058 75.9314 238.363L120.776 190.47C121.095 190.12 121.483 189.841 121.915 189.649C122.347 189.457 122.814 189.357 123.287 189.354C123.929 189.342 124.563 189.504 125.121 189.824C125.678 190.144 126.138 190.609 126.452 191.171L135.797 208.228C136.393 209.366 137.353 210.271 138.523 210.799C139.694 211.327 141.007 211.448 142.254 211.143L142.3 211.133C143.562 210.858 144.695 210.165 145.517 209.167C146.338 208.17 146.801 206.924 146.83 205.631L148.448 166.12C148.467 165.627 148.587 165.143 148.801 164.698C149.03 164.258 149.343 163.867 149.722 163.546L175.629 142.002C176.481 141.293 177.116 140.36 177.461 139.307C177.807 138.254 177.849 137.125 177.583 136.05C177.317 134.974 176.754 133.995 175.958 133.225C175.162 132.455 174.165 131.925 173.081 131.696V131.696ZM174.131 140.192L148.224 161.737C147.886 162.012 147.581 162.325 147.313 162.669C147.072 162.975 146.864 163.306 146.692 163.656C146.513 164.014 146.372 164.39 146.272 164.778L146.275 164.79C146.169 165.194 146.11 165.609 146.097 166.026L144.48 205.538C144.469 206.315 144.194 207.065 143.701 207.665C143.208 208.264 142.525 208.678 141.766 208.838L141.743 208.843C140.994 209.034 140.204 208.966 139.499 208.651C138.794 208.336 138.216 207.791 137.859 207.106L128.512 190.037C128.03 189.159 127.332 188.419 126.485 187.887C125.637 187.355 124.667 187.048 123.668 186.996L123.657 186.999C123.522 186.993 123.389 186.988 123.257 186.993C122.325 186.999 121.408 187.233 120.587 187.674C120.013 187.977 119.496 188.377 119.057 188.856L74.213 236.748C73.8239 237.163 73.3405 237.478 72.8039 237.665C72.2673 237.853 71.6933 237.908 71.1308 237.827C70.5682 237.745 70.0338 237.528 69.5728 237.195C69.1117 236.862 68.7378 236.423 68.4827 235.915L2.72829 104.244C2.4343 103.649 2.31318 102.984 2.37873 102.323C2.44427 101.663 2.69387 101.034 3.09905 100.509C3.50422 99.9832 4.04868 99.5822 4.67044 99.3514C5.29219 99.1206 5.96623 99.0692 6.61574 99.2031L8.79556 99.661L172.592 134.006C173.243 134.143 173.841 134.461 174.32 134.922C174.798 135.384 175.137 135.971 175.298 136.617C175.458 137.262 175.434 137.94 175.228 138.572C175.022 139.204 174.642 139.766 174.131 140.192L174.131 140.192Z"/><path fill="#3F3D56" d="M147.837 162.9L146.877 165.052L146.275 164.79L146.272 164.779L8.0275 103.026L123.657 186.999L123.668 186.997L123.974 187.229L122.598 189.137L120.587 187.674L6.63944 104.937C6.19137 104.618 5.86863 104.153 5.72703 103.621C5.58542 103.09 5.63384 102.525 5.86395 102.026C6.09406 101.526 6.49137 101.123 6.98718 100.885C7.48298 100.648 8.04611 100.591 8.57915 100.725C8.70974 100.757 8.83698 100.8 8.95903 100.856L147.313 162.669L147.837 162.9Z"/><path fill="#FFB8B8" d="M503.566 327.516L509.545 386.029L509.663 387.231L511.44 404.583L526.035 547.454V547.478L528.872 575.197C527.764 576.686 526.784 578.267 525.941 579.921C523.37 584.999 522.113 590.643 522.286 596.333C522.458 602.024 524.055 607.58 526.93 612.493C534.05 610.703 541.073 608.661 547.998 606.368C562.323 601.652 576.294 595.92 589.805 589.216C588.399 581.477 584.361 574.463 578.376 569.366L563.722 393.144L562.439 377.688L558.261 327.516H503.566Z"/><path fill="#FFB8B8" d="M545.474 168.149C575.695 137.901 575.695 88.8612 545.474 58.6141C515.254 28.3671 466.257 28.3671 436.036 58.6142C405.816 88.8613 405.816 137.901 436.036 168.149C466.257 198.396 515.254 198.396 545.474 168.149Z"/><path fill="#00ADB5" d="M346.519 433.056C346.531 433.209 346.543 433.362 346.555 433.503C346.812 436.525 348.028 439.385 350.025 441.665C352.022 443.946 354.695 445.527 357.654 446.179L473.14 471.424C474.142 471.643 475.164 471.754 476.189 471.754C479.287 471.753 482.299 470.734 484.763 468.856C487.227 466.977 489.007 464.341 489.831 461.352C490.078 460.433 490.348 459.491 490.643 458.513V458.501C494.538 445.26 501.495 427.236 511.44 404.583C513.688 399.458 516.093 394.09 518.655 388.479C519.126 387.442 519.608 386.394 520.08 385.345C525.364 373.86 531.261 361.427 537.77 348.049C540.954 341.509 543.36 334.618 544.937 327.516C549.13 308.768 547.475 289.183 540.194 271.406C538.712 267.787 537.001 264.266 535.074 260.863C527.473 247.451 516.703 236.109 503.706 227.83C490.709 219.552 475.882 214.589 460.523 213.377C458.087 213.176 455.663 213.082 453.226 213.082C428.857 213.189 405.466 222.691 387.915 239.611C377.557 249.662 369.693 261.999 364.951 275.635C364.645 276.495 364.363 277.367 364.08 278.239C359.732 292.036 356.241 306.089 353.628 320.318C352.063 328.765 350.792 337.093 349.768 345.21C346.179 374.345 345.092 403.735 346.519 433.056Z"/><path fill="#2F2E41" d="M295.661 581.064C365.823 620.978 448.674 632.237 526.93 612.493C534.05 610.703 541.073 608.661 547.998 606.368C541.854 586.318 534.52 566.653 526.035 547.478V547.454C511.887 515.706 498.894 496.281 492.561 487.705C491.52 486.284 490.835 484.635 490.563 482.895C490.29 481.154 490.439 479.374 490.996 477.703L492.962 471.801C493.71 469.568 493.889 467.183 493.484 464.863C493.08 462.543 492.103 460.36 490.643 458.513V458.501C490.513 458.336 490.372 458.171 490.231 458.006C438.784 399.341 349.097 431.348 348.191 431.678L347.743 431.842L347.461 432.231C347.155 432.655 346.849 433.068 346.555 433.503C322.238 467.607 306.078 520.03 295.661 581.064Z"/><path fill="#FFB8B8" d="M189.913 203.351C190.3 205.052 190.552 206.782 190.667 208.523L326.014 286.672L358.911 267.717L393.982 313.67L339.001 352.892C334.56 356.06 329.211 357.701 323.758 357.568C318.305 357.435 313.043 355.536 308.76 352.154L169.195 241.954C162.897 244.287 156.038 244.646 149.53 242.983C143.023 241.319 137.176 237.713 132.766 232.642C128.357 227.572 125.595 221.278 124.846 214.597C124.098 207.917 125.4 201.167 128.578 195.245C131.756 189.323 136.661 184.51 142.639 181.446C148.617 178.382 155.385 177.213 162.043 178.092C168.702 178.972 174.935 181.86 179.913 186.372C184.892 190.884 188.38 196.806 189.913 203.351Z"/><path fill="#00ADB5" d="M328.088 285.472V285.484C328.578 287.258 329.41 288.918 330.536 290.373L353.628 320.318L364.633 334.608L374.285 347.119C375.529 348.733 377.106 350.06 378.909 351.009C380.712 351.959 382.698 352.508 384.732 352.62C386.766 352.732 388.8 352.403 390.696 351.657C392.592 350.911 394.305 349.765 395.718 348.297L430.769 311.872L445.234 296.828C453.453 290.41 458.793 280.991 460.084 270.637C461.375 260.283 458.51 249.839 452.119 241.596C445.728 233.353 436.331 227.983 425.99 226.663C415.649 225.344 405.207 228.183 396.954 234.558L387.915 239.611L334.844 269.321C332.079 270.873 329.912 273.306 328.687 276.233C327.463 279.159 327.252 282.412 328.088 285.472H328.088Z"/><path fill="#00ADB5" d="M481.168 304.25L483.381 374.991L483.392 375.438C483.455 377.477 483.956 379.479 484.862 381.306C485.768 383.134 487.057 384.744 488.641 386.028C490.225 387.312 492.067 388.238 494.042 388.745C496.016 389.251 498.076 389.325 500.082 388.962L509.663 387.23L512.111 386.783H512.123L520.08 385.345L562.439 377.688L570.549 376.227C572.553 375.863 574.455 375.071 576.126 373.905C577.797 372.739 579.197 371.227 580.233 369.471C581.268 367.715 581.913 365.757 582.125 363.73C582.337 361.702 582.11 359.653 581.46 357.721L558.614 290.019C556.704 279.764 550.809 270.685 542.221 264.774C533.633 258.862 523.053 256.6 512.802 258.484C502.55 260.368 493.463 266.243 487.533 274.822C481.603 283.401 479.314 293.984 481.168 304.25Z"/><path fill="#2F2E41" d="M478.507 95.5665C458.618 109.191 432.502 123.196 412.188 108.687C398.85 99.1604 394.647 81.5188 400.056 66.0371C409.783 38.1965 436.508 25.9397 462.064 16.5447C495.286 4.3311 531.46 -5.38533 565.757 3.36141C600.054 12.1082 630.364 45.3433 624.173 80.2207C619.194 108.268 592.76 131.606 596.513 159.845C600.289 188.264 632.222 203.223 660.414 208.303C688.605 213.382 720.152 215.014 740.413 235.281C766.258 261.136 759.804 307.348 735.484 334.646C711.165 361.943 674.465 374.317 638.903 382.728C591.786 393.873 540.825 399.731 496.075 381.234C451.326 362.738 416.502 312.948 429.465 266.26C434.941 246.538 447.84 229.871 460.306 213.645C472.773 197.42 485.396 180.452 490.151 160.545C494.114 143.955 491.181 124.694 480.189 112.25C478.19 110.072 476.932 107.315 476.595 104.377C476.259 101.438 476.861 98.4687 478.316 95.8944L478.507 95.5665Z"/></g><defs><clipPath id="clip0"><rect width="757" height="622" fill="#fff"/></clipPath></defs></svg>