<svg xmlns="http://www.w3.org/2000/svg" width="371" height="286" fill="none" viewBox="0 0 371 286"><path fill="#fff" d="M316.936 62.1143H316.875L282.134 76.9194L234.6 97.1762C234.414 97.2541 234.215 97.2948 234.013 97.2958C233.812 97.2969 233.612 97.2582 233.425 97.1822L184.384 76.8771L148.789 62.1384L148.734 62.1143H148.674C148.112 62.1149 147.574 62.3378 147.177 62.7342C146.779 63.1305 146.556 63.6679 146.555 64.2284V156.043C146.556 156.604 146.779 157.141 147.177 157.538C147.574 157.934 148.112 158.157 148.674 158.158H316.936C317.498 158.157 318.036 157.934 318.433 157.538C318.83 157.141 319.054 156.604 319.054 156.043V64.2284C319.054 63.6679 318.83 63.1305 318.433 62.7342C318.036 62.3378 317.498 62.1149 316.936 62.1143Z"/><path fill="#3F3D56" d="M317.087 62.7184C317.025 62.7185 316.965 62.6996 316.914 62.6643L233.219 4.49358C232.965 4.31737 232.662 4.22321 232.352 4.22373C232.042 4.22426 231.74 4.31945 231.486 4.49652L148.394 62.6637C148.328 62.7094 148.247 62.7272 148.168 62.7132C148.089 62.6993 148.019 62.6547 147.973 62.5892C147.927 62.5238 147.909 62.4428 147.923 62.3641C147.936 62.2854 147.981 62.2152 148.046 62.1691L231.138 4.00192C231.494 3.75407 231.917 3.62083 232.351 3.62012C232.785 3.61941 233.209 3.75126 233.565 3.99794L317.26 62.1685C317.313 62.2053 317.353 62.2579 317.374 62.3188C317.395 62.3797 317.395 62.4456 317.376 62.5069C317.357 62.5683 317.318 62.6219 317.266 62.6599C317.214 62.698 317.152 62.7185 317.087 62.7184H317.087Z"/><path fill="#E6E6E6" d="M153.142 64.7806L232.434 6.13281L312.329 68.9535L236.52 113.804L195.362 104.441L153.142 64.7806Z"/><path fill="#AAD8D3" d="M198.836 141.506H159.664C159.178 141.507 158.713 141.315 158.369 140.973C158.025 140.631 157.832 140.167 157.831 139.682C157.83 139.198 158.022 138.733 158.365 138.39C158.708 138.047 159.173 137.854 159.658 137.853H198.836C199.322 137.852 199.788 138.044 200.131 138.386C200.475 138.728 200.669 139.192 200.669 139.677C200.67 140.161 200.478 140.626 200.135 140.969C199.792 141.312 199.327 141.505 198.842 141.506H198.836Z"/><path fill="#AAD8D3" d="M173.718 133.653H159.664C159.179 133.653 158.713 133.461 158.37 133.119C158.026 132.777 157.833 132.313 157.832 131.829C157.832 131.345 158.024 130.88 158.366 130.537C158.708 130.194 159.173 130.001 159.658 130H173.718C173.959 129.999 174.197 130.046 174.419 130.138C174.641 130.229 174.843 130.363 175.014 130.533C175.184 130.702 175.319 130.903 175.412 131.125C175.504 131.346 175.552 131.584 175.552 131.824C175.553 132.064 175.506 132.301 175.414 132.523C175.322 132.745 175.187 132.947 175.018 133.116C174.848 133.286 174.646 133.421 174.424 133.513C174.202 133.605 173.964 133.653 173.724 133.653H173.718Z"/><path fill="#fff" d="M233.549 97.4465C233.252 97.4468 232.957 97.3891 232.681 97.2767L183.779 77.0264V13.6395C183.78 13.079 184.003 12.5417 184.4 12.1453C184.797 11.749 185.336 11.526 185.897 11.5254H279.713C280.274 11.526 280.813 11.749 281.21 12.1453C281.607 12.5417 281.83 13.079 281.831 13.6395V77.0706L281.739 77.1099L234.444 97.2668C234.161 97.3856 233.857 97.4467 233.549 97.4465Z"/><path fill="#3F3D56" d="M233.549 97.597C233.232 97.5973 232.917 97.5359 232.624 97.4162L183.628 77.1269V13.6392C183.628 13.0386 183.868 12.4629 184.293 12.0382C184.719 11.6136 185.296 11.3747 185.897 11.374H279.713C280.314 11.3747 280.891 11.6136 281.317 12.0382C281.742 12.4629 281.982 13.0386 281.982 13.6392V77.17L234.503 97.4053C234.201 97.5321 233.877 97.5973 233.549 97.597ZM184.233 76.7234L232.854 96.8577C233.308 97.0413 233.816 97.0383 234.267 96.8493L281.377 76.7712V13.6392C281.377 13.1988 281.201 12.7766 280.889 12.4652C280.577 12.1538 280.154 11.9786 279.713 11.9781H185.897C185.456 11.9786 185.033 12.1538 184.721 12.4652C184.409 12.7766 184.233 13.1988 184.233 13.6392L184.233 76.7234Z"/><path fill="#3F3D56" d="M316.482 62.1143H316.421L281.68 76.9194L234.146 97.1762C233.96 97.2541 233.761 97.2948 233.559 97.2958C233.358 97.2969 233.158 97.2582 232.971 97.1822L183.93 76.8771L148.335 62.1384L148.28 62.1143H148.22C147.658 62.1149 147.12 62.3378 146.723 62.7342C146.325 63.1305 146.102 63.6679 146.101 64.2284V156.043C146.102 156.604 146.325 157.141 146.723 157.538C147.12 157.934 147.658 158.157 148.22 158.158H316.482C317.044 158.157 317.582 157.934 317.979 157.538C318.376 157.141 318.6 156.604 318.6 156.043V64.2284C318.6 63.6679 318.376 63.1305 317.979 62.7342C317.582 62.3378 317.044 62.1149 316.482 62.1143ZM317.995 156.043C317.995 156.444 317.836 156.828 317.552 157.111C317.268 157.394 316.883 157.553 316.482 157.554H148.22C147.819 157.553 147.434 157.394 147.15 157.111C146.866 156.828 146.707 156.444 146.707 156.043V64.2284C146.707 63.8379 146.859 63.4627 147.13 63.1813C147.402 62.8998 147.771 62.734 148.162 62.7183L183.93 77.5295L232.738 97.7409C233.267 97.9555 233.859 97.9522 234.385 97.7319L281.68 77.5748L316.543 62.7183C316.933 62.7351 317.302 62.9015 317.572 63.1827C317.843 63.464 317.994 63.8385 317.995 64.2284V156.043Z"/><path fill="#AAD8D3" d="M225.936 35.2191H192.647C192.005 35.2182 191.391 34.9632 190.937 34.5102C190.484 34.0572 190.229 33.4431 190.229 32.8029C190.229 32.1627 190.484 31.5486 190.937 31.0956C191.391 30.6426 192.005 30.3876 192.647 30.3867H225.936C226.578 30.3876 227.193 30.6426 227.646 31.0956C228.099 31.5486 228.354 32.1627 228.354 32.8029C228.354 33.4431 228.099 34.0572 227.646 34.5102C227.193 34.9632 226.578 35.2182 225.936 35.2191Z"/><path fill="#AAD8D3" d="M208.686 24.9505H192.647C192.005 24.9505 191.389 24.696 190.935 24.2428C190.481 23.7897 190.226 23.1752 190.226 22.5343C190.226 21.8935 190.481 21.279 190.935 20.8258C191.389 20.3727 192.005 20.1182 192.647 20.1182H208.686C209.328 20.1182 209.944 20.3727 210.398 20.8258C210.852 21.279 211.107 21.8935 211.107 22.5343C211.107 23.1752 210.852 23.7897 210.398 24.2428C209.944 24.696 209.328 24.9505 208.686 24.9505Z"/><path fill="#CCC" d="M257.703 59.3812H206.861C206.219 59.3803 205.605 59.1253 205.151 58.6723C204.698 58.2193 204.443 57.6052 204.443 56.965C204.443 56.3248 204.698 55.7108 205.151 55.2577C205.605 54.8047 206.219 54.5497 206.861 54.5488H257.703C258.344 54.5497 258.959 54.8047 259.412 55.2577C259.866 55.7108 260.12 56.3248 260.12 56.965C260.12 57.6052 259.866 58.2193 259.412 58.6723C258.959 59.1253 258.344 59.3803 257.703 59.3812Z"/><path fill="#CCC" d="M257.703 70.556H206.861C206.219 70.556 205.603 70.3015 205.149 69.8483C204.695 69.3952 204.44 68.7806 204.44 68.1398C204.44 67.499 204.695 66.8844 205.149 66.4313C205.603 65.9782 206.219 65.7236 206.861 65.7236H257.703C258.345 65.7236 258.961 65.9782 259.415 66.4313C259.869 66.8844 260.124 67.499 260.124 68.1398C260.124 68.7806 259.869 69.3952 259.415 69.8483C258.961 70.3015 258.345 70.556 257.703 70.556Z"/><path fill="#AAD8D3" d="M315.544 85.9642C328.258 85.9642 338.565 75.6781 338.565 62.9894C338.565 50.3008 328.258 40.0146 315.544 40.0146C302.83 40.0146 292.523 50.3008 292.523 62.9894C292.523 75.6781 302.83 85.9642 315.544 85.9642Z"/><path fill="#fff" d="M313.35 72.6885L306.46 63.8465L310.467 60.7363L313.729 64.9228L324.75 53.3115L328.436 56.7962L313.35 72.6885Z"/><path fill="#9F616A" d="M58.7873 189.561C58.3857 188.972 58.1186 188.301 58.0048 187.597C57.891 186.893 57.9332 186.173 58.1284 185.487C58.3237 184.802 58.6672 184.167 59.1349 183.628C59.6025 183.089 60.1829 182.659 60.8351 182.368L59.338 165.101L67.2719 169.393L67.4773 185.131C67.8944 186.257 67.8832 187.497 67.4457 188.615C67.0083 189.733 66.1751 190.652 65.1039 191.198C64.0328 191.744 62.7981 191.879 61.6339 191.578C60.4697 191.276 59.4569 190.559 58.7873 189.561H58.7873Z"/><path fill="#E5E5E5" d="M60.2906 178.638L60.2261 178.475L51.473 156.407L50.0842 114.575L50.3174 114.558C52.0267 114.436 53.7431 114.656 55.3659 115.206C56.9886 115.755 58.485 116.623 59.7671 117.757C61.0493 118.892 62.0913 120.271 62.832 121.813C63.5726 123.355 63.9971 125.03 64.0803 126.738L65.364 149.229L69.0032 178.155L60.2906 178.638Z"/><path fill="#9F616A" d="M4.37579 270.872L9.4075 274.056L24.1066 256.201L16.68 251.502L4.37579 270.872Z"/><path fill="#2F2E41" d="M4.13369 268.42L14.0433 274.69L14.0437 274.69C15.7185 275.75 16.9028 277.431 17.3363 279.362C17.7697 281.293 17.4167 283.317 16.355 284.988L16.2249 285.193L0 274.928L4.13369 268.42Z"/><path fill="#9F616A" d="M51.9481 279.429L57.9061 279.429L60.7402 256.495L51.9471 256.495L51.9481 279.429Z"/><path fill="#2F2E41" d="M50.4285 277.488L62.1617 277.487H62.1621C64.1452 277.487 66.047 278.274 67.4492 279.673C68.8515 281.072 69.6393 282.97 69.6395 284.95V285.192L50.4288 285.193L50.4285 277.488Z"/><path fill="#2F2E41" d="M35.0905 183.336L49.1167 267.532C49.1167 267.532 46.3574 274.416 50.4963 275.334C54.6351 276.252 63.8326 274.416 63.8326 274.416C63.8326 274.416 66.5919 267.532 62.453 266.614L54.6351 178.642L35.0905 183.336Z"/><path fill="#2F2E41" d="M43.3682 184.838L33.6511 224.207L8.87772 260.106C8.87772 260.106 -0.319756 261.024 4.73885 266.072C9.79746 271.121 12.0968 271.58 12.0968 271.58C12.0968 271.58 19.9147 270.662 19.4548 266.99L49.912 231.212L64.0625 183.461L43.3682 184.838Z"/><path fill="#E5E5E5" d="M34.8884 188.304L32.5418 174.939C29.0078 171.253 35.6851 162.139 36.4296 161.149L35.9928 155.482C35.6205 155.418 35.2799 155.233 35.0244 154.956C32.8322 152.725 32.9795 143.922 32.9868 143.548L30.5676 118.433L36.5866 114.928L51.8081 114.438L59.2416 120.868L66.4012 186.513L66.1459 186.527L34.8884 188.304Z"/><path fill="#9F616A" d="M40.1563 192.993C39.5428 192.627 39.0171 192.132 38.6161 191.542C38.2151 190.952 37.9486 190.281 37.8354 189.577C37.7223 188.873 37.7651 188.153 37.961 187.468C38.1568 186.782 38.501 186.147 38.9691 185.609L30.3065 170.588L39.3142 171.135L46.1593 185.315C47.0138 186.16 47.528 187.288 47.6046 188.486C47.6812 189.684 47.3148 190.868 46.5749 191.815C45.8349 192.761 44.7728 193.404 43.5899 193.621C42.4069 193.838 41.1852 193.614 40.1564 192.993H40.1563Z"/><path fill="#E5E5E5" d="M32.485 178.946L25.0125 161.659L23.7636 126.346C23.7209 125.186 23.9976 124.036 24.5637 123.022C25.1297 122.008 25.9635 121.168 26.9744 120.593L35.5948 115.336L37.4547 152.459L43.0174 174.646L32.485 178.946Z"/><path fill="#9F616A" d="M45.896 111.09C51.8029 111.09 56.5914 106.311 56.5914 100.416C56.5914 94.5206 51.8029 89.7417 45.896 89.7417C39.9892 89.7417 35.2007 94.5206 35.2007 100.416C35.2007 106.311 39.9892 111.09 45.896 111.09Z"/><path fill="#2F2E41" d="M49.7633 84.655C38.9919 81.5551 35.9345 90.4648 35.9345 90.4648C30.7425 93.9024 33.9931 98.2124 33.9931 98.2124C32.683 98.5028 35.3025 106.154 36.1759 105.96C36.642 105.857 37.8404 107.285 38.8568 108.639C39.2054 108.638 39.5531 108.672 39.8952 108.738L37.9231 101.457C37.9231 101.457 44.5705 100.441 46.6086 97.2449C48.5585 94.1874 54.9775 93.2221 56.8043 95.2644C56.9123 94.6772 57.1335 94.1165 57.4557 93.6135C57.7052 93.2314 58.0313 92.9051 58.4136 92.6551C56.7984 85.8051 49.7633 84.655 49.7633 84.655Z"/><path fill="#000" d="M37.6277 138.934L37.0309 160.182L44.438 175.763L37.6277 138.369" opacity=".2"/><path fill="#F1F1F1" d="M101.467 22.9298C101.31 22.8371 101.13 22.7905 100.947 22.7953C100.765 22.8 100.587 22.856 100.435 22.9568C100.283 23.0576 100.163 23.1991 100.087 23.3651C100.012 23.5311 99.9855 23.7149 100.01 23.8954L100.76 29.3871C100.771 29.4681 100.765 29.5503 100.744 29.6292C100.721 29.7068 100.681 29.7788 100.629 29.8407L96.4267 34.8088C96.2864 34.9687 96.2039 35.171 96.1927 35.3833C96.1815 35.5956 96.2422 35.8055 96.3649 35.9793L96.3693 35.9857C96.4869 36.1613 96.66 36.2926 96.861 36.3587C97.0621 36.4248 97.2795 36.4219 97.4786 36.3504L100.513 35.3224C100.614 35.2892 100.722 35.2839 100.825 35.3071C100.928 35.3304 101.023 35.3812 101.1 35.4542C101.157 35.5071 101.203 35.5712 101.234 35.6425C101.265 35.7138 101.281 35.7908 101.281 35.8686L101.4 46.6591C101.401 46.8153 101.44 46.9689 101.514 47.1065C101.588 47.2442 101.695 47.3618 101.825 47.4491C101.954 47.5363 102.102 47.5912 102.257 47.6092C102.412 47.6273 102.569 47.6079 102.715 47.5527L125.365 38.9079C125.535 38.843 125.684 38.7314 125.794 38.5858C125.904 38.4402 125.971 38.2666 125.987 38.0849C126.002 37.9032 125.966 37.7208 125.882 37.5587C125.799 37.3966 125.671 37.2613 125.514 37.1685L125.205 36.9857L101.467 22.9298V22.9298ZM100.394 23.8426C100.379 23.7342 100.395 23.6239 100.441 23.5244C100.486 23.4248 100.558 23.34 100.65 23.2796C100.741 23.2193 100.848 23.1858 100.957 23.1831C101.067 23.1803 101.175 23.2085 101.269 23.2642L125 37.3159L125.316 37.5028C125.41 37.5588 125.486 37.6399 125.536 37.7371C125.586 37.8342 125.607 37.9433 125.598 38.052C125.589 38.1608 125.549 38.2647 125.483 38.3521C125.418 38.4394 125.329 38.5066 125.227 38.546L102.578 47.1908C102.49 47.224 102.396 47.2357 102.302 47.2248C102.209 47.2138 102.12 47.1806 102.043 47.128C101.965 47.0754 101.902 47.0048 101.857 46.9224C101.813 46.84 101.789 46.7481 101.788 46.6546L101.67 35.8641C101.67 35.7573 101.651 35.6513 101.615 35.5508L124.675 38.195C124.765 38.2062 124.856 38.1857 124.932 38.137C125.008 38.0883 125.065 38.0146 125.093 37.9284C125.121 37.8423 125.117 37.7493 125.083 37.6653C125.05 37.5814 124.987 37.512 124.908 37.469C124.888 37.4582 124.868 37.4494 124.847 37.4426L101.151 29.5486C101.157 29.4772 101.154 29.4053 101.144 29.3344L100.394 23.8426L100.394 23.8426Z"/><path fill="#E5E5E5" d="M101.467 22.9298C101.31 22.8371 101.13 22.7905 100.947 22.7953C100.765 22.8 100.587 22.856 100.435 22.9568C100.283 23.0576 100.163 23.1991 100.087 23.3651C100.012 23.5311 99.9855 23.7149 100.01 23.8954L100.76 29.3871C100.771 29.4681 100.765 29.5503 100.744 29.6292C100.721 29.7068 100.681 29.7788 100.629 29.8407L96.4267 34.8088C96.2864 34.9687 96.2039 35.171 96.1927 35.3833C96.1815 35.5956 96.2422 35.8055 96.3649 35.9793L96.3693 35.9857C96.4869 36.1613 96.66 36.2926 96.861 36.3587C97.0621 36.4248 97.2795 36.4219 97.4786 36.3504L100.513 35.3224C100.614 35.2892 100.722 35.2839 100.825 35.3071C100.928 35.3304 101.023 35.3812 101.1 35.4542C101.157 35.5071 101.203 35.5712 101.234 35.6425C101.265 35.7138 101.281 35.7908 101.281 35.8686L101.4 46.6591C101.401 46.8153 101.44 46.9689 101.514 47.1065C101.588 47.2442 101.695 47.3618 101.825 47.4491C101.954 47.5363 102.102 47.5912 102.257 47.6092C102.412 47.6273 102.569 47.6079 102.715 47.5527L125.365 38.9079C125.535 38.843 125.684 38.7314 125.794 38.5858C125.904 38.4402 125.971 38.2666 125.987 38.0849C126.002 37.9032 125.966 37.7208 125.882 37.5587C125.799 37.3966 125.671 37.2613 125.514 37.1685L125.205 36.9857L101.467 22.9298V22.9298ZM100.394 23.8426C100.379 23.7342 100.395 23.6239 100.441 23.5244C100.486 23.4248 100.558 23.34 100.65 23.2796C100.741 23.2193 100.848 23.1858 100.957 23.1831C101.067 23.1803 101.175 23.2085 101.269 23.2642L125 37.3159L125.316 37.5028C125.41 37.5588 125.486 37.6399 125.536 37.7371C125.586 37.8342 125.607 37.9433 125.598 38.052C125.589 38.1608 125.549 38.2647 125.483 38.3521C125.418 38.4394 125.329 38.5066 125.227 38.546L102.578 47.1908C102.49 47.224 102.396 47.2357 102.302 47.2247C102.209 47.2138 102.12 47.1806 102.043 47.128C101.965 47.0753 101.902 47.0048 101.857 46.9224C101.813 46.84 101.789 46.7481 101.788 46.6546L101.67 35.8641C101.67 35.7573 101.651 35.6513 101.615 35.5508C101.565 35.406 101.479 35.2758 101.367 35.1714C101.351 35.1561 101.334 35.1419 101.317 35.1276L101.316 35.1261C101.189 35.0212 101.037 34.9506 100.875 34.9208C100.713 34.8911 100.545 34.9032 100.389 34.956L97.3529 35.9851C97.2332 36.0284 97.1024 36.0301 96.9816 35.99C96.8608 35.9498 96.7572 35.8701 96.6875 35.7638L96.6853 35.7606C96.6108 35.6567 96.5739 35.5307 96.5807 35.4031C96.5875 35.2756 96.6376 35.1542 96.7228 35.0588L100.925 30.0908C100.97 30.0388 101.009 29.9819 101.041 29.9212L101.042 29.9201C101.074 29.8619 101.098 29.8007 101.116 29.7373C101.135 29.6758 101.146 29.6126 101.151 29.5486C101.157 29.4772 101.154 29.4053 101.144 29.3344L100.394 23.8426V23.8426Z"/><path fill="#E5E5E5" d="M101.151 29.5483L124.847 37.4422C124.868 37.449 124.888 37.4579 124.908 37.4686C124.987 37.5116 125.05 37.5811 125.083 37.665C125.117 37.7489 125.121 37.842 125.093 37.9281C125.065 38.0142 125.008 38.088 124.932 38.1367C124.856 38.1853 124.765 38.2058 124.675 38.1946L101.615 35.5504L101.208 35.5042L101.253 35.1198L101.316 35.1257L101.317 35.1273L124.719 37.8087L101.042 29.9197L101.041 29.9208L100.939 29.8855L101.061 29.5181L101.151 29.5483Z"/><path fill="#F1F1F1" d="M365.724 0.134923L341.986 14.1908L341.678 14.3736C341.521 14.4664 341.393 14.6016 341.309 14.7638C341.225 14.9259 341.189 15.1083 341.205 15.29C341.22 15.4717 341.287 15.6453 341.397 15.7909C341.507 15.9365 341.656 16.0481 341.827 16.113L364.476 24.7577C364.622 24.8129 364.779 24.8323 364.934 24.8143C365.089 24.7963 365.238 24.7414 365.367 24.6542C365.497 24.5669 365.603 24.4493 365.677 24.3116C365.751 24.174 365.79 24.0204 365.792 23.8642L365.91 13.0736C365.91 12.9958 365.926 12.9189 365.957 12.8476C365.989 12.7763 366.034 12.7121 366.091 12.6593C366.168 12.5863 366.263 12.5354 366.366 12.5122C366.47 12.489 366.578 12.4943 366.678 12.5275L369.713 13.5555C369.912 13.6269 370.129 13.6299 370.33 13.5638C370.531 13.4977 370.705 13.3664 370.822 13.1907L370.826 13.1844C370.949 13.0106 371.01 12.8007 370.999 12.5884C370.987 12.3761 370.905 12.1737 370.765 12.0138L366.563 7.04574C366.51 6.98387 366.471 6.91188 366.447 6.83425C366.426 6.75538 366.421 6.67318 366.431 6.59221L367.181 1.10047C367.206 0.919964 367.179 0.736178 367.104 0.570171C367.029 0.404164 366.908 0.262661 366.756 0.161876C366.604 0.0610906 366.427 0.00510003 366.244 0.000332152C366.062 -0.00443573 365.882 0.0422098 365.724 0.134916V0.134923ZM366.798 1.04773L366.048 6.53944C366.037 6.61038 366.035 6.68225 366.041 6.7537L342.344 14.6476C342.323 14.6544 342.303 14.6633 342.284 14.674C342.204 14.717 342.142 14.7865 342.108 14.8704C342.074 14.9543 342.071 15.0474 342.099 15.1335C342.126 15.2196 342.183 15.2934 342.259 15.3421C342.336 15.3907 342.427 15.4112 342.517 15.4L365.576 12.7559C365.54 12.8564 365.522 12.9624 365.522 13.0692L365.403 23.8597C365.402 23.9532 365.378 24.0451 365.334 24.1275C365.29 24.2099 365.226 24.2804 365.149 24.3331C365.071 24.3857 364.982 24.4189 364.889 24.4298C364.796 24.4407 364.702 24.4291 364.614 24.3958L341.964 15.7511C341.862 15.7117 341.774 15.6445 341.708 15.5571C341.643 15.4698 341.603 15.3658 341.594 15.2571C341.584 15.1484 341.606 15.0392 341.656 14.9421C341.706 14.845 341.782 14.7638 341.876 14.7078L342.192 14.5209L365.922 0.469252C366.016 0.41352 366.125 0.385412 366.234 0.388143C366.344 0.390874 366.45 0.424336 366.542 0.484696C366.633 0.545057 366.705 0.629874 366.751 0.729443C366.796 0.829011 366.812 0.939308 366.798 1.0477V1.04773Z"/><path fill="#E5E5E5" d="M365.724 0.134923L341.986 14.1908L341.678 14.3736C341.521 14.4664 341.393 14.6016 341.309 14.7638C341.225 14.9259 341.189 15.1083 341.205 15.29C341.22 15.4717 341.287 15.6453 341.397 15.7909C341.507 15.9365 341.656 16.0481 341.827 16.113L364.476 24.7577C364.622 24.8129 364.779 24.8323 364.934 24.8143C365.089 24.7963 365.238 24.7414 365.367 24.6542C365.497 24.5669 365.603 24.4493 365.677 24.3116C365.751 24.174 365.79 24.0204 365.792 23.8642L365.91 13.0736C365.91 12.9958 365.926 12.9189 365.957 12.8476C365.989 12.7763 366.034 12.7121 366.091 12.6593C366.168 12.5863 366.263 12.5354 366.366 12.5122C366.47 12.489 366.578 12.4943 366.678 12.5275L369.713 13.5555C369.912 13.6269 370.129 13.6299 370.33 13.5638C370.531 13.4977 370.705 13.3664 370.822 13.1907L370.826 13.1844C370.949 13.0106 371.01 12.8007 370.999 12.5884C370.987 12.3761 370.905 12.1737 370.765 12.0138L366.563 7.04574C366.51 6.98387 366.471 6.91188 366.447 6.83425C366.426 6.75538 366.421 6.67318 366.431 6.59221L367.181 1.10047C367.206 0.919964 367.179 0.736178 367.104 0.570171C367.029 0.404164 366.908 0.262661 366.756 0.161876C366.604 0.0610906 366.427 0.00510003 366.244 0.000332152C366.062 -0.00443573 365.882 0.0422098 365.724 0.134916V0.134923ZM366.798 1.04773L366.048 6.53946C366.037 6.61039 366.035 6.68226 366.041 6.75371C366.045 6.81764 366.057 6.88089 366.075 6.94237C366.093 7.00574 366.118 7.06701 366.149 7.12514L366.151 7.12624C366.183 7.18695 366.222 7.24385 366.267 7.29589L370.469 12.2639C370.554 12.3592 370.604 12.4807 370.611 12.6082C370.618 12.7358 370.581 12.8618 370.506 12.9656L370.504 12.9688C370.434 13.0752 370.331 13.1549 370.21 13.195C370.089 13.2352 369.958 13.2335 369.839 13.1901L366.802 12.1611C366.646 12.1082 366.479 12.0961 366.317 12.1259C366.154 12.1557 366.002 12.2263 365.875 12.3311L365.874 12.3327C365.857 12.347 365.84 12.3612 365.825 12.3765C365.712 12.4808 365.627 12.6111 365.576 12.7559C365.54 12.8564 365.522 12.9624 365.522 13.0692L365.403 23.8597C365.402 23.9532 365.378 24.0451 365.334 24.1275C365.29 24.2099 365.226 24.2804 365.149 24.333C365.071 24.3857 364.982 24.4189 364.889 24.4298C364.796 24.4407 364.702 24.4291 364.614 24.3958L341.964 15.7511C341.862 15.7117 341.774 15.6445 341.708 15.5571C341.643 15.4698 341.603 15.3658 341.594 15.2571C341.584 15.1484 341.606 15.0392 341.656 14.9421C341.706 14.845 341.782 14.7638 341.876 14.7078L342.192 14.5209L365.922 0.469259C366.016 0.413527 366.125 0.38542 366.234 0.388151C366.344 0.390882 366.45 0.424343 366.542 0.484704C366.633 0.545064 366.705 0.629881 366.751 0.72945C366.796 0.829019 366.812 0.939316 366.798 1.0477V1.04773Z"/><path fill="#E5E5E5" d="M366.13 6.72363L366.253 7.0911L366.151 7.12636L366.149 7.12527L342.473 15.0143L365.874 12.3328L365.875 12.3313L365.938 12.3254L365.983 12.7097L365.576 12.756L342.517 15.4002C342.427 15.4114 342.336 15.3909 342.259 15.3422C342.183 15.2936 342.126 15.2198 342.098 15.1337C342.071 15.0475 342.074 14.9545 342.108 14.8706C342.142 14.7867 342.204 14.7172 342.284 14.6742C342.303 14.6634 342.323 14.6546 342.344 14.6478L366.041 6.75386L366.13 6.72363Z"/><path fill="#F1F1F1" d="M162.597 196.53C162.434 196.613 162.298 196.74 162.205 196.896C162.112 197.053 162.064 197.232 162.068 197.414C162.072 197.597 162.128 197.774 162.228 197.926C162.329 198.078 162.47 198.199 162.636 198.275L167.688 200.577C167.762 200.611 167.829 200.66 167.884 200.72C167.937 200.781 167.977 200.853 168.002 200.93L169.964 207.13C170.024 207.333 170.151 207.511 170.325 207.634C170.499 207.757 170.709 207.818 170.922 207.807L170.93 207.807C171.141 207.802 171.345 207.726 171.508 207.592C171.672 207.457 171.785 207.272 171.831 207.066L172.583 203.957C172.608 203.854 172.661 203.761 172.736 203.686C172.811 203.611 172.905 203.558 173.008 203.532C173.083 203.513 173.162 203.508 173.239 203.52C173.316 203.532 173.39 203.56 173.455 203.601L182.657 209.268C182.79 209.35 182.942 209.399 183.098 209.41C183.254 209.422 183.41 209.395 183.554 209.332C183.697 209.269 183.822 209.174 183.92 209.052C184.018 208.931 184.086 208.788 184.117 208.636L188.9 184.911C188.937 184.732 188.922 184.547 188.857 184.376C188.793 184.205 188.681 184.056 188.536 183.946C188.39 183.836 188.216 183.769 188.034 183.753C187.852 183.737 187.669 183.772 187.507 183.855L187.187 184.018L162.597 196.53ZM162.796 197.923C162.697 197.877 162.612 197.805 162.552 197.713C162.492 197.622 162.459 197.515 162.456 197.406C162.454 197.297 162.483 197.189 162.539 197.095C162.595 197.001 162.677 196.925 162.774 196.875L187.357 184.367L187.684 184.201C187.782 184.152 187.891 184.131 188 184.141C188.109 184.15 188.213 184.191 188.3 184.256C188.387 184.322 188.454 184.411 188.493 184.513C188.532 184.615 188.541 184.726 188.52 184.833L183.737 208.559C183.719 208.65 183.678 208.736 183.619 208.809C183.56 208.881 183.484 208.939 183.398 208.976C183.312 209.013 183.219 209.029 183.125 209.023C183.032 209.016 182.941 208.987 182.861 208.938L173.659 203.271C173.569 203.214 173.469 203.173 173.365 203.149L187.928 185.112C187.985 185.042 188.017 184.954 188.016 184.864C188.016 184.773 187.984 184.686 187.926 184.616C187.867 184.547 187.787 184.5 187.698 184.484C187.608 184.467 187.516 184.483 187.437 184.527C187.418 184.538 187.4 184.55 187.383 184.564L168.033 200.334C167.976 200.291 167.914 200.254 167.848 200.225L162.796 197.923Z"/><path fill="#E5E5E5" d="M162.597 196.53C162.434 196.613 162.298 196.74 162.205 196.896C162.112 197.053 162.064 197.232 162.068 197.414C162.072 197.597 162.128 197.774 162.228 197.926C162.329 198.078 162.47 198.199 162.636 198.275L167.688 200.577C167.762 200.611 167.829 200.66 167.884 200.72C167.937 200.781 167.977 200.853 168.002 200.93L169.964 207.13C170.024 207.333 170.151 207.511 170.325 207.634C170.499 207.757 170.709 207.818 170.922 207.807L170.93 207.807C171.141 207.802 171.345 207.726 171.508 207.592C171.672 207.457 171.785 207.272 171.831 207.066L172.583 203.957C172.608 203.854 172.661 203.761 172.736 203.686C172.811 203.611 172.905 203.558 173.008 203.532C173.083 203.513 173.162 203.508 173.239 203.52C173.316 203.532 173.39 203.56 173.455 203.601L182.657 209.268C182.79 209.35 182.942 209.399 183.098 209.41C183.254 209.422 183.41 209.395 183.554 209.332C183.697 209.269 183.822 209.174 183.92 209.052C184.018 208.931 184.086 208.788 184.117 208.636L188.9 184.911C188.937 184.732 188.922 184.547 188.857 184.376C188.793 184.205 188.681 184.056 188.536 183.946C188.39 183.836 188.216 183.769 188.034 183.753C187.852 183.737 187.669 183.772 187.507 183.855L187.187 184.018L162.597 196.53ZM162.796 197.923C162.697 197.877 162.612 197.805 162.552 197.713C162.492 197.622 162.459 197.515 162.456 197.406C162.454 197.297 162.483 197.189 162.539 197.095C162.595 197.001 162.677 196.925 162.774 196.875L187.357 184.367L187.684 184.201C187.782 184.152 187.891 184.131 188 184.141C188.109 184.15 188.213 184.191 188.3 184.256C188.387 184.322 188.454 184.411 188.493 184.513C188.532 184.615 188.541 184.726 188.52 184.833L183.737 208.559C183.719 208.65 183.678 208.736 183.619 208.809C183.56 208.881 183.484 208.939 183.398 208.976C183.312 209.013 183.219 209.029 183.125 209.023C183.032 209.016 182.941 208.987 182.861 208.938L173.659 203.271C173.569 203.214 173.469 203.173 173.365 203.149C173.215 203.115 173.059 203.117 172.911 203.157C172.889 203.161 172.868 203.168 172.847 203.175L172.845 203.175C172.689 203.226 172.548 203.316 172.436 203.437C172.324 203.558 172.245 203.706 172.206 203.866L171.455 206.977C171.427 207.101 171.359 207.212 171.26 207.293C171.162 207.373 171.039 207.418 170.912 207.42L170.908 207.42C170.78 207.428 170.654 207.391 170.549 207.317C170.445 207.243 170.369 207.136 170.334 207.014L168.372 200.814C168.352 200.748 168.324 200.685 168.29 200.625L168.29 200.624C168.257 200.566 168.219 200.513 168.175 200.463C168.132 200.415 168.085 200.372 168.033 200.334C167.976 200.291 167.914 200.254 167.848 200.225L162.796 197.923Z"/><path fill="#E5E5E5" d="M168.033 200.333L187.383 184.564C187.4 184.55 187.418 184.537 187.437 184.527C187.516 184.482 187.608 184.467 187.698 184.483C187.787 184.5 187.867 184.547 187.926 184.616C187.984 184.685 188.016 184.773 188.016 184.863C188.017 184.954 187.985 185.041 187.928 185.111L173.365 203.149L173.108 203.468L172.807 203.225L172.845 203.174L172.847 203.174L187.624 184.868L168.29 200.623L168.29 200.625L168.205 200.693L167.96 200.393L168.033 200.333Z"/></svg>