<svg xmlns="http://www.w3.org/2000/svg" width="892" height="769" fill="none" viewBox="0 0 892 769"><path fill="#F2F2F2" d="M418.644 768.139C613.048 768.139 770.644 760.08 770.644 750.139C770.644 740.198 613.048 732.139 418.644 732.139C224.239 732.139 66.6436 740.198 66.6436 750.139C66.6436 760.08 224.239 768.139 418.644 768.139Z"/><path fill="#3F3D56" d="M624.297 195.892H620.298V86.3465C620.298 69.5313 613.619 53.4048 601.728 41.5146C589.838 29.6244 573.712 22.9446 556.897 22.9446H324.81C307.995 22.9445 291.868 29.6243 279.978 41.5145C268.088 53.4046 261.408 69.5311 261.408 86.3463V687.321C261.408 704.136 268.088 720.262 279.978 732.153C291.868 744.043 307.994 750.723 324.81 750.723H556.896C573.712 750.723 589.838 744.043 601.728 732.153C613.618 720.263 620.298 704.136 620.298 687.321V273.868H624.297L624.297 195.892Z"/><path fill="#fff" d="M606.804 86.789V686.879C606.803 699.437 601.815 711.48 592.935 720.36C584.055 729.24 572.012 734.229 559.454 734.229H326.254C313.696 734.229 301.652 729.24 292.772 720.36C283.892 711.48 278.904 699.437 278.904 686.879V86.789C278.904 74.231 283.893 62.1875 292.772 53.3077C301.652 44.4279 313.696 39.4392 326.254 39.439H354.544C353.153 42.8549 352.624 46.5602 353.002 50.2287C353.38 53.8973 354.654 57.4168 356.711 60.4776C358.768 63.5385 361.546 66.0468 364.801 67.7821C368.055 69.5173 371.686 70.4263 375.374 70.429H508.334C512.021 70.4262 515.652 69.5172 518.907 67.782C522.161 66.0467 524.939 63.5384 526.996 60.4776C529.053 57.4168 530.327 53.8973 530.705 50.2287C531.083 46.5602 530.554 42.8549 529.164 39.439H559.454C572.012 39.4392 584.055 44.4279 592.935 53.3077C601.815 62.1875 606.803 74.231 606.804 86.789Z"/><path fill="#00ADB5" d="M531.678 345.545C530.128 346.355 528.551 347.121 526.947 347.845C525.487 348.505 524.004 349.125 522.498 349.705C521.947 349.915 521.388 350.125 520.828 350.335C516.4 351.941 511.853 353.194 507.228 354.085C504.938 354.535 502.618 354.888 500.268 355.145C498.328 355.365 496.368 355.521 494.388 355.615C492.978 355.685 491.567 355.715 490.147 355.715C484.524 355.717 478.913 355.191 473.388 354.145C471.947 353.885 470.538 353.575 469.127 353.235C462.307 351.6 455.704 349.163 449.458 345.975C448.897 345.695 448.337 345.395 447.777 345.105C446.947 344.665 446.138 344.205 445.328 343.725C445.717 343.185 446.138 342.655 446.567 342.135C451.247 336.336 457.095 331.588 463.732 328.201C470.369 324.814 477.646 322.863 485.087 322.476C492.528 322.089 499.968 323.275 506.92 325.956C513.873 328.637 520.182 332.752 525.438 338.035C527.262 339.865 528.953 341.823 530.498 343.895C530.907 344.435 531.297 344.985 531.678 345.545Z"/><path fill="#2F2E41" d="M492.143 301.618C516.394 301.618 536.053 281.959 536.053 257.708C536.053 233.457 516.394 213.798 492.143 213.798C467.893 213.798 448.234 233.457 448.234 257.708C448.234 281.959 467.893 301.618 492.143 301.618Z"/><path fill="#A0616A" d="M503.822 301.68C519.659 293.022 525.48 273.165 516.822 257.328C508.165 241.491 488.308 235.67 472.471 244.328C456.633 252.985 450.813 272.842 459.47 288.679C468.128 304.517 487.985 310.337 503.822 301.68Z"/><path fill="#2F2E41" d="M522.486 252.448C515.018 257.595 506.154 260.334 497.084 260.298C500.32 262.541 504.003 264.057 507.88 264.74C495.821 267.326 483.358 267.396 471.27 264.945C468.583 264.514 465.991 263.624 463.606 262.313C462.418 261.649 461.383 260.743 460.568 259.653C459.753 258.563 459.176 257.314 458.876 255.986C458.073 251.398 461.648 247.229 465.364 244.419C471.053 240.183 477.612 237.265 484.568 235.875C491.523 234.485 498.7 234.659 505.58 236.383C510.073 237.544 514.573 239.506 517.491 243.114C520.409 246.722 521.274 252.284 518.493 255.999L522.486 252.448Z"/><path fill="#3F3D56" d="M490.147 175.715C470.52 175.712 451.429 182.127 435.785 193.981C420.142 205.836 408.803 222.48 403.497 241.377C398.192 260.274 399.21 280.388 406.397 298.653C413.585 316.917 426.547 332.331 443.308 342.545L443.888 342.885C444.368 343.175 444.848 343.455 445.328 343.725C446.138 344.205 446.947 344.665 447.777 345.105C448.337 345.395 448.897 345.695 449.458 345.975C455.704 349.163 462.307 351.6 469.127 353.235C470.538 353.575 471.947 353.885 473.388 354.145C478.913 355.192 484.524 355.717 490.147 355.715C491.567 355.715 492.978 355.685 494.388 355.615C496.368 355.525 498.328 355.368 500.268 355.145C502.618 354.885 504.938 354.532 507.228 354.085C511.853 353.195 516.4 351.941 520.828 350.335C521.388 350.125 521.947 349.915 522.498 349.705C524.007 349.125 525.491 348.505 526.947 347.845C528.547 347.125 530.124 346.358 531.678 345.545C547.245 337.392 560.112 324.897 568.717 309.575C568.757 309.495 568.808 309.415 568.848 309.335C573.439 301.096 576.696 292.182 578.498 282.925C581.027 269.892 580.644 256.462 577.375 243.594C574.107 230.727 568.034 218.742 559.591 208.497C551.148 198.252 540.544 190 528.539 184.333C516.533 178.665 503.423 175.722 490.148 175.715H490.147ZM567.208 308.165C567.127 308.305 567.058 308.445 566.978 308.575C558.544 323.671 545.858 335.953 530.497 343.895C528.967 344.695 527.411 345.445 525.828 346.145C524.518 346.735 523.178 347.295 521.828 347.815C521.257 348.035 520.678 348.255 520.098 348.455C516.272 349.852 512.352 350.975 508.368 351.815C505.412 352.444 502.424 352.915 499.417 353.225C497.567 353.425 495.687 353.565 493.797 353.635C492.587 353.685 491.368 353.715 490.147 353.715C484.705 353.721 479.275 353.216 473.928 352.205C470.675 351.605 467.459 350.817 464.297 349.845C459.481 348.357 454.801 346.46 450.308 344.175C449.788 343.905 449.268 343.635 448.757 343.355C448.027 342.965 447.288 342.565 446.567 342.135C446.027 341.835 445.487 341.515 444.957 341.195C444.647 341.015 444.337 340.825 444.027 340.635C429.332 331.61 417.609 318.47 410.314 302.843C403.019 287.217 400.472 269.793 402.99 252.732C405.507 235.672 412.978 219.726 424.475 206.872C435.973 194.019 450.991 184.824 467.667 180.429C484.343 176.033 501.942 176.63 518.281 182.145C534.621 187.661 548.981 197.852 559.582 211.455C570.182 225.058 576.555 241.473 577.911 258.665C579.266 275.857 575.545 293.069 567.207 308.165H567.208Z"/><path fill="#2F2E41" d="M469.907 214.404C469.435 209.436 463.348 206.378 458.589 207.878C453.83 209.379 450.705 214.171 449.76 219.071C449.306 221.135 449.263 223.268 449.635 225.348C450.006 227.429 450.785 229.415 451.926 231.194C454.331 234.656 458.752 236.817 462.876 235.938C467.583 234.934 470.844 230.338 471.777 225.617C472.71 220.895 471.784 216.027 470.858 211.304L469.907 214.404Z"/><path fill="#2F2E41" d="M536.889 221.501C536.417 216.533 530.331 213.475 525.571 214.975C520.812 216.476 517.687 221.268 516.743 226.169C516.288 228.232 516.246 230.365 516.617 232.446C516.989 234.526 517.767 236.512 518.908 238.291C521.314 241.753 525.735 243.914 529.858 243.035C534.565 242.032 537.826 237.435 538.759 232.714C539.692 227.992 538.766 223.125 537.841 218.402L536.889 221.501Z"/><path fill="#fff" d="M334.584 301.683C333.961 301.683 333.345 301.552 332.776 301.3C332.207 301.048 331.696 300.679 331.277 300.219L281.655 246.085C281.092 245.473 280.408 244.983 279.646 244.648C278.884 244.313 278.061 244.139 277.229 244.138H15.0093C11.0299 244.134 7.21487 242.551 4.40105 239.737C1.58723 236.923 0.00446778 233.108 0 229.129V134.566C0.00446514 130.587 1.58723 126.772 4.40105 123.958C7.21487 121.144 11.0299 119.562 15.0093 119.557H354.734C358.714 119.562 362.529 121.144 365.343 123.958C368.157 126.772 369.739 130.587 369.744 134.566V229.129C369.739 233.108 368.157 236.923 365.343 239.737C362.529 242.551 358.714 244.134 354.734 244.138H345.103C343.511 244.14 341.985 244.773 340.859 245.899C339.733 247.025 339.1 248.551 339.099 250.143V297.176C339.102 298.084 338.83 298.972 338.317 299.721C337.805 300.471 337.076 301.047 336.228 301.372C335.704 301.577 335.147 301.683 334.584 301.683Z"/><path fill="#3F3D56" d="M334.584 301.683C333.961 301.683 333.345 301.552 332.776 301.3C332.207 301.048 331.696 300.679 331.277 300.219L281.655 246.085C281.092 245.473 280.408 244.983 279.646 244.648C278.884 244.313 278.061 244.139 277.229 244.138H15.0093C11.0299 244.134 7.21487 242.551 4.40105 239.737C1.58723 236.923 0.00446778 233.108 0 229.129V134.566C0.00446514 130.587 1.58723 126.772 4.40105 123.958C7.21487 121.144 11.0299 119.562 15.0093 119.557H354.734C358.714 119.562 362.529 121.144 365.343 123.958C368.157 126.772 369.739 130.587 369.744 134.566V229.129C369.739 233.108 368.157 236.923 365.343 239.737C362.529 242.551 358.714 244.134 354.734 244.138H345.103C343.511 244.14 341.985 244.773 340.859 245.899C339.733 247.025 339.1 248.551 339.099 250.143V297.176C339.102 298.084 338.83 298.972 338.317 299.721C337.805 300.471 337.076 301.047 336.228 301.372C335.704 301.577 335.147 301.683 334.584 301.683ZM15.0093 121.557C11.5602 121.561 8.25349 122.933 5.81462 125.372C3.37575 127.811 2.00389 131.117 2 134.566V229.129C2.0039 232.578 3.37577 235.885 5.81464 238.324C8.25351 240.762 11.5602 242.134 15.0093 242.138H277.229C278.338 242.139 279.436 242.371 280.451 242.818C281.467 243.264 282.379 243.917 283.129 244.734L332.751 298.867C333.092 299.239 333.537 299.499 334.028 299.613C334.519 299.728 335.033 299.691 335.503 299.508C335.973 299.326 336.377 299.005 336.661 298.589C336.946 298.173 337.098 297.68 337.099 297.176V250.143C337.101 248.021 337.945 245.986 339.446 244.485C340.946 242.985 342.981 242.141 345.103 242.138H354.734C358.184 242.134 361.49 240.762 363.929 238.324C366.368 235.885 367.74 232.578 367.744 229.129V134.566C367.74 131.117 366.368 127.811 363.929 125.372C361.49 122.933 358.184 121.561 354.734 121.557H15.0093Z"/><path fill="#00ADB5" d="M36.816 161.272C44.0696 161.272 49.9497 155.392 49.9497 148.138C49.9497 140.885 44.0696 135.004 36.816 135.004C29.5625 135.004 23.6823 140.885 23.6823 148.138C23.6823 155.392 29.5625 161.272 36.816 161.272Z"/><path fill="#E6E6E6" d="M339.412 220.811H30.332C29.4114 220.812 28.4997 220.632 27.6489 220.28C26.7981 219.929 26.0249 219.413 25.3736 218.762C24.7222 218.112 24.2055 217.339 23.853 216.489C23.5004 215.639 23.319 214.727 23.319 213.806C23.319 212.886 23.5004 211.974 23.853 211.124C24.2055 210.274 24.7222 209.501 25.3736 208.85C26.0249 208.2 26.7981 207.684 27.6489 207.333C28.4997 206.981 29.4114 206.801 30.332 206.802H339.412C341.268 206.804 343.048 207.543 344.36 208.856C345.671 210.17 346.408 211.95 346.408 213.806C346.408 215.663 345.671 217.443 344.36 218.756C343.048 220.07 341.268 220.809 339.412 220.811Z"/><path fill="#E6E6E6" d="M238.72 191.042H30.332C29.4114 191.043 28.4997 190.862 27.6489 190.511C26.7981 190.159 26.0249 189.643 25.3736 188.993C24.7222 188.342 24.2055 187.57 23.853 186.719C23.5004 185.869 23.319 184.957 23.319 184.037C23.319 183.116 23.5004 182.205 23.853 181.354C24.2055 180.504 24.7222 179.731 25.3736 179.081C26.0249 178.43 26.7981 177.915 27.6489 177.563C28.4997 177.212 29.4114 177.031 30.332 177.032H238.72C240.578 177.032 242.36 177.77 243.673 179.084C244.987 180.397 245.725 182.179 245.725 184.037C245.725 185.895 244.987 187.676 243.673 188.99C242.36 190.304 240.578 191.042 238.72 191.042Z"/><path fill="#fff" d="M555.067 622.372C554.219 622.047 553.49 621.471 552.978 620.721C552.465 619.972 552.193 619.084 552.196 618.176V571.143C552.195 569.551 551.562 568.025 550.436 566.899C549.31 565.773 547.784 565.14 546.192 565.138H536.561C532.581 565.134 528.766 563.551 525.952 560.737C523.138 557.923 521.556 554.108 521.551 550.129V455.566C521.556 451.587 523.138 447.772 525.952 444.958C528.766 442.144 532.581 440.562 536.561 440.557H876.286C880.265 440.562 884.08 442.144 886.894 444.958C889.708 447.772 891.291 451.587 891.295 455.566V550.129C891.291 554.108 889.708 557.923 886.894 560.737C884.08 563.551 880.265 565.134 876.286 565.138H614.066C613.234 565.139 612.411 565.313 611.649 565.648C610.887 565.983 610.203 566.473 609.64 567.085L560.018 621.219C559.599 621.679 559.088 622.048 558.519 622.3C557.95 622.552 557.334 622.682 556.711 622.683C556.148 622.683 555.591 622.577 555.067 622.372Z"/><path fill="#3F3D56" d="M555.067 622.372C554.219 622.047 553.49 621.471 552.978 620.721C552.465 619.972 552.193 619.084 552.196 618.176V571.143C552.195 569.551 551.562 568.025 550.436 566.899C549.31 565.773 547.784 565.14 546.192 565.138H536.561C532.581 565.134 528.766 563.551 525.952 560.737C523.138 557.923 521.556 554.108 521.551 550.129V455.566C521.556 451.587 523.138 447.772 525.952 444.958C528.766 442.144 532.581 440.562 536.561 440.557H876.286C880.265 440.562 884.08 442.144 886.894 444.958C889.708 447.772 891.291 451.587 891.295 455.566V550.129C891.291 554.108 889.708 557.923 886.894 560.737C884.08 563.551 880.265 565.134 876.286 565.138H614.066C613.234 565.139 612.411 565.313 611.649 565.648C610.887 565.983 610.203 566.473 609.64 567.085L560.018 621.219C559.599 621.679 559.088 622.048 558.519 622.3C557.95 622.552 557.334 622.682 556.711 622.683C556.148 622.683 555.591 622.577 555.067 622.372ZM536.561 442.557C533.111 442.561 529.805 443.933 527.366 446.372C524.927 448.811 523.555 452.117 523.551 455.566V550.129C523.555 553.578 524.927 556.885 527.366 559.324C529.805 561.762 533.111 563.134 536.561 563.138H546.192C548.314 563.141 550.349 563.985 551.849 565.485C553.35 566.986 554.194 569.021 554.197 571.143V618.176C554.197 618.68 554.349 619.173 554.634 619.589C554.918 620.005 555.322 620.326 555.792 620.508C556.262 620.691 556.776 620.728 557.267 620.613C557.758 620.499 558.203 620.239 558.544 619.867L608.166 565.734C608.916 564.917 609.828 564.264 610.844 563.817C611.859 563.371 612.957 563.139 614.066 563.138H876.286C879.735 563.134 883.042 561.762 885.48 559.324C887.919 556.885 889.291 553.578 889.295 550.129V455.566C889.291 452.117 887.919 448.811 885.48 446.372C883.042 443.933 879.735 442.561 876.286 442.557H536.561Z"/><path fill="#00ADB5" d="M449.178 651.655C435.246 660.576 419.105 665.441 402.564 665.704C386.023 665.967 369.736 661.618 355.527 653.145C358.027 648.492 361.194 644.23 364.928 640.495C370.689 634.706 377.7 630.315 385.423 627.659C393.146 625.003 401.375 624.153 409.478 625.174C417.581 626.195 425.342 629.059 432.165 633.547C438.988 638.036 444.692 644.028 448.837 651.065C448.947 651.255 449.067 651.455 449.178 651.655Z"/><path fill="#2F2E41" d="M398.443 603.834C422.854 603.834 442.644 584.045 442.644 559.633C442.644 535.221 422.854 515.431 398.443 515.431C374.031 515.431 354.241 535.221 354.241 559.633C354.241 584.045 374.031 603.834 398.443 603.834Z"/><path fill="#FFB8B8" d="M431.333 590.81C440.048 574.867 434.188 554.878 418.246 546.163C402.303 537.448 382.314 543.308 373.599 559.25C364.884 575.193 370.744 595.182 386.686 603.897C402.629 612.612 422.618 606.752 431.333 590.81Z"/><path fill="#2F2E41" d="M367.898 554.337C375.416 559.519 384.338 562.276 393.469 562.24C390.212 564.498 386.504 566.024 382.601 566.711C394.74 569.315 407.286 569.386 419.454 566.918C422.159 566.484 424.769 565.588 427.169 564.268C428.365 563.6 429.408 562.688 430.228 561.591C431.048 560.494 431.629 559.236 431.931 557.9C432.74 553.281 429.141 549.084 425.4 546.256C419.673 541.992 413.07 539.054 406.069 537.655C399.067 536.256 391.842 536.43 384.916 538.166C380.394 539.335 375.864 541.31 372.926 544.942C369.989 548.574 369.119 554.173 371.917 557.912L367.898 554.337Z"/><path fill="#3F3D56" d="M401.147 666.715C379.5 666.708 358.581 658.897 342.227 644.713C325.873 630.53 315.181 610.926 312.112 589.497C309.043 568.068 313.803 546.251 325.52 528.048C337.236 509.845 355.122 496.476 375.898 490.394C396.673 484.313 418.945 485.925 438.628 494.936C458.311 503.948 474.085 519.753 483.057 539.454C492.028 559.155 493.596 581.43 487.473 602.193C481.349 622.957 467.945 640.816 449.718 652.496C435.224 661.79 418.365 666.725 401.147 666.715ZM401.147 488.715C383.74 488.713 366.724 493.873 352.249 503.543C337.775 513.213 326.494 526.958 319.832 543.04C313.169 559.122 311.426 576.818 314.821 593.891C318.217 610.963 326.599 626.646 338.908 638.954C351.217 651.263 366.899 659.645 383.972 663.041C401.044 666.436 418.741 664.693 434.822 658.031C450.904 651.368 464.649 640.087 474.319 625.613C483.989 611.138 489.149 594.122 489.147 576.715C489.121 553.384 479.841 531.016 463.344 514.518C446.846 498.021 424.478 488.741 401.147 488.715Z"/><path fill="#00ADB5" d="M563.816 481.272C571.07 481.272 576.95 475.392 576.95 468.138C576.95 460.885 571.07 455.004 563.816 455.004C556.563 455.004 550.682 460.885 550.682 468.138C550.682 475.392 556.563 481.272 563.816 481.272Z"/><path fill="#E6E6E6" d="M866.412 540.811H557.332C556.411 540.812 555.5 540.632 554.649 540.28C553.798 539.929 553.025 539.413 552.373 538.762C551.722 538.112 551.205 537.339 550.853 536.489C550.5 535.639 550.319 534.727 550.319 533.806C550.319 532.886 550.5 531.974 550.853 531.124C551.205 530.274 551.722 529.501 552.373 528.85C553.025 528.2 553.798 527.684 554.649 527.333C555.5 526.981 556.411 526.801 557.332 526.802H866.412C868.27 526.802 870.051 527.54 871.365 528.853C872.678 530.167 873.416 531.949 873.416 533.806C873.416 535.664 872.678 537.446 871.365 538.759C870.051 540.073 868.27 540.811 866.412 540.811Z"/><path fill="#E6E6E6" d="M765.72 511.042H557.332C556.411 511.043 555.5 510.862 554.649 510.511C553.798 510.159 553.025 509.643 552.373 508.993C551.722 508.342 551.205 507.57 550.853 506.719C550.5 505.869 550.319 504.957 550.319 504.037C550.319 503.116 550.5 502.205 550.853 501.354C551.205 500.504 551.722 499.731 552.373 499.081C553.025 498.43 553.798 497.915 554.649 497.563C555.5 497.212 556.411 497.031 557.332 497.032H765.72C767.576 497.034 769.356 497.773 770.668 499.087C771.979 500.4 772.716 502.181 772.716 504.037C772.716 505.893 771.979 507.674 770.668 508.987C769.356 510.3 767.576 511.039 765.72 511.042Z"/><path fill="#3F3D56" d="M555.067 622.372C554.219 622.047 553.49 621.471 552.978 620.721C552.465 619.972 552.193 619.084 552.196 618.176V571.143C552.195 569.551 551.562 568.025 550.436 566.899C549.31 565.773 547.784 565.14 546.192 565.138H536.561C532.581 565.134 528.766 563.551 525.952 560.737C523.138 557.923 521.556 554.108 521.551 550.129V455.566C521.556 451.587 523.138 447.772 525.952 444.958C528.766 442.144 532.581 440.562 536.561 440.557H876.286C880.265 440.562 884.08 442.144 886.894 444.958C889.708 447.772 891.291 451.587 891.295 455.566V550.129C891.291 554.108 889.708 557.923 886.894 560.737C884.08 563.551 880.265 565.134 876.286 565.138H614.066C613.234 565.139 612.411 565.313 611.649 565.648C610.887 565.983 610.203 566.473 609.64 567.085L560.018 621.219C559.599 621.679 559.088 622.048 558.519 622.3C557.95 622.552 557.334 622.682 556.711 622.683C556.148 622.683 555.591 622.577 555.067 622.372ZM536.561 442.557C533.111 442.561 529.805 443.933 527.366 446.372C524.927 448.811 523.555 452.117 523.551 455.566V550.129C523.555 553.578 524.927 556.885 527.366 559.324C529.805 561.762 533.111 563.134 536.561 563.138H546.192C548.314 563.141 550.349 563.985 551.849 565.485C553.35 566.986 554.194 569.021 554.197 571.143V618.176C554.197 618.68 554.349 619.173 554.634 619.589C554.918 620.005 555.322 620.326 555.792 620.508C556.262 620.691 556.776 620.728 557.267 620.613C557.758 620.499 558.203 620.239 558.544 619.867L608.166 565.734C608.916 564.917 609.828 564.264 610.844 563.817C611.859 563.371 612.957 563.139 614.066 563.138H876.286C879.735 563.134 883.042 561.762 885.48 559.324C887.919 556.885 889.291 553.578 889.295 550.129V455.566C889.291 452.117 887.919 448.811 885.48 446.372C883.042 443.933 879.735 442.561 876.286 442.557H536.561Z"/><path fill="#00ADB5" d="M563.816 481.272C571.07 481.272 576.95 475.392 576.95 468.138C576.95 460.885 571.07 455.004 563.816 455.004C556.563 455.004 550.682 460.885 550.682 468.138C550.682 475.392 556.563 481.272 563.816 481.272Z"/><path fill="#E6E6E6" d="M866.412 540.811H557.332C556.411 540.812 555.5 540.632 554.649 540.28C553.798 539.929 553.025 539.413 552.373 538.762C551.722 538.112 551.205 537.339 550.853 536.489C550.5 535.639 550.319 534.727 550.319 533.806C550.319 532.886 550.5 531.974 550.853 531.124C551.205 530.274 551.722 529.501 552.373 528.85C553.025 528.2 553.798 527.684 554.649 527.333C555.5 526.981 556.411 526.801 557.332 526.802H866.412C868.27 526.802 870.051 527.54 871.365 528.853C872.678 530.167 873.416 531.949 873.416 533.806C873.416 535.664 872.678 537.446 871.365 538.759C870.051 540.073 868.27 540.811 866.412 540.811Z"/><path fill="#E6E6E6" d="M765.72 511.042H557.332C556.411 511.043 555.5 510.862 554.649 510.511C553.798 510.159 553.025 509.643 552.373 508.993C551.722 508.342 551.205 507.57 550.853 506.719C550.5 505.869 550.319 504.957 550.319 504.037C550.319 503.116 550.5 502.205 550.853 501.354C551.205 500.504 551.722 499.731 552.373 499.081C553.025 498.43 553.798 497.915 554.649 497.563C555.5 497.212 556.411 497.031 557.332 497.032H765.72C767.576 497.034 769.356 497.773 770.668 499.087C771.979 500.4 772.716 502.181 772.716 504.037C772.716 505.893 771.979 507.674 770.668 508.987C769.356 510.3 767.576 511.039 765.72 511.042Z"/><path fill="#fff" d="M128.914 575.278C128.612 575.398 128.281 575.424 127.964 575.351C127.648 575.279 127.361 575.111 127.142 574.872L115.731 562.516C115.345 562.099 114.808 561.851 114.239 561.829C113.67 561.806 113.116 562.01 112.697 562.396L110.167 564.732C109.12 565.696 107.734 566.206 106.312 566.15C104.891 566.093 103.549 565.475 102.583 564.431L79.6413 539.589C78.6771 538.542 78.1673 537.156 78.2239 535.734C78.2804 534.313 78.8987 532.971 79.9429 532.005L169.189 449.586C170.235 448.621 171.622 448.112 173.044 448.168C174.465 448.225 175.807 448.843 176.773 449.887L199.715 474.729C200.679 475.775 201.189 477.162 201.132 478.583C201.075 480.005 200.457 481.347 199.413 482.313L130.528 545.929C130.309 546.131 130.135 546.376 130.016 546.649C129.897 546.922 129.837 547.217 129.837 547.514L129.935 573.774C129.936 573.996 129.891 574.217 129.803 574.421C129.715 574.626 129.585 574.809 129.421 574.961C129.273 575.097 129.101 575.205 128.914 575.278Z"/><path fill="#3F3D56" d="M128.914 575.278C128.612 575.398 128.281 575.424 127.964 575.351C127.648 575.279 127.361 575.111 127.142 574.872L115.731 562.516C115.345 562.099 114.808 561.851 114.239 561.829C113.67 561.806 113.116 562.01 112.697 562.396L110.167 564.732C109.12 565.696 107.734 566.206 106.312 566.15C104.891 566.093 103.549 565.475 102.583 564.431L79.6413 539.589C78.6771 538.542 78.1673 537.156 78.2239 535.734C78.2804 534.313 78.8987 532.971 79.9429 532.005L169.189 449.586C170.235 448.621 171.622 448.112 173.044 448.168C174.465 448.225 175.807 448.843 176.773 449.887L199.715 474.729C200.679 475.775 201.189 477.162 201.132 478.583C201.075 480.005 200.457 481.347 199.413 482.313L130.528 545.929C130.309 546.131 130.135 546.376 130.016 546.649C129.897 546.922 129.837 547.217 129.837 547.514L129.935 573.774C129.936 573.996 129.891 574.217 129.803 574.421C129.715 574.626 129.585 574.809 129.421 574.961C129.273 575.097 129.101 575.205 128.914 575.278ZM80.4282 532.53C79.523 533.368 78.9872 534.53 78.9382 535.763C78.8891 536.995 79.331 538.197 80.1667 539.104L103.108 563.945C103.946 564.851 105.108 565.386 106.341 565.435C107.573 565.484 108.775 565.043 109.682 564.207L112.212 561.87C112.77 561.356 113.509 561.084 114.268 561.114C115.026 561.144 115.741 561.474 116.257 562.031L127.667 574.387C127.79 574.519 127.949 574.612 128.125 574.652C128.3 574.692 128.484 574.678 128.652 574.612C128.82 574.546 128.964 574.431 129.065 574.282C129.166 574.133 129.22 573.957 129.219 573.776L129.122 547.517C129.121 547.12 129.202 546.728 129.361 546.364C129.519 546 129.751 545.673 130.042 545.404L198.928 481.788C199.833 480.95 200.369 479.787 200.418 478.555C200.467 477.323 200.025 476.121 199.189 475.214L176.248 450.373C175.41 449.467 174.247 448.932 173.015 448.883C171.783 448.834 170.581 449.275 169.674 450.111L80.4282 532.53Z"/><path fill="#E6E6E6" d="M190.917 478.318L109.722 553.302C109.48 553.526 109.197 553.7 108.888 553.814C108.579 553.928 108.251 553.98 107.922 553.967C107.593 553.954 107.27 553.876 106.971 553.739C106.672 553.601 106.403 553.405 106.18 553.163C105.957 552.922 105.783 552.638 105.67 552.329C105.556 552.02 105.504 551.692 105.517 551.363C105.531 551.034 105.609 550.711 105.747 550.412C105.885 550.113 106.081 549.845 106.323 549.622L187.518 474.638C188.007 474.187 188.654 473.948 189.317 473.975C189.981 474.001 190.607 474.29 191.058 474.778C191.509 475.266 191.747 475.913 191.721 476.577C191.694 477.241 191.405 477.867 190.917 478.318Z"/><path fill="#E6E6E6" d="M157.243 494.926L102.499 545.482C102.258 545.705 101.975 545.879 101.666 545.993C101.357 546.107 101.029 546.159 100.7 546.146C100.371 546.133 100.048 546.056 99.7488 545.918C99.4499 545.78 99.1811 545.585 98.9577 545.343C98.7344 545.101 98.5609 544.817 98.4472 544.509C98.3335 544.2 98.2818 543.871 98.2951 543.542C98.3084 543.214 98.3864 542.89 98.5246 542.592C98.6628 542.293 98.8586 542.024 99.1007 541.801L153.844 491.245C154.333 490.796 154.979 490.558 155.643 490.585C156.306 490.612 156.931 490.9 157.382 491.388C157.832 491.876 158.07 492.522 158.044 493.186C158.018 493.849 157.73 494.475 157.243 494.926Z"/><path fill="#3F3D56" d="M128.914 575.278C128.612 575.398 128.281 575.424 127.964 575.351C127.648 575.279 127.361 575.111 127.142 574.872L115.731 562.516C115.345 562.099 114.808 561.851 114.239 561.829C113.67 561.806 113.116 562.01 112.697 562.396L110.167 564.732C109.12 565.696 107.734 566.206 106.312 566.15C104.891 566.093 103.549 565.475 102.583 564.431L79.6413 539.589C78.6771 538.542 78.1673 537.156 78.2239 535.734C78.2804 534.313 78.8987 532.971 79.9429 532.005L169.189 449.586C170.235 448.621 171.622 448.112 173.044 448.168C174.465 448.225 175.807 448.843 176.773 449.887L199.715 474.729C200.679 475.775 201.189 477.162 201.132 478.583C201.075 480.005 200.457 481.347 199.413 482.313L130.528 545.929C130.309 546.131 130.135 546.376 130.016 546.649C129.897 546.922 129.837 547.217 129.837 547.514L129.935 573.774C129.936 573.996 129.891 574.217 129.803 574.421C129.715 574.626 129.585 574.809 129.421 574.961C129.273 575.097 129.101 575.205 128.914 575.278ZM80.4282 532.53C79.523 533.368 78.9872 534.53 78.9382 535.763C78.8891 536.995 79.331 538.197 80.1667 539.104L103.108 563.945C103.946 564.851 105.108 565.386 106.341 565.435C107.573 565.484 108.775 565.043 109.682 564.207L112.212 561.87C112.77 561.356 113.509 561.084 114.268 561.114C115.026 561.144 115.741 561.474 116.257 562.031L127.667 574.387C127.79 574.519 127.949 574.612 128.125 574.652C128.3 574.692 128.484 574.678 128.652 574.612C128.82 574.546 128.964 574.431 129.065 574.282C129.166 574.133 129.22 573.957 129.219 573.776L129.122 547.517C129.121 547.12 129.202 546.728 129.361 546.364C129.519 546 129.751 545.673 130.042 545.404L198.928 481.788C199.833 480.95 200.369 479.787 200.418 478.555C200.467 477.323 200.025 476.121 199.189 475.214L176.248 450.373C175.41 449.467 174.247 448.932 173.015 448.883C171.783 448.834 170.581 449.275 169.674 450.111L80.4282 532.53Z"/><path fill="#00ADB5" d="M96.9805 536.088C98.886 534.328 99.0042 531.357 97.2444 529.451C95.4847 527.546 92.5134 527.428 90.6079 529.187C88.7024 530.947 88.5842 533.918 90.344 535.824C92.1037 537.73 95.075 537.848 96.9805 536.088Z"/><path fill="#E6E6E6" d="M190.917 478.318L109.722 553.302C109.48 553.526 109.197 553.7 108.888 553.814C108.579 553.928 108.251 553.98 107.922 553.967C107.593 553.954 107.27 553.876 106.971 553.739C106.672 553.601 106.403 553.405 106.18 553.163C105.957 552.922 105.783 552.638 105.67 552.329C105.556 552.02 105.504 551.692 105.517 551.363C105.531 551.034 105.609 550.711 105.747 550.412C105.885 550.113 106.081 549.845 106.323 549.622L187.518 474.638C188.007 474.187 188.654 473.948 189.317 473.975C189.981 474.001 190.607 474.29 191.058 474.778C191.509 475.266 191.747 475.913 191.721 476.577C191.694 477.241 191.405 477.867 190.917 478.318Z"/><path fill="#E6E6E6" d="M157.243 494.926L102.499 545.482C102.258 545.705 101.975 545.879 101.666 545.993C101.357 546.107 101.029 546.159 100.7 546.146C100.371 546.133 100.048 546.056 99.7488 545.918C99.4499 545.78 99.1811 545.585 98.9577 545.343C98.7344 545.101 98.5609 544.817 98.4472 544.509C98.3335 544.2 98.2818 543.871 98.2951 543.542C98.3084 543.214 98.3864 542.89 98.5246 542.592C98.6628 542.293 98.8586 542.024 99.1007 541.801L153.844 491.245C154.333 490.796 154.979 490.558 155.643 490.585C156.306 490.612 156.931 490.9 157.382 491.388C157.832 491.876 158.07 492.522 158.044 493.186C158.018 493.849 157.73 494.475 157.243 494.926Z"/><path fill="#fff" d="M675.244 169.555C675.075 169.45 674.941 169.296 674.862 169.113C674.782 168.93 674.76 168.727 674.798 168.531L676.735 158.383C676.8 158.039 676.726 157.684 676.53 157.395C676.333 157.106 676.03 156.906 675.686 156.84L673.608 156.443C672.75 156.279 671.992 155.78 671.5 155.057C671.009 154.334 670.825 153.446 670.988 152.587L674.882 132.183C675.047 131.324 675.545 130.566 676.268 130.075C676.991 129.584 677.88 129.4 678.738 129.562L752.041 143.552C752.9 143.717 753.658 144.215 754.149 144.938C754.64 145.661 754.825 146.55 754.662 147.409L750.768 167.812C750.603 168.671 750.105 169.429 749.382 169.92C748.659 170.411 747.77 170.596 746.911 170.433L690.332 159.635C690.152 159.601 689.967 159.605 689.789 159.646C689.611 159.686 689.443 159.764 689.296 159.873L676.36 169.51C676.251 169.592 676.126 169.651 675.992 169.682C675.859 169.713 675.721 169.715 675.587 169.69C675.465 169.667 675.349 169.621 675.244 169.555Z"/><path fill="#3F3D56" d="M675.244 169.555C675.075 169.45 674.941 169.296 674.862 169.113C674.782 168.93 674.76 168.727 674.798 168.531L676.735 158.383C676.8 158.039 676.726 157.684 676.53 157.395C676.333 157.106 676.03 156.906 675.686 156.84L673.608 156.443C672.75 156.279 671.992 155.78 671.5 155.057C671.009 154.334 670.825 153.446 670.988 152.587L674.882 132.183C675.047 131.324 675.545 130.566 676.268 130.075C676.991 129.584 677.88 129.4 678.738 129.562L752.041 143.552C752.9 143.717 753.658 144.215 754.149 144.938C754.64 145.661 754.825 146.55 754.662 147.409L750.768 167.812C750.603 168.671 750.105 169.429 749.382 169.92C748.659 170.411 747.77 170.596 746.911 170.433L690.332 159.635C690.152 159.601 689.967 159.605 689.789 159.646C689.611 159.686 689.443 159.764 689.296 159.873L676.36 169.51C676.251 169.592 676.126 169.651 675.992 169.682C675.859 169.713 675.721 169.715 675.587 169.69C675.465 169.667 675.349 169.621 675.244 169.555ZM678.656 129.994C677.912 129.853 677.142 130.013 676.515 130.438C675.888 130.864 675.456 131.521 675.313 132.265L671.419 152.669C671.278 153.414 671.438 154.184 671.864 154.81C672.29 155.437 672.947 155.869 673.691 156.012L675.769 156.409C676.227 156.496 676.631 156.762 676.893 157.148C677.155 157.534 677.253 158.007 677.166 158.465L675.23 168.614C675.209 168.723 675.221 168.835 675.266 168.937C675.31 169.038 675.384 169.124 675.478 169.183C675.572 169.242 675.681 169.271 675.792 169.266C675.902 169.262 676.009 169.224 676.098 169.158L689.034 159.521C689.23 159.375 689.453 159.272 689.691 159.217C689.928 159.163 690.175 159.158 690.414 159.204L746.994 170.001C747.738 170.143 748.508 169.983 749.135 169.557C749.761 169.131 750.194 168.474 750.336 167.73L754.23 147.326C754.372 146.582 754.212 145.812 753.786 145.185C753.36 144.559 752.703 144.126 751.959 143.983L678.656 129.994Z"/><path fill="#E6E6E6" d="M745.783 164.777L679.092 152.05C678.893 152.012 678.704 151.935 678.535 151.825C678.366 151.714 678.22 151.571 678.106 151.403C677.993 151.236 677.913 151.048 677.872 150.85C677.831 150.652 677.829 150.448 677.867 150.249C677.905 150.051 677.982 149.862 678.093 149.693C678.204 149.524 678.347 149.378 678.514 149.265C678.682 149.151 678.87 149.072 679.068 149.031C679.266 148.99 679.47 148.989 679.669 149.027L746.359 161.754C746.76 161.831 747.114 162.064 747.344 162.401C747.573 162.739 747.659 163.153 747.582 163.554C747.506 163.955 747.273 164.309 746.936 164.538C746.598 164.768 746.183 164.854 745.783 164.777Z"/><path fill="#E6E6E6" d="M725.282 154.208L680.318 145.626C680.119 145.589 679.93 145.512 679.761 145.401C679.592 145.29 679.446 145.147 679.332 144.98C679.219 144.813 679.139 144.625 679.098 144.427C679.057 144.229 679.055 144.025 679.093 143.826C679.131 143.627 679.208 143.438 679.319 143.269C679.43 143.1 679.573 142.955 679.74 142.841C679.908 142.728 680.096 142.648 680.294 142.608C680.492 142.567 680.696 142.565 680.895 142.603L725.859 151.185C726.259 151.262 726.613 151.494 726.842 151.832C727.071 152.169 727.157 152.584 727.08 152.984C727.004 153.385 726.771 153.739 726.434 153.968C726.097 154.197 725.683 154.283 725.282 154.208Z"/><path fill="#3F3D56" d="M675.244 169.555C675.075 169.45 674.941 169.296 674.862 169.113C674.782 168.93 674.76 168.727 674.798 168.531L676.735 158.383C676.8 158.039 676.726 157.684 676.53 157.395C676.333 157.106 676.03 156.906 675.686 156.84L673.608 156.443C672.75 156.279 671.992 155.78 671.5 155.057C671.009 154.334 670.825 153.446 670.988 152.587L674.882 132.183C675.047 131.324 675.545 130.566 676.268 130.075C676.991 129.584 677.88 129.4 678.738 129.562L752.041 143.552C752.9 143.717 753.658 144.215 754.149 144.938C754.64 145.661 754.825 146.55 754.662 147.409L750.768 167.812C750.603 168.671 750.105 169.429 749.382 169.92C748.659 170.411 747.77 170.596 746.911 170.433L690.332 159.635C690.152 159.601 689.967 159.605 689.789 159.646C689.611 159.686 689.443 159.764 689.296 159.873L676.36 169.51C676.251 169.592 676.126 169.651 675.992 169.682C675.859 169.713 675.721 169.715 675.587 169.69C675.465 169.667 675.349 169.621 675.244 169.555ZM678.656 129.994C677.912 129.853 677.142 130.013 676.515 130.438C675.888 130.864 675.456 131.521 675.313 132.265L671.419 152.669C671.278 153.414 671.438 154.184 671.864 154.81C672.29 155.437 672.947 155.869 673.691 156.012L675.769 156.409C676.227 156.496 676.631 156.762 676.893 157.148C677.155 157.534 677.253 158.007 677.166 158.465L675.23 168.614C675.209 168.723 675.221 168.835 675.266 168.937C675.31 169.038 675.384 169.124 675.478 169.183C675.572 169.242 675.681 169.271 675.792 169.266C675.902 169.262 676.009 169.224 676.098 169.158L689.034 159.521C689.23 159.375 689.453 159.272 689.691 159.217C689.928 159.163 690.175 159.158 690.414 159.204L746.994 170.001C747.738 170.143 748.508 169.983 749.135 169.557C749.761 169.131 750.194 168.474 750.336 167.73L754.23 147.326C754.372 146.582 754.212 145.812 753.786 145.185C753.36 144.559 752.703 144.126 751.959 143.983L678.656 129.994Z"/><path fill="#00ADB5" d="M682.943 139.47C684.508 139.769 686.019 138.742 686.317 137.177C686.616 135.612 685.59 134.101 684.024 133.802C682.459 133.503 680.948 134.53 680.65 136.095C680.351 137.66 681.378 139.171 682.943 139.47Z"/><path fill="#E6E6E6" d="M745.783 164.777L679.092 152.05C678.893 152.012 678.704 151.935 678.535 151.825C678.366 151.714 678.22 151.571 678.106 151.403C677.993 151.236 677.913 151.048 677.872 150.85C677.831 150.652 677.829 150.448 677.867 150.249C677.905 150.051 677.982 149.862 678.093 149.693C678.204 149.524 678.347 149.378 678.514 149.265C678.682 149.151 678.87 149.072 679.068 149.031C679.266 148.99 679.47 148.989 679.669 149.027L746.359 161.754C746.76 161.831 747.114 162.064 747.344 162.401C747.573 162.739 747.659 163.153 747.582 163.554C747.506 163.955 747.273 164.309 746.936 164.538C746.598 164.768 746.183 164.854 745.783 164.777Z"/><path fill="#E6E6E6" d="M725.282 154.208L680.318 145.626C680.119 145.589 679.93 145.512 679.761 145.401C679.592 145.29 679.446 145.147 679.332 144.98C679.219 144.813 679.139 144.625 679.098 144.427C679.057 144.229 679.055 144.025 679.093 143.826C679.131 143.627 679.208 143.438 679.319 143.269C679.43 143.1 679.573 142.955 679.74 142.841C679.908 142.728 680.096 142.648 680.294 142.608C680.492 142.567 680.696 142.565 680.895 142.603L725.859 151.185C726.259 151.262 726.613 151.494 726.842 151.832C727.071 152.169 727.157 152.584 727.08 152.984C727.004 153.385 726.771 153.739 726.434 153.968C726.097 154.197 725.683 154.283 725.282 154.208Z"/><path fill="#F2F2F2" d="M554.644 631.325C568.177 631.325 579.148 630.107 579.148 628.605C579.148 627.103 568.177 625.886 554.644 625.886C541.11 625.886 530.14 627.103 530.14 628.605C530.14 630.107 541.11 631.325 554.644 631.325Z"/><path fill="#F2F2F2" d="M335.644 311.325C349.177 311.325 360.148 310.107 360.148 308.605C360.148 307.103 349.177 305.886 335.644 305.886C322.11 305.886 311.14 307.103 311.14 308.605C311.14 310.107 322.11 311.325 335.644 311.325Z"/><path fill="#fff" d="M160.25 71.7054C160.029 71.7097 159.812 71.6467 159.628 71.5249C159.444 71.403 159.302 71.2281 159.219 71.0233L154.916 60.4328C154.77 60.0745 154.487 59.7887 154.131 59.6382C153.774 59.4878 153.373 59.4848 153.014 59.6301L150.845 60.5114C149.949 60.8745 148.945 60.8672 148.054 60.4911C147.163 60.115 146.458 59.4007 146.092 58.5051L137.44 37.2124C137.077 36.316 137.084 35.3121 137.46 34.421C137.836 33.53 138.55 32.8245 139.446 32.4594L215.942 1.37351C216.839 1.0104 217.842 1.01769 218.733 1.39381C219.625 1.76993 220.33 2.48415 220.695 3.37977L229.348 24.6725C229.711 25.5689 229.704 26.5728 229.328 27.4639C228.952 28.3549 228.237 29.0604 227.342 29.4255L168.297 53.4194C168.11 53.4958 167.941 53.6102 167.8 53.7553C167.659 53.9005 167.55 54.0733 167.479 54.2629L161.259 70.9927C161.207 71.1348 161.125 71.2644 161.02 71.3732C160.915 71.4821 160.788 71.5679 160.648 71.625C160.522 71.6764 160.386 71.7036 160.25 71.7054Z"/><path fill="#3F3D56" d="M160.25 71.7054C160.029 71.7097 159.812 71.6467 159.628 71.5249C159.444 71.403 159.302 71.2281 159.219 71.0233L154.916 60.4328C154.77 60.0745 154.487 59.7887 154.131 59.6382C153.774 59.4878 153.373 59.4848 153.014 59.6301L150.845 60.5114C149.949 60.8745 148.945 60.8672 148.054 60.4911C147.163 60.115 146.458 59.4007 146.092 58.5051L137.44 37.2124C137.077 36.316 137.084 35.3121 137.46 34.421C137.836 33.53 138.55 32.8245 139.446 32.4594L215.942 1.37351C216.839 1.0104 217.842 1.01769 218.733 1.39381C219.625 1.76993 220.33 2.48415 220.695 3.37977L229.348 24.6725C229.711 25.5689 229.704 26.5728 229.328 27.4639C228.952 28.3549 228.237 29.0604 227.342 29.4255L168.297 53.4194C168.11 53.4958 167.941 53.6102 167.8 53.7553C167.659 53.9005 167.55 54.0733 167.479 54.2629L161.259 70.9927C161.207 71.1348 161.125 71.2644 161.02 71.3732C160.915 71.4821 160.788 71.5679 160.648 71.625C160.522 71.6764 160.386 71.7036 160.25 71.7054ZM139.629 32.9097C138.853 33.2262 138.234 33.8377 137.908 34.61C137.582 35.3823 137.575 36.2524 137.89 37.0294L146.543 58.3221C146.859 59.0984 147.471 59.7175 148.243 60.0434C149.015 60.3694 149.885 60.3758 150.662 60.061L152.831 59.1797C153.309 58.9861 153.845 58.99 154.32 59.1906C154.795 59.3912 155.171 59.7721 155.366 60.2498L159.67 70.8403C159.716 70.9538 159.795 71.0507 159.897 71.1184C160 71.186 160.12 71.2212 160.242 71.2194C160.365 71.2176 160.484 71.1788 160.584 71.1081C160.684 71.0374 160.761 70.9381 160.803 70.8232L167.023 54.0934C167.118 53.8408 167.263 53.6104 167.451 53.4169C167.639 53.2233 167.865 53.0708 168.114 52.969L227.159 28.9752C227.935 28.6587 228.554 28.0472 228.88 27.2749C229.206 26.5026 229.212 25.6325 228.898 24.8555L220.245 3.56278C219.928 2.7865 219.317 2.16746 218.545 1.84146C217.772 1.51546 216.902 1.50913 216.125 1.82385L139.629 32.9097Z"/><path fill="#E6E6E6" d="M222.892 24.8512L153.297 53.1329C153.089 53.2174 152.868 53.2602 152.644 53.2589C152.42 53.2576 152.199 53.2122 151.993 53.1253C151.786 53.0384 151.599 52.9117 151.442 52.7525C151.285 52.5933 151.161 52.4046 151.077 52.1974C150.992 51.9901 150.95 51.7682 150.951 51.5445C150.953 51.3207 150.999 51.0995 151.086 50.8934C151.173 50.6873 151.3 50.5004 151.459 50.3434C151.619 50.1864 151.807 50.0624 152.015 49.9784L221.611 21.6967C222.029 21.5267 222.498 21.5298 222.914 21.7054C223.329 21.881 223.659 22.2147 223.829 22.633C223.999 23.0513 223.996 23.52 223.82 23.936C223.644 24.352 223.311 24.6812 222.892 24.8512Z"/><path fill="#E6E6E6" d="M197.495 27.3614L150.573 46.4295C150.365 46.514 150.144 46.5568 149.92 46.5555C149.696 46.5542 149.475 46.5088 149.269 46.4219C149.062 46.335 148.875 46.2084 148.718 46.0491C148.561 45.8899 148.437 45.7013 148.352 45.494C148.268 45.2867 148.226 45.0648 148.227 44.8411C148.229 44.6174 148.275 44.3961 148.362 44.19C148.449 43.984 148.576 43.7971 148.735 43.6401C148.894 43.4831 149.083 43.359 149.291 43.275L196.214 24.2069C196.632 24.0375 197.1 24.0411 197.516 24.2168C197.931 24.3925 198.26 24.726 198.43 25.144C198.6 25.5619 198.597 26.0303 198.422 26.446C198.246 26.8618 197.913 27.191 197.495 27.3614Z"/><path fill="#3F3D56" d="M160.25 71.7054C160.029 71.7097 159.812 71.6467 159.628 71.5249C159.444 71.403 159.302 71.2281 159.219 71.0233L154.916 60.4328C154.77 60.0745 154.487 59.7887 154.131 59.6382C153.774 59.4878 153.373 59.4848 153.014 59.6301L150.845 60.5114C149.949 60.8745 148.945 60.8672 148.054 60.4911C147.163 60.115 146.458 59.4007 146.092 58.5051L137.44 37.2124C137.077 36.316 137.084 35.3121 137.46 34.421C137.836 33.53 138.55 32.8245 139.446 32.4594L215.942 1.37351C216.839 1.0104 217.842 1.01769 218.733 1.39381C219.625 1.76993 220.33 2.48415 220.695 3.37977L229.348 24.6725C229.711 25.5689 229.704 26.5728 229.328 27.4639C228.952 28.3549 228.237 29.0604 227.342 29.4255L168.297 53.4194C168.11 53.4958 167.941 53.6102 167.8 53.7553C167.659 53.9005 167.55 54.0733 167.479 54.2629L161.259 70.9927C161.207 71.1348 161.125 71.2644 161.02 71.3732C160.915 71.4821 160.788 71.5679 160.648 71.625C160.522 71.6764 160.386 71.7036 160.25 71.7054ZM139.629 32.9097C138.853 33.2262 138.234 33.8377 137.908 34.61C137.582 35.3823 137.575 36.2524 137.89 37.0294L146.543 58.3221C146.859 59.0984 147.471 59.7175 148.243 60.0434C149.015 60.3694 149.885 60.3758 150.662 60.061L152.831 59.1797C153.309 58.9861 153.845 58.99 154.32 59.1906C154.795 59.3912 155.171 59.7721 155.366 60.2498L159.67 70.8403C159.716 70.9538 159.795 71.0507 159.897 71.1184C160 71.186 160.12 71.2212 160.242 71.2194C160.365 71.2176 160.484 71.1788 160.584 71.1081C160.684 71.0374 160.761 70.9381 160.803 70.8232L167.023 54.0934C167.118 53.8408 167.263 53.6104 167.451 53.4169C167.639 53.2233 167.865 53.0708 168.114 52.969L227.159 28.9752C227.935 28.6587 228.554 28.0472 228.88 27.2749C229.206 26.5026 229.212 25.6325 228.898 24.8555L220.245 3.56278C219.928 2.7865 219.317 2.16746 218.545 1.84146C217.772 1.51546 216.902 1.50913 216.125 1.82385L139.629 32.9097Z"/><path fill="#00ADB5" d="M149.309 39.133C150.942 38.4693 151.728 36.6072 151.064 34.9739C150.4 33.3407 148.538 32.5547 146.905 33.2184C145.272 33.8821 144.486 35.7442 145.149 37.3775C145.813 39.0108 147.675 39.7968 149.309 39.133Z"/><path fill="#E6E6E6" d="M222.892 24.8512L153.297 53.1329C153.089 53.2174 152.868 53.2602 152.644 53.2589C152.42 53.2576 152.199 53.2122 151.993 53.1253C151.786 53.0384 151.599 52.9117 151.442 52.7525C151.285 52.5933 151.161 52.4046 151.077 52.1974C150.992 51.9901 150.95 51.7682 150.951 51.5445C150.953 51.3207 150.999 51.0995 151.086 50.8934C151.173 50.6873 151.3 50.5004 151.459 50.3434C151.619 50.1864 151.807 50.0624 152.015 49.9784L221.611 21.6967C222.029 21.5267 222.498 21.5298 222.914 21.7054C223.329 21.881 223.659 22.2147 223.829 22.633C223.999 23.0513 223.996 23.52 223.82 23.936C223.644 24.352 223.311 24.6812 222.892 24.8512Z"/><path fill="#E6E6E6" d="M197.495 27.3614L150.573 46.4295C150.365 46.514 150.144 46.5568 149.92 46.5555C149.696 46.5542 149.475 46.5088 149.269 46.4219C149.062 46.335 148.875 46.2084 148.718 46.0491C148.561 45.8899 148.437 45.7013 148.352 45.494C148.268 45.2867 148.226 45.0648 148.227 44.8411C148.229 44.6174 148.275 44.3961 148.362 44.19C148.449 43.984 148.576 43.7971 148.735 43.6401C148.894 43.4831 149.083 43.359 149.291 43.275L196.214 24.2069C196.632 24.0375 197.1 24.0411 197.516 24.2168C197.931 24.3925 198.26 24.726 198.43 25.144C198.6 25.5619 198.597 26.0303 198.422 26.446C198.246 26.8618 197.913 27.191 197.495 27.3614Z"/></svg>