<svg width="876" height="554" viewBox="0 0 876 554" fill="none" xmlns="http://www.w3.org/2000/svg">
<path d="M354 256H17C12.4929 255.995 8.1718 254.202 4.98477 251.015C1.79775 247.828 0.00505274 243.507 0 239V50C0.00505274 45.4929 1.79775 41.1718 4.98477 37.9848C8.1718 34.7977 12.4929 33.0051 17 33H354C358.507 33.0051 362.828 34.7978 366.015 37.9848C369.202 41.1718 370.995 45.4929 371 50V239C370.995 243.507 369.202 247.828 366.015 251.015C362.828 254.202 358.507 255.995 354 256ZM17 35C13.0231 35.0045 9.21043 36.5863 6.39836 39.3984C3.58629 42.2104 2.0045 46.0231 2 50V239C2.0045 242.977 3.58629 246.79 6.39836 249.602C9.21043 252.414 13.0231 253.995 17 254H354C357.977 253.995 361.79 252.414 364.602 249.602C367.414 246.79 368.996 242.977 369 239V50C368.996 46.0231 367.414 42.2104 364.602 39.3984C361.79 36.5863 357.977 35.0045 354 35H17Z" fill="#E6E6E6"/>
<path d="M268.6 108.313H203.6C202.407 108.313 201.262 108.787 200.418 109.631C199.574 110.475 199.1 111.62 199.1 112.813C199.1 114.006 199.574 115.151 200.418 115.995C201.262 116.839 202.407 117.313 203.6 117.313H268.6C269.794 117.313 270.938 116.839 271.782 115.995C272.626 115.151 273.1 114.006 273.1 112.813C273.1 111.62 272.626 110.475 271.782 109.631C270.938 108.787 269.794 108.313 268.6 108.313Z" fill="#E6E6E6"/>
<path d="M331.96 136.813H202.74C200.73 136.813 199.1 138.833 199.1 141.313C199.1 143.793 200.73 145.813 202.74 145.813H331.96C333.97 145.813 335.6 143.793 335.6 141.313C335.6 138.833 333.97 136.813 331.96 136.813Z" fill="#E6E6E6"/>
<path d="M331.96 166H202.74C200.73 166 199.1 168.02 199.1 170.5C199.1 172.98 200.73 175 202.74 175H331.96C333.97 175 335.6 172.98 335.6 170.5C335.6 168.02 333.97 166 331.96 166Z" fill="#E6E6E6"/>
<path d="M154 214.5H42C39.2162 214.497 36.5473 213.39 34.5789 211.421C32.6104 209.453 31.5032 206.784 31.5 204V79C31.5032 76.2162 32.6104 73.5473 34.5789 71.5789C36.5473 69.6104 39.2162 68.5032 42 68.5H154C156.784 68.5032 159.453 69.6104 161.421 71.5789C163.39 73.5473 164.497 76.2162 164.5 79V204C164.497 206.784 163.39 209.453 161.421 211.421C159.453 213.39 156.784 214.497 154 214.5Z" fill="#E6E6E6"/>
<path d="M362 72C381.882 72 398 55.8823 398 36C398 16.1177 381.882 0 362 0C342.118 0 326 16.1177 326 36C326 55.8823 342.118 72 362 72Z" fill="#E6E6E6"/>
<path d="M832 256H495C490.493 255.995 486.172 254.202 482.985 251.015C479.798 247.828 478.005 243.507 478 239V50C478.005 45.4929 479.798 41.1718 482.985 37.9848C486.172 34.7977 490.493 33.0051 495 33H832C836.507 33.0051 840.828 34.7978 844.015 37.9848C847.202 41.1718 848.995 45.4929 849 50V239C848.995 243.507 847.202 247.828 844.015 251.015C840.828 254.202 836.507 255.995 832 256ZM495 35C491.023 35.0045 487.21 36.5863 484.398 39.3984C481.586 42.2104 480.004 46.0231 480 50V239C480.004 242.977 481.586 246.79 484.398 249.602C487.21 252.414 491.023 253.995 495 254H832C835.977 253.995 839.79 252.414 842.602 249.602C845.414 246.79 846.996 242.977 847 239V50C846.996 46.0231 845.414 42.2104 842.602 39.3984C839.79 36.5863 835.977 35.0045 832 35H495Z" fill="#3F3D56"/>
<path d="M746.6 108.313H681.6C680.407 108.313 679.262 108.787 678.418 109.631C677.574 110.475 677.1 111.62 677.1 112.813C677.1 114.006 677.574 115.151 678.418 115.995C679.262 116.839 680.407 117.313 681.6 117.313H746.6C747.794 117.313 748.938 116.839 749.782 115.995C750.626 115.151 751.1 114.006 751.1 112.813C751.1 111.62 750.626 110.475 749.782 109.631C748.938 108.787 747.794 108.313 746.6 108.313Z" fill="#3F3D56"/>
<path d="M809.96 136.813H680.74C678.73 136.813 677.1 138.833 677.1 141.313C677.1 143.793 678.73 145.813 680.74 145.813H809.96C811.97 145.813 813.6 143.793 813.6 141.313C813.6 138.833 811.97 136.813 809.96 136.813Z" fill="#3F3D56"/>
<path d="M809.96 166H680.74C678.73 166 677.1 168.02 677.1 170.5C677.1 172.98 678.73 175 680.74 175H809.96C811.97 175 813.6 172.98 813.6 170.5C813.6 168.02 811.97 166 809.96 166Z" fill="#3F3D56"/>
<path d="M632 214.5H520C517.216 214.497 514.547 213.39 512.579 211.421C510.61 209.453 509.503 206.784 509.5 204V79C509.503 76.2162 510.61 73.5473 512.579 71.5789C514.547 69.6104 517.216 68.5032 520 68.5H632C634.784 68.5032 637.453 69.6104 639.421 71.5789C641.39 73.5473 642.497 76.2162 642.5 79V204C642.497 206.784 641.39 209.453 639.421 211.421C637.453 213.39 634.784 214.497 632 214.5Z" fill="#00ADB5"/>
<path d="M840 72C859.882 72 876 55.8823 876 36C876 16.1177 859.882 0 840 0C820.118 0 804 16.1177 804 36C804 55.8823 820.118 72 840 72Z" fill="#00ADB5"/>
<path d="M837.976 50.5733C836.995 50.5751 836.039 50.2577 835.254 49.6689L835.205 49.6323L824.951 41.7819C824.475 41.4185 824.075 40.9648 823.775 40.4468C823.474 39.9287 823.279 39.3564 823.2 38.7627C823.12 38.169 823.159 37.5655 823.313 36.9867C823.468 36.4079 823.735 35.8653 824.099 35.3899C824.463 34.9144 824.918 34.5154 825.436 34.2158C825.955 33.9162 826.528 33.7219 827.122 33.6439C827.715 33.5658 828.319 33.6057 828.897 33.7612C829.476 33.9166 830.018 34.1847 830.493 34.5499L837.134 39.6425L852.829 19.1742C853.193 18.6994 853.647 18.301 854.165 18.0017C854.683 17.7024 855.255 17.5081 855.848 17.4298C856.441 17.3515 857.043 17.3908 857.621 17.5454C858.199 17.7001 858.741 17.9671 859.216 18.3311L859.118 18.4636L859.218 18.333C860.176 19.069 860.802 20.1548 860.96 21.3521C861.119 22.5495 860.795 23.7606 860.061 24.7199L841.601 48.7955C841.174 49.3503 840.625 49.7993 839.996 50.1076C839.368 50.4159 838.676 50.5753 837.976 50.5733Z" fill="white"/>
<path d="M354 554H17C12.4929 553.995 8.1718 552.202 4.98477 549.015C1.79775 545.828 0.00505274 541.507 0 537V348C0.00505274 343.493 1.79775 339.172 4.98477 335.985C8.1718 332.798 12.4929 331.005 17 331H354C358.507 331.005 362.828 332.798 366.015 335.985C369.202 339.172 370.995 343.493 371 348V537C370.995 541.507 369.202 545.828 366.015 549.015C362.828 552.202 358.507 553.995 354 554ZM17 333C13.0231 333.004 9.21043 334.586 6.39836 337.398C3.58629 340.21 2.0045 344.023 2 348V537C2.0045 540.977 3.58629 544.79 6.39836 547.602C9.21043 550.414 13.0231 551.995 17 552H354C357.977 551.995 361.79 550.414 364.602 547.602C367.414 544.79 368.996 540.977 369 537V348C368.996 344.023 367.414 340.21 364.602 337.398C361.79 334.586 357.977 333.004 354 333H17Z" fill="#3F3D56"/>
<path d="M268.6 406.313H203.6C202.407 406.313 201.262 406.787 200.418 407.631C199.574 408.475 199.1 409.62 199.1 410.813C199.1 412.006 199.574 413.151 200.418 413.995C201.262 414.839 202.407 415.313 203.6 415.313H268.6C269.794 415.313 270.938 414.839 271.782 413.995C272.626 413.151 273.1 412.006 273.1 410.813C273.1 409.62 272.626 408.475 271.782 407.631C270.938 406.787 269.794 406.313 268.6 406.313Z" fill="#3F3D56"/>
<path d="M331.96 434.813H202.74C200.73 434.813 199.1 436.833 199.1 439.313C199.1 441.793 200.73 443.813 202.74 443.813H331.96C333.97 443.813 335.6 441.793 335.6 439.313C335.6 436.833 333.97 434.813 331.96 434.813Z" fill="#3F3D56"/>
<path d="M331.96 464H202.74C200.73 464 199.1 466.02 199.1 468.5C199.1 470.98 200.73 473 202.74 473H331.96C333.97 473 335.6 470.98 335.6 468.5C335.6 466.02 333.97 464 331.96 464Z" fill="#3F3D56"/>
<path d="M154 512.5H42C39.2162 512.497 36.5473 511.39 34.5789 509.421C32.6104 507.453 31.5032 504.784 31.5 502V377C31.5032 374.216 32.6104 371.547 34.5789 369.579C36.5473 367.61 39.2162 366.503 42 366.5H154C156.784 366.503 159.453 367.61 161.421 369.579C163.39 371.547 164.497 374.216 164.5 377V502C164.497 504.784 163.39 507.453 161.421 509.421C159.453 511.39 156.784 512.497 154 512.5Z" fill="#00ADB5"/>
<path d="M362 370C381.882 370 398 353.882 398 334C398 314.118 381.882 298 362 298C342.118 298 326 314.118 326 334C326 353.882 342.118 370 362 370Z" fill="#00ADB5"/>
<path d="M359.976 348.573C358.995 348.575 358.039 348.258 357.254 347.669L357.205 347.632L346.951 339.782C346.475 339.419 346.075 338.965 345.775 338.447C345.474 337.929 345.279 337.356 345.2 336.763C345.12 336.169 345.159 335.565 345.313 334.987C345.468 334.408 345.735 333.865 346.099 333.39C346.463 332.914 346.918 332.515 347.436 332.216C347.955 331.916 348.528 331.722 349.122 331.644C349.715 331.566 350.319 331.606 350.897 331.761C351.476 331.917 352.018 332.185 352.493 332.55L359.134 337.642L374.829 317.174C375.193 316.699 375.647 316.301 376.165 316.002C376.683 315.702 377.255 315.508 377.848 315.43C378.441 315.352 379.043 315.391 379.621 315.545C380.199 315.7 380.741 315.967 381.216 316.331L381.118 316.464L381.218 316.333C382.176 317.069 382.802 318.155 382.96 319.352C383.119 320.549 382.795 321.761 382.061 322.72L363.601 346.796C363.174 347.35 362.625 347.799 361.996 348.108C361.368 348.416 360.676 348.575 359.976 348.573Z" fill="white"/>
<path d="M832 554H495C490.493 553.995 486.172 552.202 482.985 549.015C479.798 545.828 478.005 541.507 478 537V348C478.005 343.493 479.798 339.172 482.985 335.985C486.172 332.798 490.493 331.005 495 331H832C836.507 331.005 840.828 332.798 844.015 335.985C847.202 339.172 848.995 343.493 849 348V537C848.995 541.507 847.202 545.828 844.015 549.015C840.828 552.202 836.507 553.995 832 554ZM495 333C491.023 333.004 487.21 334.586 484.398 337.398C481.586 340.21 480.004 344.023 480 348V537C480.004 540.977 481.586 544.79 484.398 547.602C487.21 550.414 491.023 551.995 495 552H832C835.977 551.995 839.79 550.414 842.602 547.602C845.414 544.79 846.996 540.977 847 537V348C846.996 344.023 845.414 340.21 842.602 337.398C839.79 334.586 835.977 333.004 832 333H495Z" fill="#3F3D56"/>
<path d="M746.6 406.313H681.6C680.407 406.313 679.262 406.787 678.418 407.631C677.574 408.475 677.1 409.62 677.1 410.813C677.1 412.006 677.574 413.151 678.418 413.995C679.262 414.839 680.407 415.313 681.6 415.313H746.6C747.794 415.313 748.938 414.839 749.782 413.995C750.626 413.151 751.1 412.006 751.1 410.813C751.1 409.62 750.626 408.475 749.782 407.631C748.938 406.787 747.794 406.313 746.6 406.313Z" fill="#3F3D56"/>
<path d="M809.96 434.813H680.74C678.73 434.813 677.1 436.833 677.1 439.313C677.1 441.793 678.73 443.813 680.74 443.813H809.96C811.97 443.813 813.6 441.793 813.6 439.313C813.6 436.833 811.97 434.813 809.96 434.813Z" fill="#3F3D56"/>
<path d="M809.96 464H680.74C678.73 464 677.1 466.02 677.1 468.5C677.1 470.98 678.73 473 680.74 473H809.96C811.97 473 813.6 470.98 813.6 468.5C813.6 466.02 811.97 464 809.96 464Z" fill="#3F3D56"/>
<path d="M632 512.5H520C517.216 512.497 514.547 511.39 512.579 509.421C510.61 507.453 509.503 504.784 509.5 502V377C509.503 374.216 510.61 371.547 512.579 369.579C514.547 367.61 517.216 366.503 520 366.5H632C634.784 366.503 637.453 367.61 639.421 369.579C641.39 371.547 642.497 374.216 642.5 377V502C642.497 504.784 641.39 507.453 639.421 509.421C637.453 511.39 634.784 512.497 632 512.5Z" fill="#00ADB5"/>
<path d="M840 370C859.882 370 876 353.882 876 334C876 314.118 859.882 298 840 298C820.118 298 804 314.118 804 334C804 353.882 820.118 370 840 370Z" fill="#00ADB5"/>
<path d="M837.976 348.573C836.995 348.575 836.039 348.258 835.254 347.669L835.205 347.632L824.951 339.782C824.475 339.419 824.075 338.965 823.775 338.447C823.474 337.929 823.279 337.356 823.2 336.763C823.12 336.169 823.159 335.565 823.313 334.987C823.468 334.408 823.735 333.865 824.099 333.39C824.463 332.914 824.918 332.515 825.436 332.216C825.955 331.916 826.528 331.722 827.122 331.644C827.715 331.566 828.319 331.606 828.897 331.761C829.476 331.917 830.018 332.185 830.493 332.55L837.134 337.642L852.829 317.174C853.193 316.699 853.647 316.301 854.165 316.002C854.683 315.702 855.255 315.508 855.848 315.43C856.441 315.352 857.043 315.391 857.621 315.545C858.199 315.7 858.741 315.967 859.216 316.331L859.118 316.464L859.218 316.333C860.176 317.069 860.802 318.155 860.96 319.352C861.119 320.549 860.795 321.761 860.061 322.72L841.601 346.796C841.174 347.35 840.625 347.799 839.996 348.108C839.368 348.416 838.676 348.575 837.976 348.573Z" fill="white"/>
<path d="M579.703 189.663C577.181 189.593 574.042 189.504 571.625 187.739C570.905 187.191 570.313 186.493 569.892 185.693C569.47 184.892 569.228 184.01 569.184 183.106C569.14 182.464 569.245 181.821 569.492 181.226C569.738 180.632 570.118 180.102 570.603 179.679C571.323 179.141 572.167 178.792 573.057 178.664C573.947 178.536 574.854 178.633 575.697 178.946L573.638 163.898L575.15 163.691L577.57 181.381L576.308 180.802C574.845 180.131 572.836 179.79 571.588 180.844C571.281 181.12 571.042 181.463 570.89 181.845C570.737 182.228 570.675 182.641 570.708 183.052C570.745 183.725 570.927 184.381 571.24 184.977C571.554 185.573 571.992 186.095 572.525 186.507C574.406 187.881 576.908 188.058 579.746 188.138L579.703 189.663Z" fill="white"/>
<path d="M566.163 165.196H557.946V166.721H566.163V165.196Z" fill="white"/>
<path d="M592.099 165.196H583.882V166.721H592.099V165.196Z" fill="white"/>
<path d="M543.67 144.128C537.053 143.374 531.929 137.034 531.366 130.601C530.696 122.948 535.153 115.68 541.267 111.385C547.661 106.894 555.628 105.019 563.336 104.606C578.373 103.858 593.15 108.728 604.795 118.271C610.57 123.068 615.965 129.179 618.009 136.559C619.784 142.969 618.34 150.231 613.184 154.72C611.909 155.82 610.419 156.644 608.81 157.14C607.2 157.636 605.505 157.792 603.832 157.6C599.832 157.184 596.141 155.081 592.946 152.758C586.731 148.24 581.629 141.945 574.058 139.584C568.506 137.852 561.302 139.376 557.909 144.397C557.139 145.546 556.64 146.855 556.45 148.225C556.38 148.517 556.424 148.825 556.572 149.087C556.72 149.348 556.963 149.543 557.249 149.633C557.542 149.711 557.854 149.672 558.117 149.522C558.381 149.372 558.575 149.125 558.657 148.833C559.548 142.51 567.323 140.15 572.779 141.595C580.734 143.7 586.074 150.799 592.601 155.309C595.98 157.828 599.96 159.417 604.145 159.917C607.773 160.201 611.374 159.095 614.217 156.822C619.793 152.419 621.925 144.846 620.692 138.028C619.264 130.133 613.95 123.366 608.119 118.127C596.298 107.618 580.952 101.948 565.138 102.249C557.072 102.434 548.656 104.099 541.708 108.362C534.967 112.497 529.758 119.416 529.077 127.457C528.478 134.536 532.275 141.939 538.794 145.04C540.331 145.768 541.98 146.233 543.67 146.417C545.131 146.583 545.119 144.293 543.67 144.128H543.67Z" fill="white"/>
<path d="M579.703 483.663C577.181 483.593 574.042 483.504 571.625 481.739C570.905 481.191 570.313 480.493 569.892 479.693C569.47 478.892 569.228 478.01 569.184 477.106C569.14 476.464 569.245 475.821 569.492 475.226C569.738 474.632 570.118 474.102 570.603 473.679C571.323 473.141 572.167 472.792 573.057 472.664C573.947 472.536 574.854 472.633 575.697 472.946L573.638 457.898L575.15 457.691L577.57 475.381L576.308 474.802C574.845 474.131 572.836 473.79 571.588 474.844C571.281 475.12 571.042 475.463 570.89 475.845C570.737 476.228 570.675 476.641 570.708 477.052C570.745 477.725 570.927 478.381 571.24 478.977C571.554 479.573 571.992 480.095 572.525 480.507C574.406 481.881 576.908 482.058 579.746 482.138L579.703 483.663Z" fill="white"/>
<path d="M566.163 459.196H557.946V460.721H566.163V459.196Z" fill="white"/>
<path d="M592.099 459.196H583.882V460.721H592.099V459.196Z" fill="white"/>
<path d="M543.67 438.128C537.053 437.373 531.929 431.034 531.366 424.601C530.696 416.948 535.153 409.679 541.267 405.385C547.661 400.894 555.628 399.019 563.336 398.606C578.373 397.858 593.15 402.728 604.795 412.271C610.57 417.068 615.965 423.179 618.009 430.559C619.784 436.969 618.34 444.231 613.184 448.72C611.909 449.82 610.419 450.644 608.81 451.14C607.2 451.635 605.505 451.792 603.832 451.6C599.832 451.184 596.141 449.081 592.946 446.758C586.731 442.24 581.629 435.945 574.058 433.583C568.506 431.852 561.302 433.376 557.909 438.397C557.139 439.546 556.64 440.855 556.45 442.225C556.38 442.517 556.424 442.825 556.572 443.086C556.72 443.348 556.963 443.543 557.249 443.633C557.542 443.711 557.854 443.672 558.117 443.522C558.381 443.372 558.575 443.125 558.657 442.833C559.548 436.51 567.323 434.15 572.779 435.594C580.734 437.7 586.074 444.799 592.601 449.309C595.98 451.828 599.96 453.417 604.145 453.917C607.773 454.201 611.374 453.095 614.217 450.822C619.793 446.419 621.925 438.846 620.692 432.028C619.264 424.133 613.95 417.366 608.119 412.127C596.298 401.618 580.952 395.948 565.138 396.249C557.072 396.434 548.656 398.099 541.708 402.362C534.967 406.497 529.758 413.416 529.077 421.457C528.478 428.536 532.275 435.939 538.794 439.04C540.331 439.768 541.98 440.233 543.67 440.417C545.131 440.583 545.119 438.293 543.67 438.128H543.67Z" fill="white"/>
<path d="M96.703 483.663C94.1808 483.593 91.0417 483.504 88.6249 481.739C87.9049 481.191 87.3133 480.493 86.8916 479.693C86.47 478.892 86.2283 478.01 86.1837 477.106C86.14 476.464 86.2454 475.821 86.4916 475.226C86.7377 474.632 87.1181 474.102 87.6028 473.679C88.3233 473.141 89.1669 472.792 90.0567 472.664C90.9466 472.536 91.8544 472.633 92.6972 472.946L90.6382 457.898L92.1497 457.691L94.5704 475.381L93.3083 474.802C91.8448 474.131 89.836 473.79 88.5877 474.844C88.2812 475.12 88.0424 475.463 87.8899 475.845C87.7374 476.228 87.6754 476.641 87.7085 477.052C87.7454 477.725 87.9267 478.381 88.2402 478.977C88.5536 479.573 88.9918 480.095 89.5248 480.507C91.4056 481.881 93.9078 482.058 96.7458 482.138L96.703 483.663Z" fill="white"/>
<path d="M83.1631 459.196H74.9461V460.721H83.1631V459.196Z" fill="white"/>
<path d="M109.099 459.196H100.882V460.721H109.099V459.196Z" fill="white"/>
<path d="M60.6703 438.128C54.0533 437.373 48.9286 431.034 48.3657 424.601C47.6961 416.948 52.1529 409.679 58.2672 405.385C64.6614 400.894 72.628 399.019 80.336 398.606C95.3726 397.858 110.15 402.728 121.795 412.271C127.57 417.068 132.964 423.179 135.009 430.559C136.784 436.969 135.34 444.231 130.184 448.72C128.909 449.82 127.419 450.644 125.81 451.14C124.2 451.635 122.505 451.792 120.832 451.6C116.832 451.184 113.141 449.081 109.946 446.758C103.731 442.24 98.6293 435.945 91.0578 433.583C85.5062 431.852 78.3018 433.376 74.9091 438.397C74.1393 439.546 73.6404 440.855 73.4501 442.225C73.38 442.517 73.4236 442.825 73.5719 443.086C73.7203 443.348 73.9624 443.543 74.2493 443.633C74.5419 443.711 74.8537 443.672 75.1172 443.522C75.3807 443.372 75.5746 443.125 75.6569 442.833C76.5475 436.51 84.3228 434.15 89.7789 435.594C97.7341 437.7 103.074 444.799 109.601 449.309C112.98 451.828 116.96 453.417 121.145 453.917C124.773 454.201 128.374 453.095 131.217 450.822C136.793 446.419 138.925 438.846 137.692 432.028C136.264 424.133 130.95 417.366 125.119 412.127C113.298 401.618 97.952 395.948 82.1382 396.249C74.0723 396.434 65.6563 398.099 58.7076 402.362C51.9674 406.497 46.7578 413.416 46.0769 421.457C45.4776 428.536 49.2752 435.939 55.7942 439.04C57.3312 439.768 58.9794 440.233 60.6703 440.417C62.1311 440.583 62.1192 438.293 60.6703 438.128H60.6703Z" fill="white"/>
<path d="M96.703 191.663C94.1808 191.593 91.0417 191.504 88.6249 189.739C87.9049 189.191 87.3133 188.493 86.8916 187.693C86.47 186.892 86.2283 186.01 86.1837 185.106C86.14 184.464 86.2454 183.821 86.4916 183.226C86.7377 182.632 87.1181 182.102 87.6028 181.679C88.3233 181.141 89.1669 180.792 90.0567 180.664C90.9466 180.536 91.8544 180.633 92.6972 180.946L90.6382 165.898L92.1497 165.691L94.5704 183.381L93.3083 182.802C91.8448 182.131 89.836 181.79 88.5877 182.844C88.2812 183.12 88.0424 183.463 87.8899 183.845C87.7374 184.228 87.6754 184.641 87.7085 185.052C87.7454 185.725 87.9267 186.381 88.2402 186.977C88.5536 187.573 88.9918 188.095 89.5248 188.507C91.4056 189.881 93.9078 190.058 96.7458 190.138L96.703 191.663Z" fill="#3F3D56"/>
<path d="M83.1631 167.196H74.9461V168.721H83.1631V167.196Z" fill="#3F3D56"/>
<path d="M109.099 167.196H100.882V168.721H109.099V167.196Z" fill="#3F3D56"/>
<path d="M60.6703 146.128C54.0533 145.374 48.9286 139.034 48.3657 132.601C47.6961 124.948 52.1529 117.68 58.2672 113.385C64.6614 108.894 72.628 107.019 80.336 106.606C95.3726 105.858 110.15 110.728 121.795 120.271C127.57 125.068 132.964 131.179 135.009 138.559C136.784 144.969 135.34 152.231 130.184 156.72C128.909 157.82 127.419 158.644 125.81 159.14C124.2 159.636 122.505 159.792 120.832 159.6C116.832 159.184 113.141 157.081 109.946 154.758C103.731 150.24 98.6293 143.945 91.0578 141.584C85.5062 139.852 78.3018 141.376 74.9091 146.397C74.1393 147.546 73.6404 148.855 73.4501 150.225C73.38 150.517 73.4236 150.825 73.5719 151.087C73.7203 151.348 73.9624 151.543 74.2493 151.633C74.5419 151.711 74.8537 151.672 75.1172 151.522C75.3807 151.372 75.5746 151.125 75.6569 150.833C76.5475 144.51 84.3228 142.15 89.7789 143.595C97.7341 145.7 103.074 152.799 109.601 157.309C112.98 159.828 116.96 161.417 121.145 161.917C124.773 162.201 128.374 161.095 131.217 158.822C136.793 154.419 138.925 146.846 137.692 140.028C136.264 132.133 130.95 125.366 125.119 120.127C113.298 109.618 97.952 103.948 82.1382 104.249C74.0723 104.434 65.6563 106.099 58.7076 110.362C51.9674 114.497 46.7578 121.416 46.0769 129.457C45.4776 136.536 49.2752 143.939 55.7942 147.04C57.3312 147.768 58.9794 148.233 60.6703 148.417C62.1311 148.583 62.1192 146.293 60.6703 146.128H60.6703Z" fill="#3F3D56"/>
</svg>
