<svg xmlns="http://www.w3.org/2000/svg" width="965" height="699" fill="none" viewBox="0 0 965 699"><g filter="url(#filter0_d)" opacity=".2"><path fill="#00ADB5" d="M950.248 316.461C950.087 317.412 949.925 318.363 949.747 319.314C943.986 351.697 934.579 382.917 920.592 411.581C920.133 412.532 919.666 413.483 919.19 414.434C910.214 432.508 899.191 449.492 886.338 465.055C879.37 473.452 871.773 481.425 862.741 487.181C850.079 495.247 835.277 498.525 820.729 501.208C805.612 504.001 790.299 506.302 775.02 508.849C769.605 509.732 764.223 510.658 758.875 511.626C744.115 514.292 729.465 517.374 715.164 521.458C697.48 526.552 680.324 533.115 664.179 542.412C662.887 543.148 661.609 543.904 660.346 544.679C659.08 545.444 657.797 546.225 656.565 547.023C655.333 547.821 654.092 548.611 652.868 549.417L650.982 550.691C650.362 551.098 649.75 551.54 649.138 551.947C647.319 553.187 645.526 554.495 643.733 555.751L643.665 555.802C642.484 556.651 641.312 557.5 640.139 558.349C633.519 563.248 627.044 568.377 620.595 573.522L616.524 576.774C614.423 578.438 612.321 580.099 610.219 581.758C608.987 582.734 607.738 583.702 606.497 584.67C605.597 585.375 604.704 586.079 603.787 586.776C599.189 590.316 594.533 593.78 589.783 597.092C588.652 597.881 587.505 598.671 586.384 599.444C576.875 605.942 566.761 611.51 556.183 616.068L556.047 616.128C550.837 618.347 545.476 620.194 540.004 621.655C536.868 622.504 533.733 623.175 530.555 623.701C522.088 625.164 513.447 625.313 504.935 624.143C488.203 621.774 472.525 613.954 455.836 611.339C421.404 605.998 387.966 623.226 355.565 636.751C347.634 640.068 339.615 643.182 331.508 646.091C326.138 648.027 320.742 649.869 315.321 651.618C282.292 662.292 248.258 669.567 213.749 673.329C199.661 674.866 184.968 675.596 170.624 674.492C165.208 674.094 159.818 673.394 154.479 672.395C136.32 668.999 119.367 661.79 105.712 648.621C94.3675 637.847 86.3628 623.761 80.2616 609.064C77.8086 603.16 75.6474 597.12 73.778 590.945C70.8395 581.266 68.6325 571.381 67.1754 561.372C66.844 559.113 66.5466 556.846 66.3256 554.579C65.8837 550.691 65.5552 546.785 65.3399 542.862C64.1501 522.014 66.1881 501.108 71.3817 480.881C77.1685 458.475 86.8217 437.019 91.0705 414.4C91.2489 413.449 91.4104 412.498 91.5718 411.547C92.1383 408.151 92.5689 404.692 92.8634 401.172C95.0048 373.509 86.7197 346.433 80.1766 319.314C79.9472 318.363 79.7177 317.412 79.4968 316.461C78.7887 313.455 78.1174 310.447 77.4829 307.436C71.4241 278.754 69.7671 248.061 75.1461 219.439C75.316 218.488 75.5115 217.529 75.7069 216.586C79.3354 198.858 85.7425 181.996 95.5572 166.976C105.627 151.557 118.849 138.728 132.946 127.452C139.829 121.962 146.947 116.825 154.301 112.042C159.586 108.611 164.968 105.365 170.446 102.303C214.71 77.6803 265.211 65.6491 315.142 68.3407C317.788 68.4765 320.428 68.6576 323.062 68.884C325.826 69.1218 328.582 69.4048 331.33 69.7331C363.476 73.4435 394.756 82.6388 425.848 92.7001C436.266 96.0964 446.659 99.4926 457.051 102.889C461.674 104.395 466.294 105.88 470.91 107.346C493.556 114.487 516.576 120.931 539.809 125.788C545.196 126.92 550.578 127.953 555.954 128.887C574.644 132.232 593.559 134.179 612.539 134.712C619.904 134.893 627.268 134.816 634.633 134.482C638.355 134.312 642.079 134.063 645.807 133.735C684.309 130.441 721.435 119.395 758.714 109.019C764.101 107.516 769.497 106.022 774.859 104.578C781.946 102.677 789.041 100.834 796.162 99.136C840.503 88.4973 880.016 94.6105 921.238 116.55C930.585 121.534 939.932 127.545 945.711 136.851C951.489 146.157 952.891 157.679 953.962 168.767C955.474 184.543 956.511 200.539 956.842 216.603C956.842 217.554 956.842 218.505 956.902 219.456C957.65 251.984 955.67 284.757 950.248 316.461Z"/></g><path fill="#00ADB5" d="M656.157 411.581H653.259V412.846V414.434H656.539L656.157 411.581ZM623.314 411.581C623.31 411.603 623.31 411.626 623.314 411.649L623.059 414.009V414.222V414.434H648.212V414.264L650.005 411.581H623.314ZM556.056 411.581V319.314H584.947C584.642 319.059 584.327 318.804 584.004 318.567L583.579 318.244C583.401 318.1 583.222 317.964 583.036 317.836C582.849 317.709 582.407 317.386 582.075 317.166C581.744 316.945 581.54 316.801 581.226 316.622L581.03 316.495H580.988H556.056V311.443L555.385 311.766L554.671 312.165H554.62L554.467 312.258L554.025 312.547C553.872 312.64 553.719 312.734 553.575 312.835C553.133 313.133 552.725 313.455 552.257 313.786L551.833 314.126C551.544 314.347 551.272 314.576 550.983 314.805C549.853 315.731 548.739 316.699 547.584 317.59C547.295 317.819 547.006 318.04 546.734 318.252C546.116 318.705 545.475 319.124 544.814 319.509C544.539 319.68 544.255 319.836 543.964 319.976L543.488 320.197L543.055 320.384C542.034 320.814 540.976 321.149 539.894 321.385V411.581H496.556C496.556 411.683 496.616 411.776 496.641 411.878C496.879 412.727 497.117 413.576 497.346 414.425H539.902V513.332H540.565L541.321 513.383L542.698 513.485L544.924 513.706L545.927 513.825L547.031 513.96H547.193C547.83 514.045 548.476 514.147 549.13 514.249L549.547 514.317L550.482 514.47L551.824 514.708L555.045 514.538L555.487 514.631C555.665 514.631 555.843 514.699 556.03 514.742V414.434H622.999V414.222V414.009L623.254 411.649C623.25 411.626 623.25 411.603 623.254 411.581H556.056ZM656.157 411.581H653.259V412.846V414.434H656.539L656.157 411.581ZM621.504 411.581L621.215 414.434H649.197L651.101 411.581H621.504ZM556.073 411.581V319.314H584.964C584.659 319.059 584.344 318.804 584.021 318.567L583.596 318.244C583.418 318.1 583.239 317.964 583.053 317.836C582.866 317.709 582.424 317.386 582.092 317.166C581.761 316.945 581.557 316.801 581.243 316.622L581.047 316.495H580.988H556.056V311.443L555.385 311.766L554.671 312.165H554.62L554.467 312.258L554.025 312.547C553.872 312.64 553.719 312.734 553.575 312.835C553.133 313.133 552.725 313.455 552.257 313.786L551.833 314.126C551.544 314.347 551.272 314.576 550.983 314.805C549.853 315.731 548.739 316.699 547.584 317.59C547.295 317.819 547.006 318.04 546.734 318.252C546.116 318.705 545.475 319.124 544.814 319.509C544.539 319.68 544.255 319.836 543.964 319.976L543.488 320.197L543.055 320.384C542.034 320.814 540.976 321.149 539.894 321.385V411.581H496.556C496.556 411.683 496.616 411.776 496.641 411.878C496.879 412.727 497.125 413.576 497.355 414.425H539.902V513.324L540.565 513.366L541.321 513.417L542.698 513.519L544.924 513.74L545.927 513.859L547.031 513.994H547.193C547.83 514.079 548.476 514.181 549.13 514.283L549.547 514.351L550.482 514.504L551.824 514.742L555.045 514.572L555.487 514.665C555.665 514.665 555.843 514.733 556.03 514.776V414.434H621.215L621.521 411.581H556.073ZM775.021 219.439H957.063C957.063 218.488 957.063 217.537 957.004 216.586H775.021V104.561C769.616 106.005 764.22 107.499 758.875 109.002V216.586H560.882L560.381 216.043L561.137 215.194L634.777 134.44C627.413 134.779 620.048 134.856 612.683 134.669L556.056 196.735V128.87C550.651 127.936 545.27 126.903 539.911 125.771V193.611L457.119 102.872C446.727 99.4756 436.334 96.0199 425.916 92.6831L538.449 216.043L537.948 216.586H331.398V69.6991C328.645 69.3878 325.889 69.1048 323.13 68.85C320.496 68.618 317.856 68.4368 315.21 68.3066V216.586H170.514V102.303C165.025 105.36 159.643 108.606 154.369 112.042V216.586H75.6729C75.4775 217.529 75.282 218.488 75.1121 219.439H154.301V316.461H79.4968C79.7177 317.412 79.9472 318.363 80.1766 319.314H154.335V411.581H91.5463C91.3849 412.532 91.2234 413.483 91.045 414.434H154.335V672.42C159.673 673.42 165.063 674.12 170.48 674.517V414.434H315.21V651.644C320.637 649.883 326.033 648.041 331.398 646.116V414.434H539.877V621.689C545.348 620.228 550.71 618.381 555.92 616.162L556.056 616.102V414.434H758.824V511.626C764.2 510.658 769.582 509.732 774.969 508.849V414.434H919.147C919.623 413.483 920.091 412.532 920.549 411.581H775.021V319.314H949.755C949.934 318.363 950.095 317.412 950.257 316.461H775.021V219.439ZM170.522 219.439H315.21V316.461H170.514L170.522 219.439ZM170.522 411.581V319.314H315.21V411.581H170.522ZM331.406 219.439H539.877V316.461H331.398L331.406 219.439ZM331.406 411.581V319.314H539.877V411.581H331.406ZM758.833 411.581H556.056V319.314H758.824L758.833 411.581ZM758.833 316.486H556.056V222.037L558.903 219.439H758.824L758.833 316.486ZM623.322 411.581C623.318 411.603 623.318 411.626 623.322 411.649L623.067 414.009V414.222V414.434H648.22V414.264L650.013 411.581H623.322ZM656.165 411.581H653.268V412.846V414.434H656.548L656.165 411.581ZM556.064 411.581V319.314H584.956C584.65 319.059 584.336 318.804 584.013 318.567L583.588 318.244C583.409 318.1 583.231 317.964 583.044 317.836C582.857 317.709 582.415 317.386 582.084 317.166C581.752 316.945 581.548 316.801 581.234 316.622L581.039 316.495H580.996H556.056V311.443L555.385 311.766L554.671 312.165H554.62L554.467 312.258L554.025 312.547C553.872 312.64 553.719 312.734 553.575 312.835C553.133 313.133 552.725 313.455 552.257 313.786L551.833 314.126C551.544 314.347 551.272 314.576 550.983 314.805C549.853 315.731 548.739 316.699 547.584 317.59C547.295 317.819 547.006 318.04 546.734 318.252C546.116 318.705 545.475 319.124 544.814 319.509C544.539 319.68 544.255 319.836 543.964 319.976L543.488 320.197L543.055 320.384C542.034 320.814 540.976 321.149 539.894 321.385V411.581H496.556C496.556 411.683 496.616 411.776 496.641 411.878C496.879 412.727 497.117 413.576 497.346 414.425H539.902V513.332H540.565L541.321 513.383L542.698 513.485L544.924 513.706L545.927 513.825L547.031 513.96H547.193C547.83 514.045 548.476 514.147 549.13 514.249L549.547 514.317L550.482 514.47L551.824 514.708L555.045 514.538L555.487 514.631C555.665 514.631 555.843 514.699 556.03 514.742V414.434H622.999V414.222V414.009L623.254 411.649C623.25 411.626 623.25 411.603 623.254 411.581H556.064Z" opacity=".2"/><path fill="#00ADB5" d="M240.083 152.635H241.375C240.933 152.379 240.561 152.018 240.293 151.584C240.024 151.15 239.868 150.657 239.837 150.147C239.837 148.177 242.25 146.573 245.199 146.573H282.715C285.664 146.573 288.077 148.177 288.077 150.147C288.077 152.109 285.664 153.722 282.715 153.722H281.466C281.906 153.979 282.276 154.341 282.543 154.774C282.809 155.208 282.965 155.701 282.996 156.21C282.996 157.908 281.245 159.3 278.9 159.682H289.7C292.641 159.682 295.054 161.287 295.054 163.257C295.054 165.227 292.641 166.823 289.7 166.823H252.141C249.201 166.823 246.788 165.218 246.788 163.257C246.788 161.559 248.538 160.166 250.884 159.784H240.083C237.143 159.784 234.73 158.179 234.73 156.21C234.73 154.24 237.126 152.635 240.083 152.635Z" opacity=".1"/><path fill="#00ADB5" d="M646.708 186.657H647.965C647.523 186.4 647.15 186.038 646.882 185.602C646.614 185.167 646.457 184.671 646.427 184.161C646.427 182.199 648.84 180.595 651.789 180.595H689.306C692.254 180.595 694.668 182.199 694.668 184.161C694.668 186.131 692.254 187.735 689.306 187.735H688.057C688.497 187.994 688.867 188.357 689.134 188.792C689.401 189.228 689.556 189.722 689.586 190.232C689.586 191.93 687.836 193.314 685.49 193.696H696.291C699.231 193.696 701.644 195.309 701.644 197.27C701.644 199.232 699.231 200.845 696.291 200.845H658.783C655.842 200.845 653.429 199.24 653.429 197.27C653.429 195.572 655.18 194.18 657.525 193.806H646.708C643.767 193.806 641.354 192.193 641.354 190.232C641.354 188.27 643.784 186.657 646.708 186.657Z" opacity=".1"/><path fill="#00ADB5" d="M182.529 332.245H183.787C183.347 331.987 182.977 331.624 182.71 331.188C182.443 330.753 182.288 330.258 182.258 329.749C182.258 327.788 184.662 326.174 187.611 326.174H225.128C228.076 326.174 230.49 327.788 230.49 329.749C230.49 331.719 228.076 333.323 225.128 333.323H223.879C224.319 333.582 224.689 333.945 224.956 334.38C225.223 334.816 225.378 335.31 225.408 335.82C225.408 337.518 223.658 338.902 221.312 339.284H232.113C235.061 339.284 237.466 340.889 237.466 342.858C237.466 344.828 235.061 346.433 232.113 346.433H194.587C191.647 346.433 189.234 344.82 189.234 342.858C189.234 341.16 190.993 339.768 193.33 339.386H182.529C179.589 339.386 177.176 337.781 177.176 335.82C177.176 333.858 179.589 332.245 182.529 332.245Z" opacity=".1"/><path fill="#65617D" d="M616.422 576.808C614.321 578.472 612.219 580.133 610.117 581.792C608.885 582.768 607.636 583.736 606.395 584.704C605.494 585.409 604.602 586.113 603.685 586.81C599.087 590.35 594.431 593.814 589.681 597.126C588.55 597.915 587.403 598.705 586.282 599.478C576.773 605.976 566.659 611.543 556.081 616.102L555.945 616.162V576.808H616.422Z"/><path fill="url(#paint0_linear)" d="M710.983 422.143L711.935 392.808C711.365 392.367 710.788 391.959 710.235 391.552C710.47 382.805 709.97 374.055 708.74 365.392C704.899 336.057 679.958 335.42 672.923 341.474C671.99 342.278 670.973 342.979 669.889 343.563C670.526 339.377 671.316 335.183 671.886 331.039C674.962 308.692 670.186 283.551 652.834 269.109C645.569 263.072 636.689 259.362 628.71 254.31C614.417 245.301 603.124 231.997 588.669 223.226C574.215 214.455 553.915 211.169 541.304 222.445C536.418 226.809 533.265 232.863 528.252 237.074C518.905 244.919 504.331 245.437 496.174 254.199C495.766 254.641 495.375 255.091 495.001 255.566C488.203 264.278 490.064 276.632 492.231 287.44C494.84 300.448 493.76 310.874 504.926 314.61C504.969 315.128 505.003 315.646 505.062 316.155C505.971 324.135 508.613 331.819 512.805 338.671C516.997 345.524 522.638 351.377 529.331 355.823L527.521 356.469C522.695 358.167 518.352 359.814 515.574 360.943C505.377 365.095 483.912 370.503 483.912 370.503C483.912 370.503 483.402 376.617 483.495 385.634C476.34 393.403 464.401 407.055 460.892 415.147C455.793 426.949 426.987 460.75 419.313 465.853C411.64 470.956 403.321 477.009 403.321 477.009C403.321 477.009 391.17 483.708 385.417 484.345C381.431 484.787 369.101 482.426 369.101 482.426C369.101 482.426 319.858 422.143 323.053 468.4C326.248 514.657 365.584 516.227 365.584 516.227L405.242 515.591C405.242 515.591 426.672 518.46 436.266 510.496C444.458 503.704 486.911 466.439 500.55 449.534C500.864 449.882 501.179 450.222 501.51 450.553C501.51 450.553 506.94 443.539 507.586 450.553C508.232 457.566 504.059 460.741 506.303 463.289C508.546 465.836 515.259 474.768 515.574 478.274C515.888 481.781 506.626 496.105 522.287 506.973C522.533 507.142 522.797 507.304 523.085 507.465C525.881 513.825 534.77 520.048 534.77 520.048L582.738 519.411L673.245 526.425C673.245 526.425 675.939 524.056 679.585 520.184C684.454 524.65 691.209 528.479 698.823 526.127C698.823 526.127 709.7 513.06 710.023 504.451C710.023 504.451 702.987 486.273 699.826 480.856C696.665 475.439 702.069 463.637 702.069 463.637C702.069 463.637 705.901 452.157 708.145 452.157C710.388 452.157 708.782 444.516 708.782 444.516C707.934 443.267 707.403 441.83 707.236 440.33C707.069 438.83 707.27 437.311 707.822 435.906C709.7 431.075 710.983 422.143 710.983 422.143Z"/><path fill="#EE8E9E" d="M656.726 415.538L653.327 419.511L639.595 435.491L621.657 436.577L592.944 438.343C592.944 438.343 554.229 391.73 561.503 381.584C564.146 377.924 564.579 373.093 564.052 368.534C563.984 367.905 563.891 367.277 563.78 366.657C562.91 361.833 561.389 357.149 559.259 352.733L560.211 352.3L560.823 352.02L594.677 336.584L603.056 332.763C603.473 335.07 604.247 337.299 605.35 339.369C605.512 339.691 605.69 340.014 605.877 340.32C617.425 359.423 654.457 347.341 654.457 347.341L656.726 415.538Z"/><path fill="#EE8E9E" d="M706.785 391.688C706.53 403.252 704.644 408.244 704.644 408.244L656.726 415.538L654.933 403.108L647.838 354.024L654.5 347.367C657.161 347.94 659.919 347.896 662.561 347.236C665.202 346.577 667.657 345.32 669.736 343.563C676.712 337.535 701.466 338.172 705.273 367.337C706.391 375.404 706.896 383.544 706.785 391.688Z"/><path fill="#DFE5EE" d="M695.441 527.138C695.441 527.138 706.224 514.139 706.547 505.58L695.755 487.504L686.238 477.315L668.461 511.6C668.461 511.6 680.205 531.893 695.441 527.138Z"/><path fill="#000" d="M695.441 527.138C695.441 527.138 706.224 514.139 706.547 505.58L695.755 487.504L686.238 477.315L668.461 511.6C668.461 511.6 680.205 531.893 695.441 527.138Z" opacity=".1"/><path fill="#D48A9B" d="M606.395 584.704C605.495 585.409 604.602 586.114 603.685 586.81C599.087 590.35 594.431 593.815 589.681 597.126C588.551 597.916 587.403 598.705 586.282 599.478H539.877H331.398H315.21L235.01 596.608L170.514 596.065L154.369 595.215L73.812 590.97C70.8608 581.284 68.6423 571.39 67.1754 561.372C66.844 559.114 66.5466 556.847 66.3256 554.58L154.335 559.453L170.48 560.362L315.176 568.428L331.364 569.328L539.843 580.96L555.886 581.86H556.022L606.395 584.704Z"/><path fill="#EFC6CD" d="M715.113 521.458C697.429 526.552 680.273 533.115 664.128 542.413C662.844 543.151 661.578 543.907 660.295 544.679C659.012 545.452 657.746 546.225 656.514 547.023C655.282 547.821 654.041 548.611 652.817 549.417L650.931 550.691L649.087 551.947C647.268 553.196 645.475 554.495 643.682 555.751L643.615 555.802C642.433 556.651 641.261 557.5 640.088 558.349C633.468 563.248 626.993 568.377 620.544 573.522C619.184 574.609 617.822 575.693 616.456 576.774L610.168 581.758C608.936 582.734 607.687 583.702 606.446 584.67C605.546 585.375 604.653 586.08 603.736 586.776L556.149 584.509H556.013L539.97 583.762L331.398 573.887L315.21 573.115L170.514 566.246L154.369 565.473L67.1754 561.372C66.844 559.114 66.5466 556.847 66.3256 554.58C65.8838 550.691 65.5552 546.785 65.3399 542.863L154.36 511.447L170.505 505.733L185.172 500.554L211.897 501.946L273.666 505.113L315.236 507.295L331.423 508.145L341.765 508.688L344.238 508.824L431.27 513.366L432.187 513.426L471.021 515.446H471.463H471.718L475.601 515.642L488.84 516.338L505.394 517.187L510.849 517.476L511.877 517.535L519.593 517.934L521.794 518.045L529.161 518.435L532.093 518.596H532.186H532.798L539.69 518.962L550.363 519.522H550.413L553.728 519.692H554.084L556.064 519.802L560.925 520.057L565.174 520.278H565.216L569.983 520.524H570.06L573.671 520.719L576.441 520.863L586.273 521.381L588.041 521.475H588.652L589.502 521.526L592.383 521.679L593.674 521.746L603.702 522.264H604.619L619.422 522.137H619.524L675.803 521.679H676.882H678.021H681.369L699.486 521.534H702.188L715.113 521.458Z"/><path fill="#00ADB5" d="M335.281 522.621L340.516 550.445L482.833 548.305C482.833 548.305 493.539 551.396 493.301 542.837C493.301 542.837 514.962 522.383 624.673 546.165L582.551 513.112L467.41 519.293L333.896 515.727L335.281 522.621Z"/><path fill="#fff" d="M337.898 515.964L342.895 546.165C342.895 546.165 465.26 542.599 484.498 545.928L469.959 518.342C469.959 518.342 395.971 511.447 337.898 515.964Z"/><path fill="#000" d="M337.898 515.964L342.895 546.165C342.895 546.165 465.26 542.599 484.498 545.928L469.959 518.342C469.959 518.342 395.971 511.447 337.898 515.964Z" opacity=".1"/><path fill="#fff" d="M339.725 515.854L344.654 543.941C344.654 543.941 465.464 540.63 484.498 543.72L470.163 518.07C470.163 518.07 397.067 511.651 339.725 515.854Z"/><path fill="#000" d="M341.943 516.72L346.744 542.99C346.744 542.99 464.903 539.891 483.555 542.786L469.534 518.783C469.534 518.783 398.036 512.755 341.943 516.72Z" opacity=".1"/><path fill="#fff" d="M342.895 515.761L347.722 542.081C347.722 542.081 465.88 538.982 484.532 541.878L470.477 517.849C470.477 517.849 398.987 511.829 342.895 515.761Z"/><path fill="#00ADB5" d="M259.296 444.329C259.296 444.329 265.482 452.404 256.45 464.605C247.417 476.806 239.956 487.096 242.973 494.704C242.973 494.704 256.569 472.051 267.7 471.779C278.832 471.507 271.507 457.948 259.296 444.329Z"/><path fill="#000" d="M259.296 444.329C259.84 445.112 260.266 445.97 260.562 446.876C271.388 459.612 277.158 471.499 266.749 471.754C257.053 472.025 245.428 489.346 242.641 493.727C242.737 494.056 242.848 494.387 242.972 494.721C242.972 494.721 256.569 472.068 267.7 471.796C278.832 471.524 271.507 457.948 259.296 444.329Z" opacity=".1"/><path fill="#FFD037" d="M270.793 454.628C270.793 457.464 270.471 459.774 270.08 459.774C269.689 459.774 269.366 457.464 269.366 454.628C269.366 451.792 269.765 453.117 270.156 453.117C270.547 453.117 270.793 451.784 270.793 454.628Z"/><path fill="#FFD037" d="M274.736 458.016C272.238 459.383 270.063 460.207 269.876 459.859C269.689 459.511 271.575 458.161 274.056 456.768C276.538 455.376 275.569 456.395 275.756 456.768C275.943 457.142 277.235 456.658 274.736 458.016Z"/><path fill="#00ADB5" d="M226.64 444.329C226.64 444.329 220.454 452.404 229.495 464.605C238.537 476.806 245.981 487.096 242.972 494.704C242.972 494.704 229.334 472.051 218.236 471.779C207.138 471.507 214.429 457.948 226.64 444.329Z"/><path fill="#000" d="M226.64 444.329C226.101 445.115 225.675 445.972 225.374 446.876C214.548 459.612 208.778 471.499 219.188 471.754C228.884 472.025 240.517 489.346 243.304 493.727C243.213 494.056 243.103 494.387 242.972 494.721C242.972 494.721 229.334 472.068 218.236 471.796C207.138 471.524 214.429 457.948 226.64 444.329Z" opacity=".1"/><path fill="#FFD037" d="M215.143 454.628C215.143 457.464 215.466 459.774 215.857 459.774C216.248 459.774 216.571 457.464 216.571 454.628C216.571 451.792 216.171 453.117 215.78 453.117C215.389 453.117 215.143 451.784 215.143 454.628Z"/><path fill="#FFD037" d="M211.2 458.016C213.698 459.383 215.882 460.207 216.069 459.859C216.256 459.511 214.37 458.161 211.888 456.768C209.407 455.376 210.376 456.395 210.189 456.768C210.002 457.142 208.702 456.658 211.2 458.016Z"/><path fill="#65617D" d="M276.215 483.81L275.909 486.358L275.476 489.915L275.297 491.401L274.864 494.967L274.677 496.453L274.235 500.019L269.289 540.536C268.847 544.153 262.933 546.972 255.795 546.972H230.116C222.978 546.972 217.072 544.153 216.63 540.536L211.676 500.019L211.243 496.453L211.064 494.967L210.622 491.401L210.444 489.915L210.011 486.358L209.696 483.81C209.45 481.764 212.645 480.041 216.69 480.041H269.255C273.292 480.041 276.495 481.764 276.215 483.81Z"/><path fill="#9D9CB5" d="M275.934 486.332L275.501 489.898H210.444L210.01 486.332H275.934Z"/><path fill="#9D9CB5" d="M275.323 491.384L274.889 494.95H211.064L210.622 491.384H275.323Z"/><path fill="#9D9CB5" d="M274.702 496.436L274.269 499.994H211.676L211.243 496.436H274.702Z"/><path fill="#EE8E9E" d="M354.639 480.533C354.639 480.533 338.136 464.681 338.774 485.288C339.411 505.895 354.639 480.533 354.639 480.533Z"/><path fill="#EE8E9E" d="M502.827 444.389C502.462 445.985 500.686 448.634 497.916 451.954C483.606 469.173 442.894 504.961 434.915 511.6C425.398 519.53 404.137 516.695 404.137 516.695L364.793 517.331C364.793 517.331 325.764 515.744 322.586 469.784C319.408 423.825 368.277 483.734 368.277 483.734C368.277 483.734 380.514 486.077 384.465 485.636C390.175 485.008 402.233 478.351 402.233 478.351C402.233 478.351 410.485 472.323 418.098 467.254C425.712 462.185 454.272 428.571 459.354 416.837C462.574 409.391 472.95 397.215 480.113 389.319C484.226 384.776 487.277 381.677 487.277 381.677C487.277 381.677 505.045 434.557 502.827 444.389Z"/><path fill="#000" d="M502.827 444.389C502.462 445.985 500.686 448.634 497.916 451.954C483.47 437.256 480.453 407.93 480.113 389.285C484.226 384.742 487.277 381.643 487.277 381.643C487.277 381.643 505.045 434.556 502.827 444.389Z" opacity=".1"/><path fill="#000" d="M653.319 419.511L639.595 435.49L621.657 436.577L592.944 438.343C592.944 438.343 554.229 391.73 561.503 381.584C564.146 377.924 564.579 373.093 564.052 368.534C563.984 367.905 563.891 367.277 563.78 366.657C562.91 361.833 561.389 357.149 559.259 352.733L560.211 352.3L560.823 352.02C562.334 356.225 563.377 360.585 563.933 365.019C564.027 365.621 564.112 366.25 564.197 366.895C564.494 369.187 564.766 371.735 565.046 374.537C567.256 400.195 583.409 409.849 590.7 412.922C593.045 413.91 595.336 415.019 597.566 416.242C604.581 420.108 612.67 421.569 620.595 420.403C638.593 418.042 653.268 404.975 653.268 404.975L653.344 417.839L653.319 419.511Z" opacity=".1"/><path fill="#DFE5EE" d="M653.871 519.216C653.871 519.216 535.832 518.894 520.273 508.119C504.714 497.344 513.934 483.072 513.611 479.582C513.288 476.092 506.634 467.22 504.416 464.673C502.198 462.125 506.32 458.967 505.682 451.996C505.045 445.025 499.658 451.996 499.658 451.996C477.437 429.479 482.195 372.414 482.195 372.414C482.195 372.414 503.439 367.031 513.636 362.896C516.398 361.775 520.698 360.179 525.533 358.455L527.326 357.81C539.792 353.353 554.611 348.318 554.611 348.318C554.611 348.318 557.458 346.305 560.322 352.325C561.63 355.093 562.947 359.551 564.001 366.674C564.094 367.277 564.179 367.905 564.264 368.551C564.562 370.843 564.834 373.39 565.114 376.192C567.324 401.851 583.477 411.505 590.768 414.578C593.113 415.566 595.404 416.674 597.634 417.898C604.649 421.763 612.738 423.225 620.663 422.058C638.66 419.698 653.336 406.631 653.336 406.631L653.412 419.494L653.633 458.143L653.871 519.216Z"/><path fill="#EE8E9E" d="M648.79 469.122L646.886 481.17C646.886 481.17 599.92 492.895 581.523 496.385C563.126 499.875 523.451 495.434 520.596 503.042C517.741 510.649 532.654 521.118 532.654 521.118L580.24 520.481L670.042 527.46C670.042 527.46 704.313 497.336 693.206 476.407C682.1 455.477 648.79 469.122 648.79 469.122Z"/><path fill="#000" d="M552.011 374.002C552.011 374.002 530.427 391.756 534.557 400.322C538.687 408.889 552.011 374.002 552.011 374.002Z" opacity=".1"/><path fill="#000" d="M525.354 406.02C525.354 406.02 503.456 443.752 504.731 446.605C506.005 449.458 512.03 459.604 511.707 451.996C511.384 444.389 525.354 406.02 525.354 406.02Z" opacity=".1"/><path fill="#000" d="M534.243 412.685C534.243 412.685 529.144 436.144 524.088 445.976C519.032 455.809 534.243 412.685 534.243 412.685Z" opacity=".1"/><path fill="#000" d="M605.919 340.345C601.723 348.033 595.746 354.605 588.487 359.512C581.228 364.42 572.899 367.519 564.197 368.551H564.095C550.404 370.157 536.611 366.55 525.465 358.447C538.211 353.845 554.543 348.309 554.543 348.309C554.543 348.309 557.39 346.297 560.254 352.317L603.098 332.789C603.58 335.456 604.535 338.015 605.919 340.345Z" opacity=".1"/><path fill="#EE8E9E" d="M612.615 312.173C612.631 321.722 610.141 331.107 605.393 339.394C603.124 343.345 600.376 347.002 597.209 350.279C588.376 359.469 576.605 365.283 563.933 366.717H563.823C561.797 366.949 559.76 367.065 557.721 367.065C544.234 367.065 531.218 362.104 521.157 353.127C511.097 344.151 504.696 331.788 503.176 318.397C502.939 316.342 502.823 314.275 502.827 312.207C502.827 297.66 508.611 283.709 518.905 273.423C529.2 263.137 543.163 257.358 557.721 257.358C572.28 257.358 586.243 263.137 596.537 273.423C606.832 283.709 612.615 297.66 612.615 312.207V312.173Z"/><path fill="#000" d="M648.161 415.962L653.259 408.321C653.259 408.321 681.182 375.029 708.493 396.273L707.542 425.446C707.542 425.446 706.267 434.319 704.363 439.031C703.817 440.43 703.618 441.94 703.783 443.432C703.949 444.924 704.475 446.354 705.315 447.598C705.315 447.598 706.904 455.24 704.686 455.24C702.468 455.24 698.653 466.651 698.653 466.651C698.653 466.651 693.257 478.385 696.435 483.777C699.613 489.168 706.59 507.236 706.59 507.236C706.59 507.236 695.484 500.579 692.305 489.482C692.305 489.482 665.334 468.553 644.388 481.841L648.161 415.962Z" opacity=".1"/><path fill="#000" d="M706.785 391.688C706.53 403.252 704.644 408.244 704.644 408.244L656.726 415.538L654.933 403.107C661.204 396.57 684.012 375.785 706.785 391.688Z" opacity=".1"/><path fill="#DFE5EE" d="M648.161 414.264L653.259 406.623C653.259 406.623 681.182 373.331 708.493 394.574L707.542 423.748C707.542 423.748 706.267 432.621 704.363 437.333C703.817 438.731 703.618 440.241 703.783 441.734C703.949 443.226 704.475 444.655 705.315 445.9C705.315 445.9 706.904 453.542 704.686 453.542C702.468 453.542 698.653 464.953 698.653 464.953C698.653 464.953 693.257 476.687 696.435 482.078C699.613 487.47 706.59 505.538 706.59 505.538C706.59 505.538 695.484 498.881 692.305 487.784C692.305 487.784 665.334 466.855 644.388 480.143L648.161 414.264Z"/><path fill="#000" d="M693.215 392.707C693.215 392.707 647.209 420.929 649.427 445.679C649.427 445.679 675.132 400.314 693.215 392.707Z" opacity=".1"/><path fill="#000" d="M653.31 419.52L653.531 458.169C644.83 458.56 636.63 457.43 630.146 451.801C625.634 447.878 623.008 442.461 621.648 436.603C620.637 431.883 620.265 427.048 620.544 422.228C620.539 422.18 620.539 422.132 620.544 422.084C621.079 411.411 623.535 400.739 622.243 390.134C620.952 379.529 614.519 368.339 604.016 366.106C601.943 365.656 599.614 365.494 598.136 363.974C596.504 362.276 596.581 359.636 596.759 357.284L597.065 353.319C597.141 352.3 597.175 351.289 597.175 350.279C597.169 341.265 594.031 332.532 588.297 325.573C582.562 318.613 574.587 313.859 565.735 312.122L565.395 312.063C562.437 311.469 559.361 310.883 556.404 311.562C550.779 312.861 547.142 318.312 541.958 320.902C532.016 325.86 515.438 320.435 505.028 318.728C504.348 318.618 503.703 318.49 503.082 318.346C502.846 316.291 502.73 314.225 502.734 312.156C502.738 303.755 504.673 295.468 508.39 287.932C512.107 280.397 517.507 273.815 524.173 268.695C530.839 263.575 538.593 260.054 546.837 258.402C555.081 256.751 563.594 257.014 571.72 259.17C579.846 261.327 587.368 265.32 593.705 270.841C600.042 276.362 605.025 283.264 608.27 291.015C611.514 298.765 612.934 307.156 612.419 315.541C611.904 323.927 609.468 332.082 605.299 339.377C605.461 339.7 605.639 340.022 605.826 340.328C617.374 359.432 654.406 347.35 654.406 347.35L656.633 415.521L653.31 419.52Z" opacity=".1"/><path fill="#603556" d="M543.955 319.959C549.105 317.361 552.742 311.91 558.401 310.619C561.35 309.94 564.426 310.526 567.4 311.112L567.74 311.18C577.1 313.03 585.455 318.247 591.223 325.841C596.991 333.435 599.771 342.88 599.036 352.385L598.73 356.35C598.544 358.693 598.467 361.351 600.116 363.032C601.586 364.552 603.914 364.73 605.987 365.155C616.49 367.396 622.923 378.527 624.215 389.191C625.506 399.856 623.008 410.562 622.515 421.277C622.022 431.992 623.994 443.82 632.1 450.858C644.847 461.896 664.221 455.613 681.089 454.603C673.628 454.603 668.036 446.91 667.629 439.473C667.221 432.035 670.535 424.954 673.704 418.246C676.874 411.539 680.052 404.322 679.347 396.901C678.378 386.712 670.339 378.553 667.263 368.746C663.677 357.335 667.136 345.083 668.759 333.221C671.809 311.01 667.059 286.005 649.852 271.648C642.646 265.645 633.834 261.951 625.914 256.925C611.723 247.934 600.532 234.748 586.188 226.002C571.844 217.257 551.705 214.014 539.188 225.221C534.345 229.56 531.218 235.58 526.238 239.766C516.508 247.959 501.043 248.112 493.242 258.165C486.529 266.817 488.347 279.102 490.497 289.843C493.361 304.167 491.746 315.315 507.068 317.862C517.435 319.501 534.005 324.926 543.955 319.959Z"/><path fill="#000" d="M670.195 447.759C657.916 449.262 645.747 450.035 636.808 442.291C628.701 435.253 626.704 423.434 627.223 412.71C627.741 401.987 630.222 391.271 628.922 380.616C627.622 369.96 621.198 358.829 610.695 356.587C608.622 356.146 606.302 355.985 604.823 354.465C603.183 352.767 603.251 350.118 603.438 347.774L603.744 343.809C604.479 334.305 601.698 324.862 595.93 317.269C590.162 309.676 581.807 304.461 572.448 302.613L572.108 302.545C569.134 301.959 566.057 301.373 563.109 302.052C557.483 303.351 553.847 308.845 548.663 311.392C538.712 316.359 522.151 310.934 511.724 309.227C496.429 306.722 498.026 295.557 495.154 281.208C493.548 273.193 492.129 264.312 494.304 256.721C493.896 257.154 493.505 257.57 493.132 258.088C486.419 266.74 488.237 279.026 490.387 289.767C493.251 304.09 491.636 315.238 506.957 317.785C517.375 319.484 533.945 324.918 543.896 319.951C549.045 317.352 552.682 311.902 558.342 310.611C561.29 309.932 564.366 310.518 567.341 311.103L567.681 311.171C577.04 313.022 585.396 318.238 591.164 325.833C596.932 333.427 599.712 342.871 598.977 352.376L598.671 356.341C598.484 358.685 598.408 361.342 600.056 363.023C601.526 364.543 603.855 364.721 605.928 365.146C616.431 367.387 622.864 378.519 624.155 389.183C625.447 399.847 622.957 410.554 622.456 421.269C621.954 431.984 623.934 443.811 632.041 450.85C644.787 461.888 664.162 455.605 681.029 454.594C676.449 454.62 672.6 451.716 670.195 447.759Z" opacity=".1"/><path fill="#5C5C8E" d="M325.331 476.084L377.718 456.556C378.956 456.094 380.328 456.142 381.531 456.69C382.734 457.237 383.67 458.24 384.134 459.477C384.596 460.714 384.548 462.084 384 463.286C383.452 464.488 382.448 465.424 381.21 465.887L328.823 485.415L317.589 484.295L325.331 476.084Z"/><path fill="#fff" d="M382.553 457.88C383.015 459.119 382.966 460.49 382.416 461.692C381.866 462.894 380.861 463.829 379.621 464.291L327.2 483.887L318.771 483.038L317.555 484.328L328.789 485.449L381.176 465.921C382.414 465.458 383.418 464.522 383.966 463.32C384.514 462.118 384.562 460.748 384.1 459.51C383.714 458.479 382.996 457.604 382.06 457.023C382.249 457.294 382.414 457.581 382.553 457.88Z" opacity=".1"/><path fill="#EFC8C4" d="M325.339 476.084L328.823 485.415L319.612 484.49L317.598 484.286L320.351 481.365L325.339 476.084Z"/><path fill="#727A9C" d="M320.343 481.34C320.558 481.501 320.742 481.699 320.886 481.926C320.973 482.062 321.018 482.219 321.018 482.38C321.018 482.541 320.973 482.698 320.886 482.834C320.742 482.984 320.572 483.107 320.385 483.199C320.175 483.34 319.998 483.526 319.869 483.743C319.74 483.96 319.66 484.204 319.637 484.456L317.615 484.261L320.343 481.34Z"/><path fill="#fff" d="M489.818 535.68C489.818 535.68 535.194 526.162 611.332 538.227L581.506 516.355L527.241 505.258L488.849 515.447L489.818 535.68Z"/><path fill="#000" d="M489.818 535.68C489.818 535.68 535.194 526.162 611.332 538.227L581.506 516.355L527.241 505.258L488.849 515.447L489.818 535.68Z" opacity=".1"/><path fill="#fff" d="M484.498 545.97C484.498 545.97 507.348 484.21 624.708 546.165L582.585 519.08C582.585 519.08 481.677 491.223 470.018 523.326L484.498 545.97Z"/><path fill="#000" d="M484.498 545.928C484.498 545.928 507.348 479.896 624.708 547.116L582.585 517.739C582.585 517.739 481.643 484.422 469.959 519.293L484.498 545.928Z" opacity=".1"/><path fill="#fff" d="M484.498 545.953C484.498 545.953 507.348 478.945 624.708 546.165L582.585 516.788C582.585 516.788 481.677 484.422 470.018 519.335L484.498 545.953Z"/><path fill="#000" d="M484.498 545.97C484.498 545.97 507.348 471.499 624.708 547.116L582.551 514.063C582.551 514.063 481.643 480.1 469.984 519.293L484.498 545.97Z" opacity=".1"/><path fill="#fff" d="M484.498 545.928C484.498 545.928 507.348 470.548 624.708 546.165L582.551 513.111C582.551 513.111 481.643 479.149 469.984 518.342L484.498 545.928Z"/><g filter="url(#filter1_d)" opacity=".2"><path fill="#00ADB5" d="M836.585 538.83C836.585 538.83 808.416 568.98 833.772 583.626C833.772 583.626 837.086 587.617 841.82 585.528C841.82 585.528 840.222 584.11 843.426 581.376C844.558 580.395 845.571 579.283 846.442 578.065C847.624 576.419 848.238 574.435 848.193 572.41C848.193 572.41 851.881 560.447 840.163 544.917C840.163 544.917 839.1 539.721 838.2 539.152L836.058 546.395C836.058 546.395 841.437 547.762 843.46 551.854C843.46 551.854 836.373 546.293 835.684 547.456C835.548 547.694 834.724 551.353 834.724 551.353C834.724 551.353 844.071 553.765 846.995 560.183C846.995 560.183 839.44 552.432 834.401 552.737L833.483 558.324C833.483 558.324 843.485 560.396 847.08 567.579C847.08 567.579 838.905 559.742 833.348 559.564L833.186 565.176C833.186 565.176 842.899 567.383 845.864 573.378C845.864 573.378 835.506 565.286 833.237 566.466C833.237 566.466 833.399 571.637 834.087 572.987C834.087 572.987 841.021 574.685 842.431 578.37C842.431 578.37 834.937 573.692 834.291 574.405C834.291 574.405 836.305 581.079 839.109 583.923C839.109 583.923 834.656 580.026 833.263 574.77C833.263 574.77 831.376 578.056 831.852 581.283C831.852 581.283 829.073 578.209 832.795 573.149C832.795 573.149 831.436 567.884 831.775 567.052C831.775 567.052 827.399 571.527 826.278 575.543C826.278 575.543 825.428 570.516 831.767 565.6V559.946C831.767 559.946 825.666 565.558 824.408 569.031C824.408 569.031 824.323 563.766 831.894 558.528L832.744 553.034C832.744 553.034 827.119 557.466 824.884 561.032C824.884 561.032 825.853 556.125 833.042 551.472L834.036 547.872C834.036 547.872 829.991 551.183 828.937 552.236C827.884 553.289 827.484 553.085 827.484 553.085C829.139 550.238 831.551 547.905 834.452 546.344C834.452 546.344 837.052 539.025 836.585 538.83Z"/></g><g filter="url(#filter2_d)" opacity=".2"><path fill="#00ADB5" d="M962.51 48.2434C962.51 48.2434 924.875 65.2246 942.617 88.4803C942.617 88.4803 944.138 93.4473 949.305 93.3454C949.305 93.3454 948.379 91.418 952.39 90.1275C953.815 89.6621 955.179 89.0263 956.451 88.2341C958.177 87.1714 959.51 85.5772 960.25 83.6916C960.25 83.6916 968.271 74.0803 963.453 55.2396C963.453 55.2396 964.482 50.0349 963.87 49.1604L959.094 55.0189C959.094 55.0189 963.53 58.3472 963.819 62.9066C963.819 62.9066 959.434 55.0444 958.346 55.8595C958.125 56.0208 955.959 59.0774 955.959 59.0774C955.959 59.0774 963.606 64.9019 963.87 71.9576C963.87 71.9576 959.893 61.8878 955.117 60.2236L952.118 65.0293C952.118 65.0293 960.547 70.7944 961.108 78.8095C961.108 78.8095 956.587 68.434 951.531 66.1246L949.211 71.2189C949.211 71.2189 957.327 77.001 957.709 83.6746C957.709 83.6746 951.276 72.2123 948.727 72.4331C948.727 72.4331 946.883 77.2557 947.028 78.7755C947.028 78.7755 952.755 83.0208 952.653 86.9605C952.653 86.9605 947.555 79.7604 946.705 80.168C946.705 80.168 945.982 87.0963 947.478 90.8067C947.478 90.8067 944.869 85.4916 945.617 80.1086C945.617 80.1086 942.6 82.418 941.802 85.5765C941.802 85.5765 940.425 81.6623 945.812 78.4274C945.812 78.4274 946.586 73.0529 947.223 72.4161C947.223 72.4161 941.453 74.8529 938.887 78.0963C938.887 78.0963 940.034 73.1293 947.792 71.0406L950.002 65.8444C950.002 65.8444 942.21 68.6633 939.703 71.3802C939.703 71.3802 941.657 66.4897 950.665 64.5878L953.562 59.85C953.562 59.85 946.662 61.7774 943.221 64.1972C943.221 64.1972 946.016 60.0538 954.446 58.5255L956.749 55.5878C956.749 55.5878 951.735 57.0821 950.333 57.6425C948.931 58.2029 948.634 57.8717 948.634 57.8717C951.275 55.8749 954.42 54.6519 957.718 54.3396C957.718 54.3396 962.816 48.583 962.51 48.2434Z"/></g><g filter="url(#filter3_d)" opacity=".2"><path fill="#00ADB5" d="M639.591 79C639.591 79 583.048 95.1321 610.538 119.143C610.538 119.143 612.977 124.238 620.803 124.238C620.803 124.238 619.341 122.268 625.392 121.071C627.475 120.652 629.516 120.05 631.493 119.271C633.824 118.455 635.807 116.871 637.118 114.779C637.118 114.779 649.015 105.27 641.205 86.0981C641.205 86.0981 642.625 80.8679 641.673 79.9679L634.603 85.7585C634.603 85.7585 641.401 89.2481 641.97 93.8585C641.97 93.8585 635.113 85.801 633.473 86.5906C633.141 86.7519 629.938 89.7746 629.938 89.7746C629.938 89.7746 641.732 95.8708 642.268 103.011C642.268 103.011 635.979 92.7293 628.672 90.9208L624.253 95.6925C624.253 95.6925 637.169 101.746 638.231 109.863C638.231 109.863 631.11 99.2585 623.395 96.7878L619.996 101.882C619.996 101.882 632.436 107.944 633.252 114.703C633.252 114.703 623.199 102.943 619.341 103.088C619.341 103.088 616.682 107.927 616.919 109.464C616.919 109.464 625.706 113.947 625.663 117.887C625.663 117.887 617.727 110.466 616.418 110.857C616.418 110.857 615.517 117.844 617.88 121.631C617.88 121.631 613.784 116.189 614.77 110.772C614.77 110.772 610.274 113.022 609.144 116.189C609.144 116.189 606.952 112.207 615.024 109.082C615.024 109.082 616.053 103.665 616.996 103.037C616.996 103.037 608.328 105.346 604.53 108.556C604.53 108.556 606.128 103.563 617.82 101.661L621.032 96.4651C621.032 96.4651 609.306 99.1142 605.584 101.789C605.584 101.789 608.413 96.8982 622.01 95.2L626.258 90.4878C626.258 90.4878 615.857 92.2453 610.708 94.6057C610.708 94.6057 614.829 90.4878 627.55 89.1717L630.949 86.2679C630.949 86.2679 623.395 87.6434 621.287 88.1698C619.18 88.6962 618.738 88.3566 618.738 88.3566C622.985 86.3021 627.618 85.1679 632.334 85.0283C632.334 85.0283 640.084 79.3566 639.591 79Z"/></g><g filter="url(#filter4_d)" opacity=".2"><path fill="#00ADB5" d="M31.8701 698.334C31.8701 698.334 60.3368 668.455 35.1247 653.563C35.1247 653.563 31.8446 649.538 27.0945 651.576C27.0945 651.576 28.6836 653.011 25.4545 655.719C24.313 656.689 23.2891 657.789 22.4039 658.997C21.2037 660.629 20.571 662.609 20.6024 664.634C20.6024 664.634 16.787 676.564 28.3606 692.203C28.3606 692.203 29.3718 697.408 30.2641 697.994L32.4819 690.768C32.4819 690.768 27.1115 689.351 25.1316 685.241C25.1316 685.241 32.159 690.862 32.8558 689.707C33.0003 689.469 33.8585 685.827 33.8585 685.827C33.8585 685.827 24.5113 683.28 21.6731 676.878C21.6731 676.878 29.1509 684.706 34.1984 684.443L35.1672 678.865C35.1672 678.865 25.191 676.7 21.6476 669.525C21.6476 669.525 29.7457 677.438 35.3031 677.676L35.5156 672.055C35.5156 672.055 25.8199 669.712 22.8797 663.684C22.8797 663.684 33.1618 671.885 35.4391 670.722C35.4391 670.722 35.3286 665.56 34.5894 664.201C34.5894 664.201 27.6723 662.384 26.2957 658.733C26.2957 658.733 33.7481 663.488 34.3939 662.775C34.3939 662.775 32.4479 656.084 29.6692 653.215C29.6692 653.215 34.088 657.154 35.4306 662.418C35.4306 662.418 37.351 659.15 36.9007 655.923C36.9007 655.923 39.6539 659.031 35.8809 664.049C35.8809 664.049 37.1896 669.33 36.8412 670.153C36.8412 670.153 41.2599 665.721 42.4156 661.756C42.4156 661.756 43.2653 666.791 36.8327 671.639L36.7477 677.294C36.7477 677.294 42.8999 671.741 44.1916 668.277C44.1916 668.277 44.1916 673.55 36.6033 678.712L35.7535 684.197C35.7535 684.197 41.4213 679.816 43.6902 676.275C43.6902 676.275 42.6705 681.166 35.4391 685.751L34.4109 689.342C34.4109 689.342 38.4897 686.073 39.5774 685.029C40.6651 683.984 41.039 684.18 41.039 684.18C39.3579 687.013 36.922 689.323 34.003 690.853C34.003 690.853 31.4453 698.13 31.8701 698.334Z"/></g><g filter="url(#filter5_d)" opacity=".2"><path fill="#00ADB5" d="M494.474 19.053C494.474 19.053 499.326 60.0116 526.892 50.1285C526.892 50.1285 532.084 50.171 533.546 45.2125C533.546 45.2125 531.421 45.5182 531.404 41.3068C531.385 39.8087 531.188 38.3182 530.818 36.8663C530.329 34.9019 529.21 33.1515 527.632 31.8823C527.632 31.8823 520.868 21.337 501.4 20.3011C501.4 20.3011 496.743 17.754 495.723 18.0766L499.879 24.3851C499.879 24.3851 504.391 21.1587 508.826 22.2625C508.826 22.2625 500.006 24.0794 500.456 25.353C500.541 25.6162 502.802 28.5964 502.802 28.5964C502.802 28.5964 510.747 22.9926 517.545 24.903C517.545 24.903 506.745 25.6502 503.719 29.7002L507.348 34.0134C507.348 34.0134 515.387 27.7134 523.213 29.5898C523.213 29.5898 511.945 30.7785 508.215 34.8964L512.446 38.6493C512.446 38.6493 520.4 32.6549 526.892 34.2681C526.892 34.2681 514.01 36.9512 513.449 39.4389C513.449 39.4389 517.503 42.6483 518.998 42.988C518.998 42.988 524.81 38.8191 528.498 40.0927C528.498 40.0927 520.086 42.7927 520.213 43.7436C520.213 43.7436 526.612 46.5116 530.597 46.2059C530.597 46.2059 524.742 47.055 519.831 44.7625C519.831 44.7625 521.122 48.3201 523.901 50.0436C523.901 50.0436 519.754 50.171 518.284 44.1002C518.284 44.1002 513.39 41.7398 512.973 40.9502C512.973 40.9502 513.568 47.1738 515.888 50.5955C515.888 50.5955 511.486 48.0484 511.826 39.9908L507.577 36.3144C507.577 36.3144 507.926 44.5927 509.761 47.8021C509.761 47.8021 505.682 44.4653 506.566 35.304L502.921 31.1181C502.921 31.1181 502.674 38.2672 503.949 42.2748C503.949 42.2748 500.83 38.3691 501.918 29.8785L499.802 26.7964C499.802 26.7964 499.726 32.0181 499.802 33.5295C499.879 35.0408 499.513 35.1851 499.513 35.1851C498.396 32.0741 498.167 28.7141 498.85 25.4804C498.85 25.4804 494.899 18.8492 494.474 19.053Z"/></g><g filter="url(#filter6_d)" opacity=".2"><path fill="#00ADB5" d="M700.506 595.368C700.506 595.368 660.72 584.331 659.445 613.572C659.445 613.572 657.44 618.361 661.476 621.587C661.476 621.587 661.995 619.516 665.904 621.086C667.298 621.638 668.753 622.022 670.237 622.232C672.245 622.522 674.293 622.146 676.067 621.163C676.067 621.163 688.388 618.904 696.75 601.346C696.75 601.346 700.871 598.009 700.998 596.939L693.58 598.391C693.58 598.391 694.855 603.791 692.152 607.476C692.152 607.476 693.852 598.629 692.467 598.561C692.186 598.561 688.567 599.503 688.567 599.503C688.567 599.503 690.742 608.894 686.4 614.455C686.4 614.455 689.799 604.182 687.19 599.851L681.802 601.626C681.802 601.626 684.59 611.441 679.882 617.962C679.882 617.962 683.06 607.102 680.647 602.093L675.599 604.547C675.599 604.547 678.149 614.175 674.18 619.575C674.18 619.575 676.576 606.652 674.478 605.183C674.478 605.183 669.974 607.731 669.099 608.97C669.099 608.97 670.798 615.924 668.181 618.853C668.181 618.853 668.861 610.048 667.934 609.811C667.934 609.811 662.938 614.676 661.714 618.48C661.714 618.48 663.116 612.732 667.136 609.072C667.136 609.072 663.346 608.919 660.703 610.83C660.703 610.83 662.148 606.949 668.351 607.909C668.351 607.909 672.396 604.266 673.288 604.19C673.288 604.19 667.34 602.373 663.244 603.222C663.244 603.222 667.306 600.131 674.605 603.494L679.636 600.947C679.636 600.947 671.835 598.136 668.172 598.62C668.172 598.62 672.804 596.073 680.919 600.395L686.17 598.603C686.17 598.603 679.644 595.674 675.446 595.334C675.446 595.334 680.247 593.933 687.7 598.153L691.354 597.364C691.354 597.364 686.544 595.309 685.108 594.816C683.672 594.324 683.68 593.967 683.68 593.967C686.972 594.118 690.157 595.176 692.883 597.024C692.883 597.024 700.531 595.835 700.506 595.368Z"/></g><g filter="url(#filter7_d)" opacity=".2"><path fill="#00ADB5" d="M134.98 13.7446C134.98 13.7446 121.937 71.0789 156.209 58.5209C156.209 58.5209 161.848 58.8321 165.611 51.9699C165.611 51.9699 163.181 52.3042 165.041 46.4237C165.675 44.396 166.129 42.3161 166.396 40.2085C166.801 37.7724 166.366 35.2715 165.163 33.1164C165.163 33.1164 162.545 18.113 141.98 15.7419C141.98 15.7419 138.076 11.9829 136.829 12.3846L138.507 21.3679C138.507 21.3679 144.836 17.0852 149.152 18.8028C149.152 18.8028 138.79 20.9413 138.693 22.7589C138.676 23.1271 139.786 27.3894 139.786 27.3894C139.786 27.3894 150.802 19.979 157.32 22.9429C157.32 22.9429 145.281 23.5126 140.182 29.0507L142.241 35.2195C142.241 35.2195 153.76 26.8051 161.387 29.7766C161.387 29.7766 148.665 30.9213 142.789 36.4986L145.621 41.9284C145.621 41.9284 156.918 33.9354 163.237 36.4698C163.237 36.4698 148.092 39.6298 146.364 43.0819C146.364 43.0819 149.328 47.741 150.79 48.2713C150.79 48.2713 158.946 42.7228 162.38 44.6543C162.38 44.6543 152.057 48.0452 151.77 49.3804C151.77 49.3804 157.464 53.5301 161.92 53.2796C161.92 53.2796 155.179 54.254 150.903 50.7851C150.903 50.7851 150.714 55.8084 152.948 58.3221C152.948 58.3221 148.402 58.3297 149.544 49.7491C149.544 49.7491 145.289 46.243 145.191 45.1138C145.191 45.1138 143.049 53.824 144.036 58.6977C144.036 58.6977 140.427 54.8965 144.382 43.7297L141.37 38.4148C141.37 38.4148 138.054 49.9707 138.61 54.5201C138.61 54.5201 135.682 49.6874 140.731 36.9497L138.642 30.9585C138.642 30.9585 135.182 40.9233 134.775 46.5735C134.775 46.5735 133.146 40.9798 138.109 29.1932L137.197 24.8167C137.197 24.8167 134.771 32.1018 134.219 34.2027C133.667 36.3036 133.157 36.5278 133.157 36.5278C133.398 31.8164 134.631 27.2085 136.776 23.0062C136.776 23.0062 135.529 13.4839 134.98 13.7446Z"/></g><g filter="url(#filter8_d)" opacity=".2"><path fill="#00ADB5" d="M46.8809 91.828C46.8809 91.828 85.1271 107.268 89.7159 78.3452C89.7159 78.3452 92.2496 73.8132 88.6047 70.1475C88.6047 70.1475 87.8512 72.1571 84.1505 70.1471C82.8275 69.444 81.426 68.8999 79.975 68.5261C78.0174 68.0105 75.9445 68.1502 74.0728 68.9237C74.0728 68.9237 61.5742 69.7841 51.3053 86.3558C51.3053 86.3558 46.8328 89.214 46.6254 90.2633L54.1548 89.6531C54.1548 89.6531 53.4954 84.1454 56.596 80.7868C56.596 80.7868 53.9481 89.3944 55.2813 89.6119C55.553 89.6639 59.2529 89.115 59.2529 89.115C59.2529 89.115 58.1596 79.454 63.1034 74.412C63.1034 74.412 58.5654 84.2412 60.6619 88.841L66.1885 87.7334C66.1885 87.7334 64.5298 77.6558 69.9381 71.6959C69.9381 71.6959 65.5625 82.1471 67.3795 87.398L72.7048 85.492C72.7048 85.492 71.2732 75.6358 75.8093 70.7191C75.8093 70.7191 71.9677 83.3046 73.8793 84.9925C73.8793 84.9925 78.6423 82.9816 79.6592 81.8336C79.6592 81.8336 78.7986 74.7328 81.6886 72.1115C81.6886 72.1115 80.011 80.786 80.9061 81.1315C80.9061 81.1315 86.4097 76.852 88.0579 73.2106C88.0579 73.2106 85.9873 78.7524 81.6156 81.9567C81.6156 81.9567 85.3559 82.5347 88.2033 80.9271C88.2033 80.9271 86.3211 84.6243 80.2913 82.9943C80.2913 82.9943 75.8682 86.151 74.9756 86.1364C74.9756 86.1364 80.7186 88.6073 84.8342 88.2185C84.8342 88.2185 80.4844 90.8533 73.5828 86.6809L68.3163 88.6386C68.3163 88.6386 75.7424 92.3136 79.439 92.2474C79.439 92.2474 74.5521 94.2193 66.9442 89.0394L61.5211 90.2232C61.5211 90.2232 67.6711 93.8767 71.7978 94.686C71.7978 94.686 66.8738 95.5425 59.9521 90.5063L56.2323 90.8796C56.2323 90.8796 60.774 93.4574 62.1359 94.117C63.4978 94.7767 63.4487 95.1664 63.4487 95.1664C60.1839 94.6499 57.1275 93.2355 54.6208 91.0813C54.6208 91.0813 46.9065 91.3575 46.8809 91.828Z"/></g><defs><filter id="filter0_d" width="912.043" height="619.052" x="45.011" y="55.97" color-interpolation-filters="sRGB" filterUnits="userSpaceOnUse"><feFlood flood-opacity="0" result="BackgroundImageFix"/><feColorMatrix in="SourceAlpha" type="matrix" values="0 0 0 0 0 0 0 0 0 0 0 0 0 0 0 0 0 0 127 0"/><feOffset dx="-18" dy="-10"/><feGaussianBlur stdDeviation="1"/><feColorMatrix type="matrix" values="0 0 0 0 0 0 0 0 0 0 0 0 0 0 0 0 0 0 1 0"/><feBlend in2="BackgroundImageFix" mode="normal" result="effect1_dropShadow"/><feBlend in="SourceGraphic" in2="effect1_dropShadow" mode="normal" result="shape"/></filter><filter id="filter1_d" width="45.555" height="59.303" x="803.188" y="526.83" color-interpolation-filters="sRGB" filterUnits="userSpaceOnUse"><feFlood flood-opacity="0" result="BackgroundImageFix"/><feColorMatrix in="SourceAlpha" type="matrix" values="0 0 0 0 0 0 0 0 0 0 0 0 0 0 0 0 0 0 127 0"/><feOffset dx="-18" dy="-10"/><feGaussianBlur stdDeviation="1"/><feColorMatrix type="matrix" values="0 0 0 0 0 0 0 0 0 0 0 0 0 0 0 0 0 0 1 0"/><feBlend in2="BackgroundImageFix" mode="normal" result="effect1_dropShadow"/><feBlend in="SourceGraphic" in2="effect1_dropShadow" mode="normal" result="shape"/></filter><filter id="filter2_d" width="47.131" height="57.103" x="917.863" y="36.243" color-interpolation-filters="sRGB" filterUnits="userSpaceOnUse"><feFlood flood-opacity="0" result="BackgroundImageFix"/><feColorMatrix in="SourceAlpha" type="matrix" values="0 0 0 0 0 0 0 0 0 0 0 0 0 0 0 0 0 0 127 0"/><feOffset dx="-18" dy="-10"/><feGaussianBlur stdDeviation="1"/><feColorMatrix type="matrix" values="0 0 0 0 0 0 0 0 0 0 0 0 0 0 0 0 0 0 1 0"/><feBlend in2="BackgroundImageFix" mode="normal" result="effect1_dropShadow"/><feBlend in="SourceGraphic" in2="effect1_dropShadow" mode="normal" result="shape"/></filter><filter id="filter3_d" width="60.862" height="57.238" x="583" y="67" color-interpolation-filters="sRGB" filterUnits="userSpaceOnUse"><feFlood flood-opacity="0" result="BackgroundImageFix"/><feColorMatrix in="SourceAlpha" type="matrix" values="0 0 0 0 0 0 0 0 0 0 0 0 0 0 0 0 0 0 127 0"/><feOffset dx="-18" dy="-10"/><feGaussianBlur stdDeviation="1"/><feColorMatrix type="matrix" values="0 0 0 0 0 0 0 0 0 0 0 0 0 0 0 0 0 0 1 0"/><feBlend in2="BackgroundImageFix" mode="normal" result="effect1_dropShadow"/><feBlend in="SourceGraphic" in2="effect1_dropShadow" mode="normal" result="shape"/></filter><filter id="filter4_d" width="45.544" height="59.334" x="0" y="639" color-interpolation-filters="sRGB" filterUnits="userSpaceOnUse"><feFlood flood-opacity="0" result="BackgroundImageFix"/><feColorMatrix in="SourceAlpha" type="matrix" values="0 0 0 0 0 0 0 0 0 0 0 0 0 0 0 0 0 0 127 0"/><feOffset dx="-18" dy="-10"/><feGaussianBlur stdDeviation="1"/><feColorMatrix type="matrix" values="0 0 0 0 0 0 0 0 0 0 0 0 0 0 0 0 0 0 1 0"/><feBlend in2="BackgroundImageFix" mode="normal" result="effect1_dropShadow"/><feBlend in="SourceGraphic" in2="effect1_dropShadow" mode="normal" result="shape"/></filter><filter id="filter5_d" width="59.072" height="45.619" x="474.474" y="6.048" color-interpolation-filters="sRGB" filterUnits="userSpaceOnUse"><feFlood flood-opacity="0" result="BackgroundImageFix"/><feColorMatrix in="SourceAlpha" type="matrix" values="0 0 0 0 0 0 0 0 0 0 0 0 0 0 0 0 0 0 127 0"/><feOffset dx="-18" dy="-10"/><feGaussianBlur stdDeviation="1"/><feColorMatrix type="matrix" values="0 0 0 0 0 0 0 0 0 0 0 0 0 0 0 0 0 0 1 0"/><feBlend in2="BackgroundImageFix" mode="normal" result="effect1_dropShadow"/><feBlend in="SourceGraphic" in2="effect1_dropShadow" mode="normal" result="shape"/></filter><filter id="filter6_d" width="62.051" height="41.002" x="638.947" y="581.326" color-interpolation-filters="sRGB" filterUnits="userSpaceOnUse"><feFlood flood-opacity="0" result="BackgroundImageFix"/><feColorMatrix in="SourceAlpha" type="matrix" values="0 0 0 0 0 0 0 0 0 0 0 0 0 0 0 0 0 0 127 0"/><feOffset dx="-18" dy="-10"/><feGaussianBlur stdDeviation="1"/><feColorMatrix type="matrix" values="0 0 0 0 0 0 0 0 0 0 0 0 0 0 0 0 0 0 1 0"/><feBlend in2="BackgroundImageFix" mode="normal" result="effect1_dropShadow"/><feBlend in="SourceGraphic" in2="effect1_dropShadow" mode="normal" result="shape"/></filter><filter id="filter7_d" width="54" height="59.965" x="112.544" y=".354" color-interpolation-filters="sRGB" filterUnits="userSpaceOnUse"><feFlood flood-opacity="0" result="BackgroundImageFix"/><feColorMatrix in="SourceAlpha" type="matrix" values="0 0 0 0 0 0 0 0 0 0 0 0 0 0 0 0 0 0 127 0"/><feOffset dx="-18" dy="-10"/><feGaussianBlur stdDeviation="1"/><feColorMatrix type="matrix" values="0 0 0 0 0 0 0 0 0 0 0 0 0 0 0 0 0 0 1 0"/><feBlend in2="BackgroundImageFix" mode="normal" result="effect1_dropShadow"/><feBlend in="SourceGraphic" in2="effect1_dropShadow" mode="normal" result="shape"/></filter><filter id="filter8_d" width="63.948" height="39.724" x="26.625" y="56.221" color-interpolation-filters="sRGB" filterUnits="userSpaceOnUse"><feFlood flood-opacity="0" result="BackgroundImageFix"/><feColorMatrix in="SourceAlpha" type="matrix" values="0 0 0 0 0 0 0 0 0 0 0 0 0 0 0 0 0 0 127 0"/><feOffset dx="-18" dy="-10"/><feGaussianBlur stdDeviation="1"/><feColorMatrix type="matrix" values="0 0 0 0 0 0 0 0 0 0 0 0 0 0 0 0 0 0 1 0"/><feBlend in2="BackgroundImageFix" mode="normal" result="effect1_dropShadow"/><feBlend in="SourceGraphic" in2="effect1_dropShadow" mode="normal" result="shape"/></filter><linearGradient id="paint0_linear" x1="517.418" x2="517.418" y1="526.824" y2="215.211" gradientUnits="userSpaceOnUse"><stop stop-color="gray" stop-opacity=".25"/><stop offset=".54" stop-color="gray" stop-opacity=".12"/><stop offset="1" stop-color="gray" stop-opacity=".1"/></linearGradient></defs></svg>