<svg width="200" height="33" viewBox="0 0 200 33" fill="none" xmlns="http://www.w3.org/2000/svg">
<path d="M30.7019 27.9709V4.96045H35.535V27.9709H30.7019Z" fill="#EEEEEE"/>
<path d="M54.1081 27.9709V22.0461C54.1081 20.9438 53.8549 20.14 53.3486 19.6807C52.8423 19.1985 51.8987 18.9688 50.4947 18.9688H45.3624V27.9939H40.6674V4.96045H52.382C53.4407 4.96045 54.4073 5.1212 55.2819 5.46567C56.1564 5.81014 56.8929 6.26943 57.5143 6.84354C58.1357 7.41765 58.619 8.12955 58.9643 8.95628C59.3095 9.783 59.4706 10.6557 59.4706 11.5972C59.4706 12.8373 59.1714 13.9396 58.596 14.9041C57.9976 15.8686 57.1461 16.5346 56.0414 16.925C57.054 17.2465 57.7905 17.7517 58.2048 18.4177C58.642 19.0836 58.8492 20.0941 58.8492 21.426V27.9479H54.1081V27.9709ZM45.3624 8.93331V15.0648H51.4153C52.7042 15.0648 53.6248 14.7663 54.1541 14.1922C54.6835 13.6181 54.9597 12.8832 54.9597 12.0106C54.9597 11.1149 54.7065 10.3801 54.1771 9.783C53.6478 9.20889 52.7962 8.91035 51.5995 8.91035H45.3624V8.93331Z" fill="#EEEEEE"/>
<path d="M84.5339 20.0712C84.2807 21.3801 83.8664 22.5743 83.3141 23.6307C82.7617 24.687 82.0483 25.6056 81.2197 26.3634C80.3682 27.1213 79.4015 27.7183 78.2738 28.1317C77.1461 28.5451 75.9263 28.7518 74.5914 28.7518C73.0954 28.7518 71.6685 28.4991 70.3797 27.9939C69.0678 27.4887 67.9401 26.7309 66.9965 25.6975C66.0529 24.687 65.2934 23.424 64.764 21.9313C64.2117 20.4386 63.9585 18.6933 63.9585 16.7183C63.9585 14.7664 64.2117 13.021 64.695 11.4595C65.2013 9.89787 65.9148 8.58889 66.8354 7.50956C67.756 6.43023 68.8837 5.6035 70.2186 5.02939C71.5534 4.45528 73.0494 4.15674 74.6835 4.15674C76.1104 4.15674 77.4222 4.36342 78.596 4.79975C79.7698 5.23607 80.7824 5.81018 81.611 6.56801C82.4625 7.32584 83.13 8.1985 83.6363 9.20894C84.1426 10.2194 84.4418 11.3217 84.5569 12.4699H79.7237C79.4015 11.1609 78.7801 10.1275 77.8365 9.39265C76.9159 8.65779 75.8572 8.29035 74.7065 8.29035C72.6812 8.29035 71.2082 9.00225 70.2646 10.449C69.321 11.8958 68.8377 13.8707 68.8377 16.3968C68.8377 18.9689 69.298 20.9668 70.2416 22.3676C71.1852 23.7684 72.5891 24.5033 74.4533 24.5033C75.8802 24.5033 77.031 24.1129 77.9056 23.3321C78.7801 22.5513 79.3785 21.449 79.7007 19.9793H84.5339V20.0712Z" fill="#EEEEEE"/>
<path d="M88.9988 27.9709V4.96045H93.8319V23.7914H105.27V27.9939H88.9988V27.9709Z" fill="#EEEEEE"/>
<path d="M109.873 27.9709V4.96045H126.835V8.97924H114.568V13.8937H125.869V17.9584H114.568V23.8832H127.388V27.9709H109.873Z" fill="#EEEEEE"/>
<path d="M147.848 27.9709L146.398 23.2173H137.883L136.248 27.9709H131.139L139.379 4.96045H144.971L153.095 27.9709H147.848ZM142.117 10.1275H142.071L139.125 19.2903H144.994L142.117 10.1275Z" fill="#EEEEEE"/>
<path d="M171.093 27.9709V22.0461C171.093 20.9438 170.84 20.14 170.334 19.6807C169.827 19.1985 168.884 18.9688 167.48 18.9688H162.347V27.9939H157.652V4.96045H169.367C170.426 4.96045 171.392 5.1212 172.267 5.46567C173.141 5.81014 173.878 6.26943 174.499 6.84354C175.121 7.44062 175.604 8.12955 175.949 8.95628C176.294 9.783 176.456 10.6557 176.456 11.5972C176.456 12.8373 176.156 13.9396 175.581 14.9041C174.983 15.8686 174.131 16.5346 173.026 16.925C174.039 17.2465 174.775 17.7517 175.19 18.4177C175.627 19.0836 175.834 20.0941 175.834 21.426V27.9479H171.093V27.9709ZM162.347 8.93331V15.0648H168.4C169.689 15.0648 170.61 14.7663 171.139 14.1922C171.668 13.6181 171.945 12.8832 171.945 12.0106C171.945 11.1149 171.691 10.3801 171.162 9.783C170.633 9.20889 169.781 8.91035 168.584 8.91035H162.347V8.93331Z" fill="#EEEEEE"/>
<path d="M195.558 27.9709L185.685 12.5158V27.9709H181.197V4.96045H186.306L195.489 19.7496V4.96045H200V27.9709H195.558Z" fill="#EEEEEE"/>
<path d="M27.733 27.6722C27.9632 27.9019 27.9402 28.2693 27.71 28.476C24.7641 31.2088 20.8055 32.9081 16.4787 32.9081C15.1208 32.9081 13.786 32.7474 12.5201 32.4259C11.8067 32.2422 11.0932 32.0125 10.4028 31.7599C9.57423 31.4384 8.76871 31.025 8.00921 30.5658C7.84811 30.4739 7.73303 30.2902 7.73303 30.0835V16.0522C7.82509 13.7557 8.83775 11.6889 10.4028 10.1732C10.9091 9.69099 11.4845 9.25466 12.1059 8.88723C12.4741 8.68055 12.9344 8.93316 12.9344 9.36948V26.7077C12.9344 26.9603 13.0955 27.167 13.3487 27.2359C14.3383 27.5344 15.397 27.6722 16.4787 27.6722C19.4016 27.6722 22.0483 26.5699 24.0506 24.7328C24.2808 24.5261 24.603 24.5261 24.8331 24.7557L27.733 27.6722Z" fill="#EEEEEE"/>
<path d="M27.733 5.21295L24.8331 8.10648C24.626 8.31316 24.2808 8.31316 24.0506 8.12945C22.0483 6.31525 19.3786 5.18998 16.4787 5.18998C15.2359 5.18998 14.0621 5.39667 12.9344 5.7641C12.0368 6.06264 11.1853 6.476 10.4028 6.98122C9.3901 7.62423 8.49252 8.42798 7.73303 9.34657C7.73303 9.34657 7.73303 9.34657 7.73303 9.36953C6.14499 11.2986 5.20138 13.7787 5.20138 16.4656V27.0752C5.20138 27.5804 4.57998 27.833 4.23475 27.4426C1.61105 24.5261 0 20.6681 0 16.4426C0 11.7349 2.0023 7.46347 5.20138 4.45512C5.98389 3.72025 6.83544 3.07725 7.73303 2.50313C8.56156 1.97495 9.45915 1.51566 10.4028 1.14823C11.2083 0.826723 12.0598 0.574113 12.9344 0.367433C14.0852 0.137787 15.2589 0 16.4787 0C20.8055 0 24.7641 1.67641 27.71 4.43216C27.9402 4.63884 27.9402 5.00627 27.733 5.21295Z" fill="#00ADB5"/>
</svg>
