<svg xmlns="http://www.w3.org/2000/svg" width="517" height="85" fill="none" viewBox="0 0 517 85"><path fill="#2F2E41" d="M79.3013 72.2473V12.8126H91.7851V72.2473H79.3013Z"/><path fill="#2F2E41" d="M139.758 72.2473V56.9438C139.758 54.0966 139.104 52.0205 137.796 50.8342C136.489 49.5886 134.051 48.9954 130.425 48.9954H117.169V72.3066H105.042V12.8126H135.3C138.034 12.8126 140.531 13.2278 142.79 14.1175C145.049 15.0073 146.951 16.1936 148.556 17.6765C150.161 19.1594 151.41 20.9982 152.301 23.1336C153.193 25.2689 153.609 27.523 153.609 29.9549C153.609 33.158 152.836 36.0052 151.35 38.4964C149.805 40.9877 147.605 42.7079 144.752 43.7163C147.367 44.5467 149.27 45.8516 150.34 47.5718C151.469 49.292 152.004 51.9019 152.004 55.3422V72.188H139.758V72.2473ZM117.169 23.0743V38.9117H132.803C136.132 38.9117 138.51 38.1405 139.877 36.6576C141.244 35.1747 141.958 33.2766 141.958 31.0226C141.958 28.7093 141.304 26.8112 139.937 25.2689C138.569 23.786 136.37 23.0149 133.279 23.0149H117.169V23.0743Z"/><path fill="#2F2E41" d="M218.346 51.8427C217.692 55.2237 216.622 58.3082 215.196 61.0367C213.769 63.7652 211.926 66.1379 209.786 68.0953C207.587 70.0528 205.09 71.595 202.177 72.6627C199.264 73.7304 196.113 74.2642 192.665 74.2642C188.801 74.2642 185.116 73.6117 181.787 72.3068C178.398 71.0018 175.485 69.0444 173.048 66.3752C170.611 63.7652 168.649 60.5029 167.282 56.6473C165.855 52.7918 165.201 48.2837 165.201 43.1826C165.201 38.1407 165.855 33.6327 167.104 29.5992C168.411 25.5657 170.254 22.1846 172.632 19.3968C175.01 16.6089 177.923 14.4735 181.371 12.9906C184.819 11.5077 188.683 10.7366 192.903 10.7366C196.589 10.7366 199.977 11.2705 203.009 12.3975C206.041 13.5245 208.657 15.0074 210.797 16.9648C212.996 18.9223 214.72 21.1763 216.028 23.7862C217.336 26.3961 218.109 29.2433 218.406 32.2091H205.922C205.09 28.828 203.485 26.1588 201.047 24.2607C198.67 22.3626 195.935 21.4135 192.963 21.4135C187.731 21.4135 183.927 23.2523 181.49 26.9892C179.052 30.7262 177.804 35.8274 177.804 42.3521C177.804 48.9955 178.993 54.156 181.43 57.7743C183.867 61.3926 187.494 63.2907 192.309 63.2907C195.994 63.2907 198.967 62.2823 201.226 60.2656C203.485 58.2488 205.03 55.4017 205.863 51.6054H218.346V51.8427Z"/><path fill="#2F2E41" d="M229.879 72.2473V12.8126H242.363V61.4518H271.907V72.3066H229.879V72.2473Z"/><path fill="#2F2E41" d="M283.797 72.2473V12.8126H327.609V23.1929H295.924V35.8865H325.112V46.3855H295.924V61.689H329.036V72.2473H283.797Z"/><path fill="#2F2E41" d="M381.883 72.2473L378.138 59.9689H356.143L351.922 72.2473H338.725L360.007 12.8126H374.453L395.437 72.2473H381.883ZM367.081 26.1587H366.962L359.353 49.8258H374.512L367.081 26.1587Z"/><path fill="#2F2E41" d="M441.924 72.2473V56.9438C441.924 54.0966 441.27 52.0205 439.962 50.8342C438.654 49.5886 436.217 48.9954 432.591 48.9954H419.334V72.3066H407.207V12.8126H437.466C440.2 12.8126 442.697 13.2278 444.956 14.1175C447.215 15.0073 449.117 16.1936 450.722 17.6765C452.327 19.2187 453.576 20.9982 454.467 23.1336C455.359 25.2689 455.775 27.523 455.775 29.9549C455.775 33.158 455.002 36.0052 453.516 38.4964C451.97 40.9877 449.771 42.7079 446.917 43.7163C449.533 44.5467 451.435 45.8516 452.505 47.5718C453.635 49.292 454.17 51.9019 454.17 55.3422V72.188H441.924V72.2473ZM419.334 23.0743V38.9117H434.969C438.298 38.9117 440.676 38.1405 442.043 36.6576C443.41 35.1747 444.124 33.2766 444.124 31.0226C444.124 28.7093 443.47 26.8112 442.102 25.2689C440.735 23.786 438.536 23.0149 435.444 23.0149H419.334V23.0743Z"/><path fill="#2F2E41" d="M505.116 72.2473L479.613 32.3276V72.2473H468.021V12.8126H481.218L504.937 51.0121V12.8126H516.589V72.2473H505.116Z"/><path fill="#2F2E41" d="M71.6329 71.4758C72.2274 72.069 72.1679 73.018 71.5735 73.5519C63.9643 80.6105 53.7395 84.9999 42.5636 84.9999C39.0563 84.9999 35.6084 84.5847 32.3388 83.7542C30.496 83.2797 28.6532 82.6866 26.8698 82.0341C24.7297 81.2037 22.6491 80.136 20.6874 78.9496C20.2712 78.7124 19.974 78.2379 19.974 77.704V41.4619C20.2118 35.5302 22.8274 30.1918 26.8698 26.2769C28.1776 25.0313 29.6638 23.9043 31.2688 22.9552C32.22 22.4214 33.4089 23.0739 33.4089 24.2009V68.9845C33.4089 69.637 33.825 70.1709 34.4789 70.3488C37.0351 71.1199 39.7696 71.4758 42.5636 71.4758C50.1133 71.4758 56.9496 68.6286 62.1215 63.8833C62.7159 63.3495 63.5482 63.3495 64.1427 63.9427L71.6329 71.4758Z"/><path fill="#00ADB5" d="M71.6329 13.4648L64.1426 20.9386C63.6076 21.4724 62.7159 21.4724 62.1215 20.9979C56.9496 16.3119 50.0538 13.4054 42.5636 13.4054C39.3535 13.4054 36.3217 13.9393 33.4089 14.8883C31.0904 15.6595 28.8909 16.7271 26.8698 18.0321C24.2541 19.693 21.9357 21.769 19.974 24.1417C19.974 24.1417 19.974 24.1417 19.974 24.201C15.8722 29.1835 13.4349 35.5897 13.4349 42.5297V69.9337C13.4349 71.2387 11.8298 71.8911 10.9381 70.8828C4.16125 63.3496 0 53.3845 0 42.4703C0 30.3105 5.17183 19.2777 13.4349 11.5073C15.4561 9.60921 17.6556 7.94836 19.974 6.46546C22.114 5.10119 24.4325 3.91486 26.8698 2.96581C28.9504 2.13538 31.1499 1.4829 33.4089 0.949058C36.3812 0.355897 39.4129 0 42.5636 0C53.7395 0 63.9643 4.33008 71.5734 11.448C72.1679 11.9819 72.1679 12.9309 71.6329 13.4648Z"/></svg>