<svg xmlns="http://www.w3.org/2000/svg" width="877" height="707" fill="none" viewBox="0 0 877 707"><g clip-path="url(#clip0)"><path fill="#00ADB5" d="M497.4 203.3C497.2 252 517.3 298.5 553 331.7L565.1 343.1L537.4 374.1C551.8 371.2 564.4 363.4 570.7 358.8L579.4 352.6L588.8 357.8C614.8 372 643.9 379.5 673.5 379.5C770.7 379.5 849.7 300.5 849.7 203.3C849.7 106.1 770.7 27.1001 673.5 27.1001C576.3 27.1001 497.4 106.1 497.4 203.3Z"/><path fill="#00ADB5" d="M673.3 406.6C641.4 406.6 609.7 399 581.3 384.5C569 392.4 548.9 402.4 526.4 402.4C516.7 402.4 507.4 400.5 498.6 396.8L485.8 391.4L527.5 344.6C491 306.9 470.3 255.9 470.3 203.3C470.3 91.2001 561.5 6.10352e-05 673.6 6.10352e-05C785.7 6.10352e-05 876.9 91.2001 876.9 203.3C876.9 315.4 785.7 406.6 673.6 406.6H673.3Z"/><path fill="#AAD8D3" d="M480.3 203.3C480.3 96.5001 566.8 10.0001 673.6 10.0001C780.4 10.0001 866.9 96.5001 866.9 203.3C866.9 310.1 780.4 396.6 673.6 396.6C641.1 396.6 609.1 388.5 580.7 372.8C567.3 382.3 534.7 401.3 502.5 387.6L541.3 344.2C502.3 307.7 480.2 256.7 480.3 203.3Z"/><path fill="#393E46" d="M831.4 203.3C831.4 102.3 753.9 19.4001 655.2 10.8001C660.8 10.3001 666.5 10.0001 672.3 10.0001C779 10.0001 865.6 96.5001 865.6 203.3C865.6 310.1 779 396.6 672.3 396.6C666.6 396.6 660.9 396.3 655.2 395.8C754 387.2 831.4 304.3 831.4 203.3Z" opacity=".1"/><path fill="#00ADB5" d="M228.1 654C116 654 24.8 562.8 24.8 450.7C24.8 338.6 116 247.4 228.1 247.4C340.2 247.4 431.4 338.6 431.4 450.7C431.5 503.4 410.7 554.3 374.2 592L415.9 638.8L403.1 644.2C394.4 647.9 385 649.8 375.3 649.8C352.8 649.8 332.7 639.7 320.4 631.9C292 646.4 260.3 654 228.4 654H228.1Z"/><path fill="#AAD8D3" d="M421.4 450.7C421.4 344 334.9 257.4 228.1 257.4C121.3 257.4 34.9 343.9 34.9 450.7C34.9 557.5 121.4 644 228.2 644C260.7 644 292.7 635.9 321.1 620.2C334.5 629.7 367.1 648.7 399.3 635L360.5 591.6C399.4 555.1 421.5 504 421.4 450.7Z"/><path fill="#393E46" d="M67.2 449.7C67.2 348.7 144.7 265.8 243.4 257.2C237.8 256.7 232.1 256.4 226.3 256.4C119.6 256.4 33 342.9 33 449.7C33 556.5 119.6 643 226.4 643C232.1 643 237.8 642.7 243.5 642.2C144.7 633.6 67.2 550.7 67.2 449.7Z" opacity=".1"/><path fill="#2F2E41" d="M718.9 141.9C706.3 120.5 681.2 119.5 681.2 119.5C681.2 119.5 656.8 116.4 641.2 148.9C626.6 179.2 606.5 208.5 638 215.6L643.7 197.9L647.2 216.9C651.7 217.2 656.2 217.3 660.7 217.1C694.4 216 726.5 217.4 725.4 205.3C724 189.4 731.1 162.4 718.9 141.9Z"/><path fill="#2F2E41" d="M636.2 329C635.8 331.4 635.3 333.7 634.6 335.9C633.8 338.1 632.6 340.2 631.9 342.4C629.6 349.6 632.8 357.6 637.9 363.1C642.3 367.9 648 371.3 654.4 372.9C659 373.9 663.8 374.4 668.5 374.4C681.6 374.8 695.1 375.2 707.6 371C711.5 369.6 715.3 367.9 719 365.8C720.1 365.3 721.1 364.5 721.9 363.5C722.7 362.1 723.1 360.4 723 358.7C723 353.1 721.8 347.6 722.1 342C722.2 338.9 722.8 335.8 722.5 332.8C721.7 325.6 716.5 319.8 709.5 318.1C706 317.3 702.3 317.8 698.7 318.1C689.4 319 680 319.4 670.6 319.4C661 319.3 651.5 317.9 642 317.7C639.2 317.7 639.2 318.5 638.3 321.3C637.4 323.9 636.7 326.4 636.2 329Z"/><path fill="#A0616A" d="M663.4 191.4C662.9 193.8 662.4 196.3 661 198.3C659.3 200.6 656.6 201.9 654.8 204.1C652.1 207.4 651.9 212 651.9 216.3C651.9 220.2 652 224.4 654.2 227.6C655.8 229.6 657.7 231.3 659.9 232.6C668.1 238.1 676.9 243.7 686.8 243.9C690.9 244 695.3 242.9 698 239.8C699.2 238.4 700.1 236.7 700.7 235C703.2 228.8 704.8 222.2 705.2 215.5C705.6 212.3 705.3 209.2 704.3 206.1C703.1 202.8 700.7 200 699.1 196.8C697.2 193 696.5 188.8 697.1 184.6C697.2 184.3 697.2 184 697 183.7C696.7 183.4 696.3 183.2 695.9 183.3L676.3 181.9C674.5 181.8 672.7 181.6 670.9 181.3C669.8 181.1 667.1 179.6 666 180C664.3 180.7 663.8 189.4 663.4 191.4Z"/><path fill="#393E46" d="M663.4 192C662.9 194.4 662.4 196.9 661 198.9C659.3 201.2 656.6 202.5 654.8 204.7C652.1 208 651.9 212.6 651.9 216.9C651.9 220.8 652 225 654.2 228.2C655.8 230.2 657.7 231.9 659.9 233.2C668.1 238.7 676.9 244.3 686.8 244.5C690.9 244.6 695.3 243.5 698 240.4C699.2 239 700.1 237.3 700.7 235.6C703.2 229.4 704.8 222.8 705.2 216.1C705.6 212.9 705.3 209.8 704.3 206.7C703.1 203.4 700.7 200.6 699.1 197.4C697.2 193.6 696.5 189.4 697.1 185.2C697.2 184.9 697.2 184.6 697 184.3C696.7 184 696.3 183.8 695.9 183.9L676.3 182.5C674.5 182.4 672.7 182.2 670.9 181.9C669.8 181.7 667.1 180.2 666 180.6C664.3 181.3 663.8 190 663.4 192Z" opacity=".1"/><path fill="#A0616A" d="M682.1 194C697.951 194 710.8 181.151 710.8 165.3C710.8 149.449 697.951 136.6 682.1 136.6C666.249 136.6 653.4 149.449 653.4 165.3C653.4 181.151 666.249 194 682.1 194Z"/><path fill="#fff" d="M667.4 229.6C668.8 231.2 670.5 232.6 672.4 233.6C674.4 234.4 676.5 234.8 678.7 234.8C683.9 234.9 689.5 234 693.1 230.3C697.7 225.5 697.6 217.8 701.2 212.2C701.5 211.7 701.9 211.3 702.4 210.9C703 210.6 703.7 210.4 704.4 210.4C709 210.4 713 213.3 716.6 216.2C718.3 217.4 719.8 218.9 720.9 220.6C721.6 222 722.1 223.5 722.4 225C724.2 233.8 724.8 242.7 725.4 251.6C725.7 256.5 726 261.5 726 266.4C725.9 282.7 722.1 298.7 718.4 314.5C717.9 316.5 717.3 318.8 715.4 319.8C714.6 320.2 713.7 320.4 712.8 320.4C702 321.7 691.2 322.9 680.4 323.1C676.2 323.2 671.9 323.1 667.7 322.8C667 322.8 666.3 322.7 665.6 322.4C664.7 322 663.9 321.3 663.3 320.4C657.4 313 657.1 302.8 657.1 293.4C657.2 270.3 658 247.3 659.6 224.3C659.7 222.4 659.8 220.1 658.4 218.6C661 222.6 664 226.3 667.4 229.6Z"/><path fill="#fff" d="M661.4 196.5C660.4 198.3 653.3 202.6 651.9 204.1C644.2 212.2 630.1 211.9 623 220.6C620.5 223.7 619.2 227.5 618.3 231.3C617 236.7 616.2 242.6 618.5 247.7C620.7 252.6 625.2 256 628.3 260.4C631.7 265.2 633.2 271.1 634.7 276.8C635.8 281 636.9 285.3 636.4 289.7C635.9 294.6 633.5 299.1 632.1 303.9C630.7 308.7 630.4 314.3 633.7 318C636.1 320.7 639.8 321.8 643.4 322.4C648 323.1 652.6 323.5 657.3 323.6C661.4 323.8 665.9 323.8 669.1 321.2C671.6 319.1 672.7 315.8 672.8 312.5C672.9 309.2 672.3 306.1 671.8 302.9C671.4 299.6 671.2 296.2 671.1 292.9C670.5 277.9 670.4 262.8 670.8 247.8C671 244.7 670.9 241.5 670.3 238.4C669.4 234.4 667.2 230.8 665.4 227.1C661.8 220.1 660.1 212.3 660.6 204.5C661.3 196.4 664.8 190.2 661.4 196.5Z"/><path fill="#fff" d="M701.7 197.1C703.2 198.6 708.2 199.1 710.1 200.1C711.9 200.9 713.7 201.6 715.6 202C722.5 204 729 207 735 210.9C736.2 211.6 737.3 212.6 738.2 213.7C739.1 215.2 739.8 217 740 218.8C740.9 223.4 741.8 228 741.6 232.6C741.4 237.5 739.9 242.3 738.4 247L732.9 264.6C728.8 277.7 724.6 291 723.5 304.8C722.9 312.4 723.1 320.1 724.3 327.6C724.5 328.3 724.4 329.1 724 329.8C723.6 330.2 723.2 330.4 722.7 330.4C720 330.8 717.5 329.5 715.1 328.3C707.7 324.6 699.9 322.1 691.8 320.7C695 316.1 697.4 311.1 699 305.8C699.9 302.4 700.7 299 701.2 295.5L703.8 280.7C704.8 275.3 705.6 269.8 706 264.3C706.2 262.2 706.1 260.2 705.6 258.1C705 256.2 704.2 254.3 703.3 252.5C699.1 243.7 697.1 233.7 698.8 224.1C699.5 219.9 700.9 215.7 700.4 211.5C699.8 207.4 700.4 204.3 699.4 200.3C695 183.6 698.9 194.2 701.7 197.1Z"/><path fill="#fff" d="M622.9 234.5C621 238.5 617.8 241.9 616.7 246.2C616.3 248.2 616.1 250.3 616.2 252.3C616 255.4 616.3 258.5 617.1 261.5C617.7 263.4 618.7 265.1 619.4 267C620.4 269.6 620.8 272.4 620.7 275.2C620.5 279 619.2 282.8 619.1 286.6C618.9 292.7 621.7 298.4 624.5 303.8C627.1 297.3 634.5 294.2 640.9 296.8C641.6 297.1 642.2 297.4 642.8 297.8C643.4 297 643.7 296 643.6 295.1C643.8 288.1 644 281 644.2 274C644.5 263.1 644.8 252.1 642.3 241.5C641.2 236.7 639.4 232 636.2 228.3C634.5 226.3 628.7 221.2 626 223.4C624.7 224.4 625 227.1 624.8 228.4C624.5 230.4 623.8 232.5 622.9 234.5Z"/><path fill="#fff" d="M742.2 223C743 225.9 743.3 228.9 743.2 231.8C743.2 237.9 743.2 244 743 250C743 253.1 742.6 256.2 741.8 259.2C741.2 261.2 740.2 263 739.6 264.9C737.7 270.7 738.7 277.1 738.9 283.2C739 285.2 738.8 287.2 738.4 289.1C737.4 292.9 734.7 296 732.7 299.4C730.9 302.7 729.8 306.4 727.6 309.4C725.4 312.4 721.7 314.9 718.1 313.9C715.4 313.2 713.4 310.8 712.1 308.3C709.2 302.8 708.1 296.5 709.2 290.4C710.6 282.9 714.9 276.3 716.5 268.9C718.7 258.7 715.4 248.2 715.5 237.8C715.5 236.2 715.7 234.5 716.2 233C717 230.6 718.8 228.7 720.5 226.8C722.6 224.4 724.5 221.9 726.2 219.3C727.4 217.5 729 213 731.1 212.7C735.6 212 741 219.4 742.2 223Z"/><path fill="#2F2E41" d="M598.7 324.5C596.1 323.9 593.5 323.6 590.8 323.7C579.9 324.3 571.6 333.6 572.2 344.4C572.2 345.2 572.3 346.1 572.5 346.9C573.1 349.9 574.2 352.8 575.6 355.4C577.7 359.6 580.2 363.9 584.1 366.6C586.4 368.1 588.9 369.3 591.6 370.2L612 377.9C615 379 618 380.2 621 381.2C636.2 386.5 652.1 389.6 668.2 390.6C673.1 391.1 678 390.8 682.9 389.9C684.1 389.7 685.1 389.2 685.9 388.3C686.3 387.6 686.5 386.9 686.6 386.1L687.9 377.3C688.2 376.1 688.1 374.8 687.8 373.6C687.2 372.1 685.8 371.2 684.4 370.4C671 362.7 655.3 358.4 644 347.9C641.3 345.4 639.1 341.5 635.9 339.8C632.2 337.9 627.9 336.8 624.1 335C615.8 331 607.7 326.5 598.7 324.5Z"/><path fill="#393E46" d="M619.1 336.3C626.3 338.6 656.8 354.2 662 359.7C661.3 360 637.6 346.7 636.9 346.4C630.4 344.6 624 342.4 617.8 339.7C616.6 339.1 609.8 336.4 610.1 334.9C610.3 333.1 617.8 335.9 619.1 336.3Z" opacity=".1"/><path fill="#A0616A" d="M709.1 395.1C709.5 395.1 709.9 395 710.2 394.8C710.5 394.4 710.6 394 710.6 393.5V381.5C707.2 379.9 703.3 379.3 699.5 378.8L681.9 376.4C682.3 376.5 679.1 384 679.6 385C680.5 386.8 687 388.3 688.8 389.2C695.2 392.1 701.8 395.3 709.1 395.1Z"/><path fill="#A0616A" d="M653.7 381.4C650.4 381.9 646.7 382.4 644.5 385C641.8 388.3 642.9 393.2 644.2 397.3C644.5 399.5 646.6 401 648.7 400.6H648.8C651.8 400.8 655.1 400.9 657.7 399.5C658.9 398.7 660.1 397.8 661.2 396.9C663.2 395.6 665.3 394.6 667.6 394C671.8 392.7 676 391.8 680.4 391.4C682.1 391.3 683.8 391 685.4 390.5C687.1 390 688.4 388.7 688.9 387.1C689.5 384.9 688.3 382.7 687 380.8C685.6 378.3 683.8 376.1 681.6 374.2C678.3 371.6 676.7 373.6 673.4 375.2C667.3 378.2 660.6 380.3 653.7 381.4Z"/><path fill="#2F2E41" d="M645 384.4L623.9 378.2C621.4 377.3 618.7 376.8 616 376.7C613.3 376.6 610.6 377.7 608.8 379.6C607.2 381.5 606.7 384.2 606.3 386.6L605.4 391.9C604.8 394.6 604.7 397.4 604.9 400.1C605.2 402.9 606.7 405.4 609.1 406.9C612 408.5 615.6 407.7 618.9 407C625.5 405.7 632.2 404.9 638.9 404.9C641.4 404.9 644.1 404.9 646.3 403.7C648.9 402.1 650.6 399.4 650.8 396.3C651.3 391.8 649.8 385.8 645 384.4Z"/><path fill="#2F2E41" d="M717.4 379C720.1 378.5 722.6 377 725.2 376C728.9 374.7 732.9 374.7 736.8 374.7C738.2 374.6 739.7 374.9 741 375.5C742.7 376.6 743.2 378.9 743.5 381L745.3 393.4C745.8 395.7 745.8 398.1 745.4 400.4C744.9 402.7 743.3 404.9 741 405.5C738.2 406.2 735.5 404.5 732.9 403.3C726.4 400.4 718.8 401.1 712 399C710.7 398.7 709.5 397.9 708.9 396.8C708.7 396.1 708.6 395.4 708.7 394.7C708.8 390.7 708 385.3 709.2 381.5C710.1 378 714.3 379 717.4 379Z"/><path fill="#2F2E41" d="M762.1 319.5C766.3 318.4 770.7 318.1 775 318.6C778.5 319 782 319.9 784.5 322.3C787.6 325.2 788.6 329.7 788.6 334C788.7 342.4 785.9 350.6 780.7 357.2C779.4 358.9 777.9 360.3 776.2 361.6C774.3 362.8 772.4 363.7 770.3 364.4L724.6 382.4C712.6 387.1 700.5 391.9 688 395C686.6 395.7 684.9 395.1 684.2 393.7C684.2 393.7 684.2 393.7 684.2 393.6C680.2 387.9 676.8 381.7 674.2 375.3C673.8 374.8 673.8 374 674.4 373.6C674.5 373.5 674.6 373.4 674.8 373.4L707.1 354.8C709.5 353.6 711.7 352 713.7 350.3C715.1 348.9 716.2 347.4 717.1 345.6C717.8 344.2 717.8 340.9 718.7 339.9C719.5 338.9 722.4 338.8 723.7 338.4C725.6 337.8 727.4 337.1 729.2 336.3C736.4 333.1 742.9 328.4 749.8 324.6C753.6 322.4 757.8 320.7 762.1 319.5Z"/><path fill="#393E46" d="M743.8 333.4C738.2 337.6 731.1 341.4 725.6 345.7C723.7 347.2 692.4 364.8 692 367.1C697.1 368 729.8 345.1 734.5 342.8C739.2 340.5 743.3 337.3 747.4 334.1C748.4 333.3 752.9 330.8 749.9 329.9C748.2 329.4 745.1 332.5 743.8 333.4Z" opacity=".1"/><path fill="#D0CDE1" d="M705.6 197.5H656.9C652.8 197.5 649.4 200.8 649.4 205V207.7H648.9V213.8H649.4V218.1H648.9V221.8H649.4V266.9C649.4 271 652.7 274.4 656.9 274.4H705.6C709.7 274.4 713.1 271.1 713.1 266.9V205C713.1 200.8 709.7 197.5 705.6 197.5Z"/><path fill="#2F2E41" d="M713.3 139.8L688.6 126.9L654.5 132.2L647.4 163.4L665 162.7L669.9 151.2V162.5L678 162.2L682.7 143.9L685.7 163.4L714.5 162.8L713.3 139.8Z"/><path fill="#A0616A" d="M629.4 315.5C630.5 317.4 632.1 319 634 320.1C636.5 321.3 639.5 321.2 641.9 319.9C644.3 318.6 646.3 316.6 647.6 314.2C650.3 309.5 650.8 303.8 650.5 298.3C650.2 292.8 649 287.5 648.5 282.1C648.1 278.2 648.1 274.2 648.1 270.2C648 269.4 648.2 268.5 648.6 267.8C649.3 267.1 650.2 266.6 651.2 266.5C656.6 264.9 660.2 259.8 662.8 254.8C664.5 251.4 666 247.8 665.7 244C665.4 240.2 662.7 236.4 658.9 236.1C655.8 235.8 652.9 237.8 650.7 239.9C645.1 245.4 641.4 252.6 640.4 260.5C639.9 264.3 640.1 268.3 639 272C636.8 279.9 629.8 284.8 626.4 291.9C622.6 299.6 624.7 308.5 629.4 315.5Z"/><path fill="#A0616A" d="M731.7 285.2C730.1 288.9 727.1 291.8 723.3 293.3C721 294.2 718.4 294.4 716 293.7C713.6 293 711.6 291.3 710.6 288.9C710.2 287.7 710 286.5 710 285.3C709.7 280 709.8 274.4 711.7 269.4C712.4 267.5 713.5 265.6 714.1 263.7C714.7 261.4 715 259.1 715 256.7L715.6 242.1C715.7 241 715.6 240 715.4 238.9C714.8 236.8 712.8 235.4 711 234.2C706.6 231.2 702.3 227.6 700.2 222.7C699.5 221.2 699.2 219.6 699.5 217.9C700.1 215 703 213.1 705.9 212.5C713.6 210.8 721.3 215.7 723 223.4C723 223.6 723.1 223.8 723.1 224C723.4 225.6 723.4 227.3 723.5 229C723.9 232.5 725 235.9 725.7 239.4C727.4 248 726.5 256.8 728.2 265.4C729.6 272.7 735 277.3 731.7 285.2Z"/><path fill="#393E46" d="M681.9 230.3C685.269 230.3 688 227.569 688 224.2C688 220.831 685.269 218.1 681.9 218.1C678.531 218.1 675.8 220.831 675.8 224.2C675.8 227.569 678.531 230.3 681.9 230.3Z"/><path fill="#2F2E41" d="M18 443.9C27.9411 443.9 36 435.841 36 425.9C36 415.959 27.9411 407.9 18 407.9C8.05887 407.9 0 415.959 0 425.9C0 435.841 8.05887 443.9 18 443.9Z"/><path fill="#FBBEBE" d="M83.4 479.4L74.3 470.6L56.1 476.3L57.8 497.4L95.3 495.6L83.8 480L83.4 479.4Z"/><path fill="#FBBEBE" d="M63.5 479.3C79.6267 479.3 92.7 466.227 92.7 450.1C92.7 433.973 79.6267 420.9 63.5 420.9C47.3733 420.9 34.3 433.973 34.3 450.1C34.3 466.227 47.3733 479.3 63.5 479.3Z"/><path fill="#2F2E41" d="M244.6 516.9C244.6 516.9 280.4 578.5 288.9 587.7C293 592.2 297.3 596.6 301.8 600.6C301.8 600.6 297.8 613.9 291.4 613.4C287.8 613.2 284.2 612.3 280.9 610.8C280.9 610.8 278.1 603.4 273.1 600.2C268.1 597 227.5 557 228.5 544.3C229.5 531.6 244.6 516.9 244.6 516.9Z"/><path fill="#2F2E41" d="M117 604.7C117 604.7 155.2 634.3 207.1 606.5L211.6 603.2C211.6 603.2 204.1 620.2 203.4 624.8C202.6 630.1 182.9 661.4 179.7 662.9C176.5 664.4 175.8 665.8 175.8 665.8L189.4 680.8L194.4 677.1C194.4 677.1 214 649.3 219.8 644.2C225.6 639.1 252.9 586.7 252.9 586.7C252.9 586.7 263.4 566.9 237.3 565.5C211.2 564 199.2 571.1 199.2 571.1L152.9 578.5L117 604.7Z"/><path fill="#2F2E41" d="M302.3 597.6L321.6 611C321.6 611 346.2 618.7 331.1 623.9C316 629.1 275.9 630.9 275 623.8C274.1 616.7 276.6 605.6 278.6 606.2C280.5 606.7 294.4 610.3 302.3 597.6Z"/><path fill="#2F2E41" d="M196.1 672.5L199.7 692.1C199.7 692.1 209.9 711.5 197.7 705.5C185.5 699.5 160.3 676.6 164.1 671.7C167.9 666.8 176 661.7 176.8 663.3C177.5 664.9 183.7 675.3 196.1 672.5Z"/><path fill="#fff" d="M159.2 584.8C159.2 584.8 133.2 615.1 117.5 607.7C101.8 600.3 37.3 515.1 44.6 499.3C52 483.5 54.4 486.9 54.4 486.9L87.7 490L78.1 474.6C78.1 474.6 82.6 471.3 86.8 475.9C91 480.5 108.2 492.1 114.1 508.4C120.1 524.7 137.6 523.9 137.6 523.9L159.2 584.8Z"/><path fill="#393E46" d="M264.1 522.3L219.1 570.1L178.8 498.9L217.1 452.6L264.1 522.3Z"/><path fill="#fff" d="M260.7 521.8L220 563.8L183.2 499.1L217 456.5L260.7 521.8Z"/><path fill="#B3B3B3" d="M216.9 568.3L219.1 570.1L217.7 572.8L154.7 591.6L154.1 589.4L157 586.5L216.9 568.3Z"/><path fill="#D0CDE1" d="M219.6 569.7L154.5 590L114.7 515L178.8 498.9L219.6 569.7Z"/><path fill="#393E46" d="M214.7 559.5L211.9 561.5L180.9 507.7L184.1 506.2L214.7 559.5Z" opacity=".9"/><path fill="#393E46" d="M208.3 562.5L180.7 570.7L149.5 515.3L176.7 509L208.3 562.5Z"/><path fill="#FBBEBE" d="M130.7 521.4L136.4 519.8C136.4 519.8 168.2 516.2 168.7 526.2C169.2 536.2 132.1 531.6 132.1 531.6L127.2 524.9L130.7 521.4Z"/><path fill="#FBBEBE" d="M158.6 566.3L166.5 563C166.5 563 190.5 552.2 183.6 545.2C176.7 538.2 155.5 550.4 155.5 550.4L151.4 554.3L158.6 566.3Z"/><path fill="#fff" d="M151.5 550.9C151.5 550.9 164.4 563.8 161.5 566.8C158.6 569.8 110.3 609.7 98.3 596.9C86.3 584.2 28 520.2 50.7 514.7C73.4 509.2 79.4 522 79.4 522L109.3 573.2L151.5 550.9Z"/><path fill="#fff" d="M112.8 511.7L134 518.9L133.7 534.2L111.2 531.8L112.8 511.7Z"/><path fill="#393E46" d="M131.9 558.8L109 572.2L82.9 532L108.1 565.1L131.9 558.8Z" opacity=".2"/><path fill="#2F2E41" d="M85.3834 443.248C86.2518 424.103 71.4356 407.879 52.2905 407.01C33.1454 406.142 16.9212 420.958 16.0528 440.103C15.1843 459.248 30.0005 475.473 49.1457 476.341C68.2908 477.209 84.5149 462.393 85.3834 443.248Z"/><path fill="#393E46" d="M238.3 525.3L214 489.8L224.3 477L249.6 513.6L238.3 525.3Z"/><path fill="#E6E6E6" d="M237.6 539.6L200.6 485.8L202.4 483.6L239.3 537.6L237.6 539.6Z"/><path fill="#E6E6E6" d="M232.8 544.9L195.8 491.1L197.7 488.9L234.5 542.8L232.8 544.9Z"/><path fill="#E6E6E6" d="M228.8 548.7L191.8 494.9L193.6 492.7L230.4 546.6L228.8 548.7Z"/><path fill="#2F2E41" d="M66.1 418.5H76.8C88.1 418.5 97.3 427.7 97.3 439H66.1V418.5Z"/><path fill="#00ADB5" d="M214 405.4L212.1 405.3C212 406.3 212 407.3 211.9 408.3L203.2 408L212.4 425.2L222.7 408.7L213.9 408.4C213.9 407.4 214 406.4 214 405.4Z"/><path fill="#00ADB5" d="M265.3 265.4L266.9 266.6C269.2 263.6 271.7 260.5 274.1 257.6L272.6 256.3C270.1 259.3 267.6 262.3 265.3 265.4Z"/><path fill="#00ADB5" d="M280.2 247.5L281.6 248.8C284.2 246 286.9 243.1 289.6 240.4L288.2 239C285.6 241.8 282.8 244.7 280.2 247.5Z"/><path fill="#00ADB5" d="M296.7 231L298 232.4C300.8 229.8 303.8 227.2 306.7 224.8L305.4 223.3C302.5 225.8 299.6 228.4 296.7 231Z"/><path fill="#00ADB5" d="M252 284.6L253.7 285.6C255.8 282.4 257.9 279.1 260.1 275.9L258.5 274.8C256.2 278 254 281.3 252 284.6Z"/><path fill="#00ADB5" d="M314.5 216L315.7 217.5C318.8 215.2 321.9 212.9 325 210.7L323.9 209.1C320.8 211.3 317.6 213.7 314.5 216Z"/><path fill="#00ADB5" d="M240.4 304.8L242.1 305.7C243.9 302.3 245.7 298.9 247.6 295.5L245.9 294.5C244 297.9 242.1 301.4 240.4 304.8Z"/><path fill="#00ADB5" d="M221.5 359.8L219.6 359.3C218.6 363 217.7 366.9 216.9 370.7L218.8 371.1C219.7 367.3 220.6 363.5 221.5 359.8Z"/><path fill="#00ADB5" d="M333.6 202.7L334.6 204.3C337.8 202.2 341.2 200.2 344.5 198.3L343.5 196.6C340.2 198.6 336.9 200.6 333.6 202.7Z"/><path fill="#00ADB5" d="M216.8 382.4L214.9 382.1C214.3 385.9 213.7 389.8 213.3 393.6L215.2 393.8C215.6 390.1 216.1 386.2 216.8 382.4Z"/><path fill="#00ADB5" d="M230.6 326.1L232.4 326.8C233.8 323.2 235.4 319.7 237 316.2L235.2 315.4C233.6 318.9 232.1 322.5 230.6 326.1Z"/><path fill="#00ADB5" d="M222.8 348.1L224.7 348.7C225.8 345 227 341.3 228.3 337.7L226.5 337C225.2 340.6 223.9 344.4 222.8 348.1Z"/><path fill="#00ADB5" d="M465.7 163.7C469.5 163.6 473.4 163.5 477.3 163.6V161.6C473.4 161.6 469.5 161.6 465.6 161.8L465.7 163.7Z"/><path fill="#00ADB5" d="M353.8 191L354.7 192.7C358.1 190.9 361.6 189.2 365.1 187.6L364.3 185.8C360.8 187.5 357.2 189.3 353.8 191Z"/><path fill="#00ADB5" d="M511.9 166.2C515.7 166.7 519.6 167.4 523.3 168.1L523.7 166.2C519.9 165.5 516 164.9 512.2 164.3L511.9 166.2Z"/><path fill="#00ADB5" d="M534.6 170.4C538.3 171.3 542.1 172.2 545.8 173.3L546.3 171.4C542.6 170.4 538.8 169.4 535 168.5L534.6 170.4Z"/><path fill="#00ADB5" d="M556.9 176.7C560.5 177.9 564.2 179.2 567.8 180.6L568.5 178.8C564.9 177.4 561.2 176.1 557.5 174.9L556.9 176.7Z"/><path fill="#00ADB5" d="M488.8 163.9C492.6 164.1 496.5 164.4 500.3 164.8L500.5 162.9C496.7 162.5 492.7 162.2 488.9 162L488.8 163.9Z"/><path fill="#00ADB5" d="M442.4 163.6L442.6 165.5C446.4 165 450.3 164.6 454.1 164.3L453.9 162.4C450.1 162.8 446.2 163.1 442.4 163.6Z"/><path fill="#00ADB5" d="M396.8 173.4L397.4 175.3C401.1 174.2 404.8 173.1 408.5 172.1L408 170.2C404.3 171.2 400.5 172.2 396.8 173.4Z"/><path fill="#00ADB5" d="M374.9 181.3L375.6 183.1C379.1 181.6 382.8 180.2 386.4 179L385.7 177.2C382.2 178.4 378.5 179.8 374.9 181.3Z"/><path fill="#00ADB5" d="M419.4 167.5L419.8 169.4C423.6 168.6 427.4 167.9 431.2 167.2L430.9 165.3C427 165.9 423.2 166.7 419.4 167.5Z"/><path fill="#00ADB5" d="M597 192.6L586.1 176.5L582.3 184.4C581.4 184 580.4 183.6 579.5 183.2L578.7 185C579.6 185.4 580.5 185.8 581.4 186.2L577.6 194.1L597 192.6Z"/></g><defs><clipPath id="clip0"><rect width="876.8" height="706.7" fill="#fff"/></clipPath></defs></svg>