<svg width="516" height="361" viewBox="0 0 516 361" fill="none" xmlns="http://www.w3.org/2000/svg">
<path d="M426.413 285.987C328.319 256.769 330.219 305.613 301.322 265.369C272.426 225.125 281.579 169.108 321.768 140.25C361.957 111.393 417.962 120.624 446.858 160.868C475.755 201.112 524.506 315.204 426.413 285.987Z" fill="#AAD8D3"/>
<g clip-path="url(#clip0)">
<path d="M179.414 89.5841C98.4676 152.223 139.251 179.168 89.7072 179.168C40.1633 179.168 0 139.06 0 89.5841C0 40.1082 40.1633 6.10352e-05 89.7072 6.10352e-05C139.251 6.10352e-05 260.361 26.9452 179.414 89.5841Z" fill="#AAD8D3"/>
<path d="M179.414 89.5841C98.4676 152.223 139.251 179.168 89.7072 179.168C40.1633 179.168 0 139.06 0 89.5841C0 40.1082 40.1633 6.10352e-05 89.7072 6.10352e-05C139.251 6.10352e-05 260.361 26.9452 179.414 89.5841Z" fill="#AAD8D3"/>
<path d="M198.44 182.071C198.44 192.482 160.025 216.145 109.38 216.145C58.7345 216.145 14.8359 192.482 14.8359 182.071C14.8359 179.467 19.136 182.701 23.7724 180.449C37.2703 173.88 69.4557 178.722 105.986 178.452C107.113 178.441 108.244 178.436 109.38 178.436C160.025 178.436 198.44 171.66 198.44 182.071Z" fill="#007C82"/>
<path opacity="0.1" d="M198.44 182.071C198.44 192.482 160.025 216.145 109.38 216.145C58.7345 216.145 14.8359 192.482 14.8359 182.071C14.8359 179.467 19.136 182.701 23.7724 180.449C37.2703 173.88 69.4557 178.722 105.986 178.452C107.113 178.441 108.244 178.436 109.38 178.436C160.025 178.436 198.44 171.66 198.44 182.071Z" fill="#393E46"/>
<path d="M198.236 181.876C198.236 192.287 157.181 200.731 106.536 200.731C55.8911 200.731 14.8359 192.287 14.8359 181.876C14.8359 179.272 17.3984 176.796 22.0348 174.543C35.5328 167.975 66.6123 163.307 103.142 163.037C104.269 163.027 105.401 163.022 106.536 163.022C157.181 163.022 198.236 171.466 198.236 181.876Z" fill="#007C82"/>
<path opacity="0.1" d="M104.233 163.424C100.338 169.765 95.0556 175.144 88.7824 179.156C82.5092 183.168 75.4078 185.711 68.0106 186.592C60.6134 187.473 53.1124 186.671 46.07 184.244C39.0276 181.818 32.6267 177.832 27.347 172.583C40.1424 167.354 69.6042 163.639 104.233 163.424Z" fill="#393E46"/>
<path d="M63.174 178.826C88.3001 178.826 108.669 157.032 108.669 130.149C108.669 103.265 88.3001 81.4712 63.174 81.4712C38.048 81.4712 17.6794 103.265 17.6794 130.149C17.6794 157.032 38.048 178.826 63.174 178.826Z" fill="#007C82"/>
<path d="M112.669 54.7271V66.1382L106.801 72.9232C106.801 72.9232 104.331 71.9979 104.331 65.8298L103.404 56.886L112.669 54.7271Z" fill="#FFB9B9"/>
<path d="M106.801 66.1382C106.801 66.1382 116.375 59.6617 116.684 57.5028C116.993 55.3439 130.581 45.4749 128.419 51.6431C126.258 57.8112 119.463 60.5869 119.463 60.5869C119.463 60.5869 114.213 74.7736 109.581 74.4652C104.948 74.1568 104.948 68.2971 106.801 66.1382Z" fill="#FFB9B9"/>
<path d="M101.242 135.53L100.316 141.081L105.257 139.847V135.53H101.242Z" fill="#FFB9B9"/>
<path d="M102.169 138.614C102.169 138.614 107.88 135.235 108.113 136.77C108.345 138.305 110.816 144.165 112.051 144.782C113.287 145.399 114.831 152.184 112.051 151.875C109.899 151.636 102.003 147.513 98.5516 145.665C98.1267 145.436 97.8059 145.054 97.655 144.596C97.5042 144.138 97.5348 143.64 97.7407 143.204C97.9431 142.83 98.0828 142.425 98.154 142.006C98.154 141.39 102.169 138.614 102.169 138.614Z" fill="#2F2E41"/>
<path d="M99.3894 76.0072C99.3894 76.0072 121.934 86.4931 119.772 94.5117C117.61 102.53 109.581 136.455 109.581 136.455C109.581 136.455 100.625 138.614 100.007 136.455C99.3894 134.296 105.875 100.68 105.257 99.4462C104.639 98.2125 93.2127 90.194 93.2127 90.194L69.7416 80.3249L79.6242 71.0727L99.3894 76.0072Z" fill="#2F2E41"/>
<path d="M116.375 137.38L119.155 144.474L114.213 146.633L111.125 141.081L116.375 137.38Z" fill="#FFB9B9"/>
<path d="M99.6982 25.4285C99.6982 25.4285 96.9187 29.1293 99.0805 30.9798C101.242 32.8302 99.6982 39.6152 99.6982 39.6152L96.9187 47.3254L85.8008 45.1665V32.5218L86.4184 26.3537C86.4184 26.3537 91.9774 21.1108 92.5951 17.1015C93.2127 13.0922 99.6982 25.4285 99.6982 25.4285Z" fill="#FFB9B9"/>
<path opacity="0.1" d="M99.6982 25.4285C99.6982 25.4285 96.9187 29.1293 99.0805 30.9798C101.242 32.8302 99.6982 39.6152 99.6982 39.6152L96.9187 47.3254L85.8008 45.1665V32.5218L86.4184 26.3537C86.4184 26.3537 91.9774 21.1108 92.5951 17.1015C93.2127 13.0922 99.6982 25.4285 99.6982 25.4285Z" fill="#393E46"/>
<path d="M81.1683 73.54C81.1683 73.54 95.6834 89.5771 95.6834 90.1939C95.6834 90.8108 103.404 103.455 103.404 103.455L118.537 137.072C118.537 137.072 112.669 145.09 110.198 144.474C107.728 143.857 90.1244 108.082 90.1244 108.082C90.1244 108.082 87.0361 100.063 78.6976 98.2125C70.3592 96.3621 63.8737 89.8855 66.962 82.4838C70.0503 75.082 81.1683 73.54 81.1683 73.54Z" fill="#2F2E41"/>
<path d="M99.6982 27.5873C105.156 27.5873 109.581 23.1688 109.581 17.7183C109.581 12.2678 105.156 7.84925 99.6982 7.84925C94.2402 7.84925 89.8156 12.2678 89.8156 17.7183C89.8156 23.1688 94.2402 27.5873 99.6982 27.5873Z" fill="#FFB9B9"/>
<path d="M99.3893 33.7554C99.3893 33.7554 98.154 40.8488 96.9187 41.4656C95.6833 42.0824 94.7569 44.2413 91.9774 41.1572C89.1979 38.0731 86.7272 31.905 86.7272 31.905L77.1535 43.6245L76.227 76.0072C76.227 76.0072 87.0361 73.2316 90.4332 76.0072C93.8304 78.7829 101.242 78.4745 101.242 78.4745L99.6982 72.3063L100.933 61.8205L100.625 52.2599L100.316 45.4749L99.3893 33.7554Z" fill="#F2F2F2"/>
<path d="M98.3014 28.5643C98.3014 28.5643 102.478 30.6714 102.787 31.905C103.095 33.1386 108.654 35.6059 108.654 35.6059C108.654 35.6059 110.816 37.7647 110.816 38.9984C110.816 40.232 103.404 54.4187 103.404 54.4187C103.404 54.4187 101.86 63.9794 102.478 65.8298C103.095 67.6802 101.242 74.7736 101.242 74.7736L104.948 79.0913H101.551C101.551 79.0913 97.8452 77.2408 97.8452 76.3156C97.8452 75.3904 98.4629 68.9139 98.7717 66.1382C99.0805 63.3625 99.0805 53.4935 98.4629 50.101C97.8452 46.7085 98.154 37.7647 98.154 35.6059C98.154 33.447 98.3014 28.5643 98.3014 28.5643Z" fill="#007C82"/>
<path d="M88.7347 23.8813C88.7347 23.8813 87.345 24.1948 83.3302 25.4285C79.3154 26.6621 73.1387 28.5125 70.9769 30.9798C69.4595 32.8044 68.1155 34.7661 66.9621 36.8395L68.1974 59.0448C68.1974 59.0448 65.7268 63.6709 66.0356 66.1382C66.3445 68.6054 68.8151 68.9139 66.9621 74.1568C65.1092 79.3997 61.4032 84.0258 64.8003 84.6426C68.1975 85.2594 77.1536 83.1006 81.1684 84.3342C85.1832 85.5678 89.8156 79.7081 89.8156 79.7081C89.8156 79.7081 83.639 80.3249 84.5655 77.8577C85.492 75.3904 95.6834 47.6338 93.5216 41.4656C91.3598 35.2975 88.7347 23.8813 88.7347 23.8813Z" fill="#007C82"/>
<path d="M109.272 37.4564L110.816 38.69C110.816 38.69 115.14 54.1103 113.904 55.6524C112.669 57.1944 102.786 60.5869 102.169 58.428C101.551 56.2692 109.272 37.4564 109.272 37.4564Z" fill="#007C82"/>
<path d="M63.565 48.2506C63.565 48.2506 58.9325 61.5121 58.9325 65.213C58.9325 68.9139 59.5502 90.5024 59.5502 90.5024C59.5502 90.5024 59.859 99.7546 66.3444 96.0537C72.8299 92.3528 66.3444 89.8856 66.3444 89.8856C66.3444 89.8856 66.6533 65.5214 69.1239 62.1289C71.5946 58.7364 72.5211 53.8019 72.5211 53.8019L63.565 48.2506Z" fill="#FFB9B9"/>
<path d="M114.213 144.165C114.213 144.165 118.846 141.698 119.772 143.548C120.699 145.399 125.64 155.576 125.022 156.81C124.405 158.044 121.007 162.978 116.993 161.744C112.978 160.511 112.669 154.034 112.669 154.034L112.36 146.632L114.213 144.165Z" fill="#2F2E41"/>
<path d="M101.633 15.3344C100.953 15.6544 100.145 15.8456 99.7173 16.4637C99.4003 16.9217 99.3688 17.5169 99.1375 18.0235C98.885 18.5251 98.4506 18.9117 97.9226 19.1045C97.3946 19.2973 96.8129 19.2818 96.296 19.0612C96.1697 18.4469 95.812 17.9044 95.2968 17.5458C95.0365 17.3749 94.7282 17.2918 94.4172 17.3089C94.1062 17.3259 93.8088 17.4422 93.5689 17.6405C92.9324 18.2466 93.1576 19.3034 92.8606 20.13C92.5818 20.7116 92.1982 21.2369 91.7289 21.6798C91.0529 22.4586 90.5144 23.372 89.7004 24.0056C88.8864 24.6392 87.6519 24.9138 86.8432 24.2735C86.1632 23.7351 86.0222 22.7417 86.1873 21.8909C86.3525 21.0401 86.762 20.2566 86.993 19.4212C87.7435 16.7067 86.547 13.8086 86.9172 11.0169C87.3915 7.43981 90.4361 4.61424 93.8344 3.388C95.2485 2.81292 96.7967 2.64911 98.3001 2.9155C99.8543 3.26203 101.182 4.2501 102.67 4.81519C104.262 5.4195 105.993 5.52502 107.659 5.8783C109.324 6.23159 111.038 6.91465 112.005 8.31466C112.679 9.29113 112.911 10.5038 113.47 11.5505C114.113 12.7451 115.155 13.6772 116.414 14.1848L114.653 14.0846C114.949 14.8695 115.43 15.5712 116.056 16.1294C115.231 16.2976 114.372 16.1843 113.619 15.8076C113.632 16.1691 113.72 16.5239 113.876 16.8501C114.033 17.1764 114.254 17.4672 114.528 17.7045C113.173 17.6638 111.744 17.6014 110.599 16.8766C110.038 16.5216 109.581 16.0271 109.053 15.6247C107.928 14.7669 106.533 14.3598 105.172 13.9699C104.458 13.7652 103.598 13.4805 102.952 13.9393C102.414 14.3213 102.329 15.0074 101.633 15.3344Z" fill="#2F2E41"/>
<path d="M71.5945 33.1386L66.9621 36.8395L60.7855 51.0263C60.7855 51.0263 69.4327 57.8112 71.5945 56.886C73.7564 55.9608 77.4623 39.6152 77.4623 39.6152L71.5945 33.1386Z" fill="#007C82"/>
<path d="M141.074 50.0667L121.582 60.759C121.469 60.8339 121.341 60.8833 121.207 60.9035C121.072 60.9237 120.935 60.9143 120.805 60.876C120.675 60.8377 120.555 60.7713 120.453 60.6816C120.352 60.592 120.271 60.4811 120.217 60.3569L115.442 50.3895C115.351 50.1054 115.366 49.7982 115.483 49.524C115.6 49.2498 115.812 49.0267 116.08 48.8954L132.264 40.5651C132.463 40.4454 132.7 40.4033 132.928 40.4469C133.157 40.4905 133.361 40.6168 133.502 40.8015L141.586 48.4069C141.666 48.5486 141.716 48.7049 141.733 48.8664C141.75 49.0279 141.734 49.1912 141.687 49.3464C141.639 49.5016 141.56 49.6455 141.454 49.7693C141.349 49.8932 141.22 49.9943 141.074 50.0667Z" fill="#2F2E41"/>
<path d="M139.773 48.5943L121.5 59.0246L116.637 50.2724L132.313 41.7592L139.773 48.5943Z" fill="#EEEEEE"/>
<path d="M124.441 45.5794C124.536 45.4655 124.535 45.3074 124.437 45.2264C124.34 45.1453 124.184 45.172 124.089 45.2859C123.994 45.3998 123.996 45.5579 124.093 45.6389C124.19 45.72 124.346 45.6933 124.441 45.5794Z" fill="#F2F2F2"/>
<path d="M131.167 54.4849C131.231 54.409 131.23 54.3036 131.165 54.2496C131.1 54.1956 130.996 54.2133 130.933 54.2893C130.869 54.3652 130.87 54.4706 130.935 54.5246C131 54.5787 131.104 54.5609 131.167 54.4849Z" fill="#F2F2F2"/>
<path d="M39.4173 178.354C39.4173 185.419 35.212 187.886 30.0237 187.886C29.9036 187.886 29.7834 187.884 29.6641 187.882C29.4237 187.877 29.1851 187.865 28.95 187.849C24.2675 187.518 20.6302 184.925 20.6302 178.354C20.6302 171.556 29.3295 162.977 29.9848 162.34L29.9857 162.339C30.0108 162.314 30.0237 162.302 30.0237 162.302C30.0237 162.302 39.4173 171.29 39.4173 178.354Z" fill="#00ADB5"/>
<path d="M29.6814 186.805L33.1172 182.012L29.6727 187.332L29.6641 187.882C29.4238 187.877 29.1851 187.865 28.95 187.849L29.32 180.781L29.3174 180.726L29.3235 180.717L29.3589 180.048L25.9058 174.715L29.3693 179.548L29.3779 179.689L29.6572 174.349L26.7012 168.838L29.6935 173.412L29.9849 162.34L29.9857 162.302V162.339L29.9373 171.07L32.8803 167.609L29.9252 171.822L29.8474 176.603L32.5959 172.015L29.8361 177.307L29.7929 179.965L33.7812 173.578L29.7774 180.893L29.6814 186.805Z" fill="#007C82"/>
<path d="M170.621 163.751C170.621 170.816 166.415 173.283 161.227 173.283C161.107 173.283 160.987 173.281 160.868 173.279C160.627 173.273 160.389 173.262 160.153 173.246C155.471 172.915 151.834 170.321 151.834 163.751C151.834 156.953 160.533 148.373 161.188 147.737L161.189 147.736C161.214 147.711 161.227 147.699 161.227 147.699C161.227 147.699 170.621 156.687 170.621 163.751Z" fill="#00ADB5"/>
<path d="M160.885 172.202L164.321 167.408L160.876 172.729L160.868 173.279C160.627 173.273 160.389 173.262 160.153 173.246L160.523 166.178L160.521 166.123L160.527 166.113L160.562 165.445L157.109 160.112L160.573 164.944L160.581 165.086L160.861 159.746L157.905 154.235L160.897 158.809L161.188 147.737L161.189 147.699V147.736L161.141 156.467L164.084 153.005L161.129 157.219L161.051 162L163.799 157.411L161.04 162.704L160.996 165.362L164.985 158.975L160.981 166.289L160.885 172.202Z" fill="#007C82"/>
<path d="M365.267 106.065H209.102V191.933H365.267V106.065Z" fill="#F2F2F2"/>
<path opacity="0.3" d="M235.273 149.946C242.381 149.946 248.144 144.192 248.144 137.093C248.144 129.994 242.381 124.24 235.273 124.24C228.165 124.24 222.402 129.994 222.402 137.093C222.402 144.192 228.165 149.946 235.273 149.946Z" fill="#00ADB5"/>
<path opacity="0.3" d="M287.185 149.946C294.293 149.946 300.056 144.192 300.056 137.093C300.056 129.994 294.293 124.24 287.185 124.24C280.077 124.24 274.314 129.994 274.314 137.093C274.314 144.192 280.077 149.946 287.185 149.946Z" fill="#00ADB5"/>
<path opacity="0.3" d="M339.097 149.946C346.205 149.946 351.968 144.192 351.968 137.093C351.968 129.994 346.205 124.24 339.097 124.24C331.988 124.24 326.226 129.994 326.226 137.093C326.226 144.192 331.988 149.946 339.097 149.946Z" fill="#00ADB5"/>
<path opacity="0.3" d="M252.648 159.586H217.468V163.013H252.648V159.586Z" fill="#00ADB5"/>
<path opacity="0.3" d="M304.989 159.586H269.809V163.013H304.989V159.586Z" fill="#00ADB5"/>
<path d="M357.33 159.586H322.15V163.013H357.33V159.586Z" fill="#00ADB5"/>
<path d="M484 274.011C484 285.007 443.427 310 389.936 310C336.446 310 290.081 285.007 290.081 274.011C290.081 271.261 294.622 274.677 299.519 272.298C313.776 265.36 347.769 270.474 386.352 270.189C387.542 270.178 388.737 270.173 389.936 270.173C443.427 270.173 484 263.016 484 274.011Z" fill="#007C82"/>
<path opacity="0.1" d="M484 274.011C484 285.007 443.427 310 389.936 310C336.446 310 290.081 285.007 290.081 274.011C290.081 271.261 294.622 274.677 299.519 272.298C313.776 265.36 347.769 270.474 386.352 270.189C387.542 270.178 388.737 270.173 389.936 270.173C443.427 270.173 484 263.016 484 274.011Z" fill="#393E46"/>
<path d="M483.785 273.806C483.785 284.801 440.424 293.72 386.933 293.72C333.443 293.72 290.081 284.801 290.081 273.806C290.081 271.055 292.787 268.44 297.684 266.061C311.941 259.123 344.766 254.193 383.349 253.908C384.539 253.897 385.734 253.892 386.933 253.892C440.424 253.892 483.785 262.81 483.785 273.806Z" fill="#007C82"/>
<path d="M391.95 256.122C404.755 256.122 415.135 244.366 415.135 229.864C415.135 215.363 404.755 203.607 391.95 203.607C379.146 203.607 368.766 215.363 368.766 229.864C368.766 244.366 379.146 256.122 391.95 256.122Z" fill="#36334A"/>
<path d="M402.136 182.354L367.291 183.425C367.291 183.425 331.546 216.926 357.009 226.027C357.009 226.027 393.291 227.589 400.795 221.701C400.795 221.701 410.177 184.763 402.136 182.354ZM400.527 192.258L363.271 194.667C363.271 194.667 365.951 185.566 376.673 185.566C387.394 185.566 399.455 183.157 400.527 188.778C401.6 194.399 400.527 192.258 400.527 192.258Z" fill="#2F2E41"/>
<path d="M437.784 203.5L391.95 201.894L402.672 156.658C402.672 156.658 445.557 153.447 444.484 164.421C443.412 175.395 437.784 203.5 437.784 203.5Z" fill="#36334A"/>
<path d="M393.537 225.123C393.537 225.123 365.951 229.998 356.034 215.544C346.117 201.091 393.559 208.853 393.559 208.853L397.579 219.827L393.537 225.123Z" fill="#36334A"/>
<path d="M385.25 286.475C392.207 286.475 397.847 280.843 397.847 273.895C397.847 266.947 392.207 261.315 385.25 261.315C378.292 261.315 372.652 266.947 372.652 273.895C372.652 280.843 378.292 286.475 385.25 286.475Z" fill="#36334A"/>
<path d="M386.456 282.995C390.823 282.995 394.363 278.921 394.363 273.895C394.363 268.869 390.823 264.794 386.456 264.794C382.089 264.794 378.549 268.869 378.549 273.895C378.549 278.921 382.089 282.995 386.456 282.995Z" fill="#007C82"/>
<path d="M454.134 155.32C454.134 155.32 443.68 149.432 443.144 163.35L434.299 228.125H438.052L448.237 158.8C448.237 158.8 453.33 159.603 454.134 159.603C454.938 159.603 454.134 155.32 454.134 155.32Z" fill="#2F2E41"/>
<path d="M464.549 162.467C464.454 162.811 464.286 163.13 464.056 163.404C463.827 163.678 463.542 163.899 463.22 164.054C462.898 164.208 462.546 164.292 462.189 164.3C461.832 164.308 461.477 164.239 461.149 164.099L449.022 158.922L451.222 154.083L463.173 159.519C463.717 159.766 464.154 160.199 464.406 160.739C464.658 161.28 464.709 161.893 464.549 162.467Z" fill="#36334A"/>
<path d="M390.878 223.574C390.878 223.574 371.58 221.433 366.219 239.902C360.859 258.371 361.395 272.557 356.838 271.486C352.282 270.415 342.633 266.668 342.633 266.668L343.437 272.289C343.437 272.289 360.323 280.854 363.003 271.754C365.683 262.653 367.291 229.195 382.569 229.998C397.847 230.801 400.527 229.195 400.527 229.195L390.878 223.574Z" fill="#2F2E41"/>
<path d="M354.158 214.741C354.158 214.741 339.148 216.615 333.252 227.589C327.355 238.563 324.406 258.371 324.406 258.371H330.035C330.035 258.371 333.252 219.024 350.137 221.165L354.158 214.741Z" fill="#2F2E41"/>
<path d="M343.973 276.036L320.118 261.315C320.118 261.315 318.778 255.962 334.056 253.82C334.056 253.82 362.941 263.908 360.157 267.697C357.374 271.486 347.993 277.375 343.973 276.036Z" fill="#36334A"/>
<path d="M388.261 191.424C388.996 192.223 402.513 205.066 402.513 205.066C402.513 205.066 401.17 214.03 386.707 215.143L362.603 216.997C362.603 216.997 358.047 233.694 352.63 239.029C347.213 244.365 349.699 244.663 347.666 247.264C345.633 249.864 348.486 250.561 345.4 250.814C342.314 251.067 335.938 247.341 335.869 244.459C335.8 241.577 337.6 239.926 338.4 239.192C339.2 238.458 341.229 231.443 342.445 229.959C343.662 228.475 348.267 210.629 348.267 210.629C348.267 210.629 352.863 201.995 359.236 201.307C365.608 200.618 372.697 197.523 372.697 197.523" fill="#2F2E41"/>
<path opacity="0.1" d="M388.261 191.424C388.996 192.223 402.513 205.066 402.513 205.066C402.513 205.066 401.17 214.03 386.707 215.143L362.603 216.997C362.603 216.997 358.047 233.694 352.63 239.029C347.213 244.365 349.699 244.663 347.666 247.264C345.633 249.864 348.486 250.561 345.4 250.814C342.314 251.067 335.938 247.341 335.869 244.459C335.8 241.577 337.6 239.926 338.4 239.192C339.2 238.458 341.229 231.443 342.445 229.959C343.662 228.475 348.267 210.629 348.267 210.629C348.267 210.629 352.863 201.995 359.236 201.307C365.608 200.618 372.697 197.523 372.697 197.523" fill="#5D5B75"/>
<path d="M364.879 148.56C364.879 148.56 359.807 134.796 356.335 139.182C352.863 143.567 361.921 150.77 361.921 150.77L364.879 148.56Z" fill="#A0616A"/>
<path d="M391.601 155.746L388.713 154.525C388.713 154.525 383.411 158.103 383.062 159.265C382.713 160.426 383.469 160.02 381.387 161.042C379.305 162.064 373.616 164.538 372.86 164.944C372.104 165.351 363.542 150.224 365.589 148.051C365.589 148.051 361.757 149.431 360.012 148.908C360.012 148.908 364.368 169.997 365.03 172.855C365.693 175.712 367.24 176.049 370.125 176.154C373.01 176.259 390.529 171.126 390.529 171.126L391.601 155.746Z" fill="#575A89"/>
<path d="M346.413 246.381C346.413 246.381 346.267 249.373 346.767 249.717C347.267 250.061 350.358 257.34 345.597 258.042C340.837 258.745 338.223 257.831 337.072 258.217C335.92 258.604 316.944 257.04 317.09 254.048C317.236 251.057 326.724 251.838 326.724 251.838C326.724 251.838 336.123 247.404 337.882 244.638C339.642 241.872 346.413 246.381 346.413 246.381Z" fill="#2F2E41"/>
<path opacity="0.1" d="M346.413 246.381C346.413 246.381 346.267 249.373 346.767 249.717C347.267 250.061 350.358 257.34 345.597 258.042C340.837 258.745 338.223 257.831 337.072 258.217C335.92 258.604 316.944 257.04 317.09 254.048C317.236 251.057 326.724 251.838 326.724 251.838C326.724 251.838 336.123 247.404 337.882 244.638C339.642 241.872 346.413 246.381 346.413 246.381Z" fill="black"/>
<path d="M356.204 262.14C356.204 262.14 353.318 274.698 351.201 274.57C349.084 274.442 334.138 267.178 332.299 265.739C329.938 263.892 330.031 260.627 332.741 261.313C335.452 261.999 343.118 261.384 344.421 260.001L347.771 256.447L356.204 262.14Z" fill="#28273B"/>
<path d="M385.793 192.373C386.584 193.116 410.638 213.494 410.638 213.494C410.638 213.494 409.951 222.532 395.608 224.691L371.702 228.29C371.702 228.29 368.374 245.274 363.36 250.989C358.345 256.704 360.846 256.82 359.008 259.561C357.17 262.303 360.066 262.791 357.007 263.267C353.947 263.743 347.317 260.49 347.038 257.62C346.759 254.751 348.435 252.974 349.179 252.184C349.924 251.394 351.437 244.25 352.542 242.682C353.647 241.113 356.941 222.98 356.941 222.98C356.941 222.98 360.897 214.036 367.202 212.886C373.507 211.737 380.352 208.135 380.352 208.135" fill="#3B3952"/>
<path d="M407.935 148.225C414.234 148.225 419.341 143.126 419.341 136.835C419.341 130.544 414.234 125.445 407.935 125.445C401.636 125.445 396.529 130.544 396.529 136.835C396.529 143.126 401.636 148.225 407.935 148.225Z" fill="#A0616A"/>
<path d="M413.914 143.945C413.914 143.945 412.203 150.903 414.808 154.47C417.414 158.037 397.382 156.339 397.382 156.339C397.382 156.339 402.804 145.048 400.804 142.422C398.803 139.797 413.914 143.945 413.914 143.945Z" fill="#A0616A"/>
<path d="M388.309 154.886C385.889 157.453 386.714 172.009 386.714 172.009L388.26 185.008C388.26 185.008 386.41 187.366 387.015 188.307C387.62 189.248 388.608 190.177 386.7 190.619C384.793 191.06 380.395 191.768 381.803 193.836C382.262 194.422 382.755 194.982 383.277 195.512C383.726 195.986 384.259 196.536 384.863 197.149C386.278 198.576 388.078 200.331 390.074 202.181C390.64 202.709 391.219 203.242 391.813 203.779C399.429 210.659 408.9 217.942 410.859 214.447C414.14 208.592 416.42 207.756 416.27 202.773C416.119 197.789 420.343 184.999 420.343 184.999C420.343 184.999 425.254 163.172 418.333 156.666L417.251 154.937C416.749 154.134 416.006 153.508 415.128 153.149C414.25 152.791 413.281 152.717 412.359 152.938C408.981 153.744 403.802 154.858 401.559 154.678C398.092 154.399 398.852 152.975 398.852 152.975C398.852 152.975 390.729 152.319 388.309 154.886Z" fill="#575A89"/>
<path d="M377.614 201.445C377.614 201.445 363.503 204.94 365.574 209.866C367.644 214.791 379.859 205.789 379.859 205.789L377.614 201.445Z" fill="#A0616A"/>
<path d="M414.248 141.002C413.967 140.662 414.244 140.166 414.489 139.799C415.798 137.835 416.049 135.041 414.608 133.171C414.04 132.474 413.33 131.907 412.525 131.506C411.394 130.908 410.161 130.53 408.889 130.392C408.212 130.382 407.543 130.25 406.913 130.003C406.516 129.802 404.639 129.145 404.236 128.954C403.35 128.534 402.118 128.715 401.55 127.916C401.007 127.152 401.514 126.105 402.042 125.331C403.243 123.565 406.282 122.102 408.369 121.639C409.952 121.287 411.605 121.781 413.072 122.472C414.764 123.31 416.368 124.312 417.863 125.465C419.915 126.984 421.938 128.667 423.17 130.901C424.403 133.136 424.7 136.046 423.308 138.184C423.018 138.63 422.663 139.032 422.391 139.489C421.728 140.604 421.609 141.952 421.141 143.161C420.792 144.045 420.262 144.846 419.585 145.512C418.907 146.179 418.097 146.696 417.207 147.031C415.781 147.558 414.027 147.703 413.184 148.968L412.791 146.332C412.688 145.999 412.703 145.642 412.832 145.319C412.962 144.996 413.198 144.727 413.502 144.558L415.523 142.858C415.925 142.585 416.231 142.191 416.396 141.733C416.833 139.913 414.716 141.569 414.248 141.002Z" fill="#2F2E41"/>
<path opacity="0.1" d="M394.017 191.165L384.864 197.149C386.679 198.982 389.131 201.354 391.813 203.779C394.354 202.413 396.945 200.934 399.263 199.449C407.744 194.013 415.015 180.364 418.273 173.742C421.531 167.121 418.879 162.021 418.879 162.021C416.721 161.066 414.437 160.425 412.097 160.115C407.852 159.476 394.017 191.165 394.017 191.165Z" fill="#393E46"/>
<path opacity="0.1" d="M392.808 189.283L383.277 195.512C383.726 195.986 384.259 196.536 384.864 197.149C386.278 198.576 388.078 200.331 390.074 202.181C392.782 200.738 395.575 199.155 398.053 197.566C406.534 192.131 413.806 178.482 417.064 171.86C420.321 165.239 411.556 167.614 411.556 167.614C411.556 167.614 416.104 165.558 411.859 164.919C407.613 164.28 392.808 189.283 392.808 189.283Z" fill="#393E46"/>
<path d="M418.461 160.883C418.461 160.883 421.112 165.983 417.854 172.604C414.597 179.225 407.325 192.874 398.844 198.31C390.363 203.746 378.23 209.1 378.23 209.1C378.23 209.1 377.079 202.804 375.136 202.095L393.599 190.027C393.599 190.027 407.433 158.338 411.679 158.977C414.019 159.286 416.302 159.928 418.461 160.883Z" fill="#575A89"/>
<path d="M380.961 228.125V259.441H384.446V227.589L380.961 228.125Z" fill="#2F2E41"/>
<path d="M386.054 247.396C386.054 247.396 392.755 273.627 388.466 277.375C388.466 277.375 382.837 260.779 378.549 262.921L379.889 247.396H386.054Z" fill="#36334A"/>
<path d="M438.052 190.384L403.208 191.455C403.208 191.455 372.384 221.433 397.847 230.534C397.847 230.534 429.207 235.619 436.712 229.731C436.712 229.731 446.093 192.793 438.052 190.384ZM436.444 200.288L399.187 202.697C399.187 202.697 401.868 193.596 412.589 193.596C423.31 193.596 435.371 191.187 436.444 196.808C437.516 202.429 436.444 200.288 436.444 200.288V200.288Z" fill="#2F2E41"/>
<path d="M430.145 286.475C449.463 286.475 465.123 268.739 465.123 246.861C465.123 224.983 449.463 207.247 430.145 207.247C410.827 207.247 395.167 224.983 395.167 246.861C395.167 268.739 410.827 286.475 430.145 286.475Z" fill="#36334A"/>
<path d="M431.753 276.304C446.334 276.304 458.154 263.122 458.154 246.861C458.154 230.6 446.334 217.418 431.753 217.418C417.172 217.418 405.352 230.6 405.352 246.861C405.352 263.122 417.172 276.304 431.753 276.304Z" fill="#007C82"/>
<path d="M438.588 246.459C438.587 245.946 438.536 245.434 438.435 244.93L458.154 235.084L456.814 232.14L436.894 241.831C436.693 241.624 436.472 241.439 436.233 241.278L436.248 241.282L442.072 212.332L436.92 212.215L433.495 240.705L433.824 240.774C433.558 240.828 433.299 240.916 433.055 241.036L415.828 223.376L413.393 226.786L431.093 243.048C430.649 243.899 430.383 244.832 430.309 245.789L405.352 255.962L404.816 260.244L430.831 249.318C431.074 249.919 431.418 250.474 431.848 250.959L423.846 278.178H426.794L433.511 252.067C433.809 252.163 434.12 252.213 434.433 252.214C435.038 252.209 435.629 252.032 436.137 251.704L450.113 270.148L454.402 267.203L438.026 249.341C438.402 248.427 438.593 247.447 438.588 246.459Z" fill="#36334A"/>
<path d="M346.712 149.765C353.82 149.765 359.583 144.011 359.583 136.912C359.583 129.814 353.82 124.059 346.712 124.059C339.604 124.059 333.841 129.814 333.841 136.912C333.841 144.011 339.604 149.765 346.712 149.765Z" fill="#00ADB5"/>
<path d="M476.898 268.813C476.898 275.878 472.692 278.345 467.504 278.345C467.384 278.345 467.264 278.343 467.144 278.341C466.904 278.335 466.665 278.324 466.43 278.308C461.748 277.977 458.11 275.383 458.11 268.813C458.11 262.015 466.81 253.435 467.465 252.799L467.466 252.798C467.491 252.773 467.504 252.761 467.504 252.761C467.504 252.761 476.898 261.749 476.898 268.813Z" fill="#00ADB5"/>
<path d="M467.162 277.264L470.598 272.47L467.153 277.791L467.144 278.341C466.904 278.335 466.665 278.324 466.43 278.308L466.8 271.24L466.798 271.185L466.804 271.175L466.839 270.507L463.386 265.174L466.85 270.006L466.858 270.148L467.137 264.808L464.182 259.297L467.174 263.871L467.465 252.799L467.466 252.761V252.798L467.418 261.529L470.361 258.068L467.406 262.281L467.328 267.062L470.076 262.473L467.316 267.766L467.273 270.424L471.262 264.037L467.258 271.352L467.162 277.264Z" fill="#007C82"/>
</g>
<defs>
<clipPath id="clip0">
<rect width="484" height="310" fill="white"/>
</clipPath>
</defs>
</svg>
