<svg xmlns="http://www.w3.org/2000/svg" width="100" height="100" fill="none" viewBox="0 0 100 100"><path fill="#EEE" d="M50.0396 73.1968C55.8256 73.1968 60.7133 68.0713 60.7133 61.4399C60.7133 54.967 55.7992 50 50.0396 50C44.2801 50 39.3659 55.0462 39.3923 61.4927C39.3923 68.0713 44.2536 73.1968 50.0396 73.1968ZM19.4452 73.8045C24.4914 73.8045 28.745 69.3131 28.745 63.5535C28.745 57.8996 24.465 53.5931 19.4452 53.5931C14.4518 53.5931 10.1453 57.9789 10.1717 63.6063C10.1717 69.3131 14.4254 73.8045 19.4452 73.8045ZM80.5548 73.8045C85.5746 73.8045 89.8283 69.3131 89.8283 63.6063C89.8547 57.9789 85.5482 53.5931 80.5548 53.5931C75.5614 53.5931 71.255 57.8996 71.255 63.5535C71.255 69.3131 75.535 73.8045 80.5548 73.8045ZM4.88771 97.7939H24.7028C21.8758 93.7517 24.9406 85.7728 30.9115 81.07C28.0053 79.1942 24.2008 77.8203 19.4452 77.8203C7.6354 77.8203 0 86.5126 0 93.6724C0 96.288 1.321 97.7939 4.88771 97.7939ZM95.1123 97.7939C98.679 97.7939 100 96.288 100 93.6724C100 86.5126 92.3646 77.8203 80.5548 77.8203C75.7992 77.8203 72.0211 79.1942 69.1149 81.07C75.0859 85.7728 78.1506 93.7517 75.3236 97.7939H95.1123ZM33.5535 97.7675H66.4993C70.8587 97.7675 72.3646 96.4465 72.3646 94.0159C72.3646 87.2259 63.7252 77.8732 50.0396 77.8732C36.3276 77.8732 27.7147 87.2259 27.7147 94.0159C27.7147 96.4465 29.2206 97.7675 33.5535 97.7675Z"/></svg>