<svg width="100" height="100" viewBox="0 0 100 100" fill="none" xmlns="http://www.w3.org/2000/svg">
<path d="M40.5903 12.6047C44.0937 12.6047 46.9497 9.78675 46.9497 6.28332C46.9497 2.81797 44.0937 0 40.5903 0C37.1249 0 34.3069 2.81797 34.3069 6.28332C34.3069 9.78675 37.1249 12.6047 40.5903 12.6047ZM78.4425 12.6047C81.9459 12.6047 84.802 9.78675 84.802 6.28332C84.802 2.81797 81.9459 0 78.4425 0C75.0152 0 72.1592 2.81797 72.1592 6.28332C72.1592 9.78675 75.0152 12.6047 78.4425 12.6047ZM21.2452 30.7312C24.7867 30.7312 27.5666 27.9132 27.5666 24.4097C27.5666 20.9444 24.7867 18.1264 21.2452 18.1264C17.7799 18.1264 15 20.9444 15 24.4097C15 27.9132 17.7799 30.7312 21.2452 30.7312ZM60.1637 30.7312C63.6672 30.7312 66.5232 27.9132 66.5232 24.4097C66.5232 20.9444 63.6672 18.1264 60.1637 18.1264C56.6984 18.1264 53.8804 20.9444 53.8804 24.4097C53.8804 27.9132 56.6984 30.7312 60.1637 30.7312ZM78.4425 30.7312C81.9459 30.7312 84.802 27.9132 84.802 24.4097C84.802 20.9444 81.9459 18.1264 78.4425 18.1264C75.0152 18.1264 72.1592 20.9444 72.1592 24.4097C72.1592 27.9132 75.0152 30.7312 78.4425 30.7312ZM54.2612 100C71.3595 100 81.0701 89.2993 81.0701 71.0586V63.4806C81.0701 56.588 77.757 52.1706 73.8347 52.1706C72.8446 52.1706 72.3115 52.7037 72.3115 53.6558V56.9307C72.3115 58.3778 71.588 59.1013 70.7502 59.1013C69.8363 59.1013 69.1127 58.3778 69.1127 56.9307V54.7982C69.1127 50.6474 66.4471 47.9056 62.8294 47.9056C61.1158 47.9056 60.3161 48.6291 60.3161 50.1142V54.6078C60.3161 56.0548 59.5925 56.7784 58.7548 56.7784C57.8027 56.7784 57.1173 56.0548 57.1173 54.6078V50.457C57.1173 45.8873 54.4516 43.5644 50.872 43.5644C49.2346 43.5644 48.3587 44.3641 48.3587 45.773V54.6078C48.3587 56.0548 47.6352 56.7784 46.7974 56.7784C45.8835 56.7784 45.1599 56.0548 45.1599 54.6078V25.4379C45.1599 22.4676 43.1797 20.4494 40.5903 20.4494C37.8484 20.4494 35.9444 22.4296 35.9444 25.4379V67.7456C35.9444 68.7357 35.3351 69.2308 34.7258 69.2308C34.1546 69.2308 33.6596 68.888 33.2788 67.9741L27.719 54.8363C26.8431 52.7418 25.4722 51.6756 23.4539 51.6756C20.5979 51.6756 18.6938 53.6177 18.6938 56.0929C18.6938 57.0069 18.8842 57.7685 19.1127 58.4539L25.6245 77.5324C31.032 93.374 41.428 100 54.2612 100Z" fill="#EEEEEE"/>
<path d="M21.4106 24.6259L40.8213 6.42834L60.2319 24.6259H78.4295V6.42834" stroke="#EEEEEE" stroke-width="4"/>
</svg>
