<svg width="100" height="100" viewBox="0 0 100 100" fill="none" xmlns="http://www.w3.org/2000/svg">
<g clip-path="url(#clip0)">
<path d="M6.10794 40.3371L10.1229 37.3864L14.0411 40.3371C15.6858 41.5464 17.5723 40.2404 16.9435 38.4022L15.3472 33.5649L19.3138 30.6141C20.8133 29.5016 20.1845 27.3731 18.3463 27.3731H13.4123L11.7676 22.1972C11.2355 20.6009 9.01032 20.6009 8.47822 22.1972L6.83353 27.3731H1.85111C-0.0354377 27.3731 -0.664287 29.5016 0.835277 30.6141L4.85024 33.5649L3.3023 38.4022C2.67345 40.2404 4.51163 41.5464 6.10794 40.3371ZM34.5997 36.5157H95.3562C97.9683 36.5157 100 34.484 100 31.8718C100 29.2597 97.9683 27.228 95.3562 27.228H34.5997C31.9875 27.228 29.9558 29.2597 29.9558 31.8718C29.9558 34.484 31.9875 36.5157 34.5997 36.5157ZM6.10794 70.0382L10.1229 67.0874L14.0411 70.0382C15.6858 71.2959 17.5723 69.9414 16.9435 68.1032L15.3472 63.2659L19.3138 60.3152C20.8133 59.2026 20.1845 57.0742 18.3463 57.0742H13.4123L11.7676 51.8983C11.2355 50.302 9.01032 50.302 8.47822 51.8983L6.83353 57.0742H1.85111C-0.0354377 57.0742 -0.664287 59.2026 0.835277 60.3152L4.85024 63.2659L3.3023 68.1032C2.67345 69.9414 4.51163 71.2475 6.10794 70.0382ZM34.5997 66.2651H95.3562C97.9683 66.2651 100 64.2334 100 61.6213C100 59.0091 97.9683 56.9774 95.3562 56.9774H34.5997C31.9875 56.9774 29.9558 59.0091 29.9558 61.6213C29.9558 64.2334 31.9875 66.2651 34.5997 66.2651ZM6.10794 99.836L10.1229 96.8852L14.0411 99.836C15.6858 101.094 17.5723 99.7392 16.9435 97.901L15.3472 93.0637L19.3138 90.113C20.8133 89.0004 20.1845 86.872 18.3463 86.872H13.4123L11.7676 81.6961C11.2355 80.0998 9.01032 80.0998 8.47822 81.6961L6.83353 86.872H1.85111C-0.0354377 86.872 -0.664287 89.0004 0.835277 90.113L4.85024 93.0637L3.3023 97.901C2.67345 99.7392 4.51163 101.045 6.10794 99.836ZM34.5997 96.0145H95.3562C97.9683 96.0145 100 93.9828 100 91.3707C100 88.7585 97.9683 86.7269 95.3562 86.7269H34.5997C31.9875 86.7269 29.9558 88.7585 29.9558 91.3707C29.9558 93.9828 31.9875 96.0145 34.5997 96.0145Z" fill="#EEEEEE"/>
</g>
<defs>
<clipPath id="clip0">
<rect width="100" height="100" fill="white"/>
</clipPath>
</defs>
</svg>
