<svg xmlns="http://www.w3.org/2000/svg" width="64" height="76" fill="none" viewBox="0 0 64 76"><path fill="#001C1E" d="M63.6298 63.647C64.1572 64.1737 64.1045 65.0164 63.5771 65.4904C56.8258 71.7579 47.7538 75.6553 37.8379 75.6553C34.726 75.6553 31.6668 75.2866 28.7659 74.5493C27.1308 74.1279 25.4958 73.6012 23.9134 73.0219C22.0147 72.2845 20.1686 71.3365 18.4281 70.2832C18.0588 70.0725 17.7951 69.6512 17.7951 69.1771V36.9971C18.0061 31.7303 20.3268 26.9902 23.9134 23.5142C25.0738 22.4081 26.3924 21.4075 27.8165 20.5648C28.6604 20.0908 29.7153 20.6701 29.7153 21.6708V61.435C29.7153 62.0143 30.0845 62.4883 30.6647 62.6463C32.9327 63.331 35.3589 63.647 37.8379 63.647C44.5364 63.647 50.602 61.119 55.1907 56.9055C55.7182 56.4315 56.4566 56.4315 56.984 56.9582L63.6298 63.647Z"/><path fill="#00ADB5" d="M63.6498 11.9557L56.9943 18.5919C56.5189 19.0659 55.7266 19.0659 55.1984 18.6446C50.6029 14.4838 44.4756 11.903 37.8201 11.903C34.9678 11.903 32.2739 12.377 29.6856 13.2197C27.6256 13.9044 25.6712 14.8524 23.8753 16.0112C21.5511 17.4859 19.4911 19.3293 17.748 21.436C17.748 21.436 17.748 21.436 17.748 21.4886C14.1033 25.9128 11.9376 31.601 11.9376 37.7631V62.0959C11.9376 63.2546 10.5115 63.8339 9.71914 62.9386C3.6975 56.2497 0 47.4014 0 37.7105C0 26.9135 4.59546 17.1172 11.9376 10.2176C13.7336 8.53226 15.688 7.05755 17.748 5.74084C19.6496 4.52947 21.7096 3.47611 23.8753 2.63341C25.724 1.89606 27.6784 1.31671 29.6856 0.842692C32.3267 0.31601 35.0206 0 37.8201 0C47.7506 0 56.8358 3.84478 63.597 10.165C64.1252 10.639 64.1252 11.4817 63.6498 11.9557Z"/></svg>